SplineFontDB: 3.0
FontName: Puritan-BoldItalic
FullName: Puritan Bold Italic
FamilyName: Puritan
Weight: Bold
Copyright: Copyright 1999-2010 Ben Weiner. Licensed under the Open Font License v1.1 (http://scripts.sil.org/OFL)
Version: 2.1
ItalicAngle: 0
UnderlinePosition: -133
UnderlineWidth: 20
Ascent: 800
Descent: 200
LayerCount: 2
Layer: 0 1 "Back"  1
Layer: 1 1 "Fore"  0
XUID: [1021 87 1747694147 14594809]
FSType: 0
OS2Version: 0
OS2_WeightWidthSlopeOnly: 0
OS2_UseTypoMetrics: 1
CreationTime: 988647379
ModificationTime: 1290780334
PfmFamily: 81
TTFWeight: 700
TTFWidth: 5
LineGap: 0
VLineGap: 0
Panose: 0 0 7 0 0 0 0 0 0 0
OS2TypoAscent: 75
OS2TypoAOffset: 1
OS2TypoDescent: -50
OS2TypoDOffset: 1
OS2TypoLinegap: 0
OS2WinAscent: 0
OS2WinAOffset: 1
OS2WinDescent: 0
OS2WinDOffset: 1
HheadAscent: 0
HheadAOffset: 1
HheadDescent: -8
HheadDOffset: 1
OS2SubXSize: 700
OS2SubYSize: 650
OS2SubXOff: 0
OS2SubYOff: 143
OS2SupXSize: 700
OS2SupYSize: 650
OS2SupXOff: 0
OS2SupYOff: 453
OS2StrikeYSize: 50
OS2StrikeYPos: 259
OS2Vendor: 'Alts'
Lookup: 4 0 0 "'frac' Diagonal Fractions lookup 0"  {"'frac' Diagonal Fractions lookup 0 subtable"  } ['frac' ('grek' <'dflt' > 'latn' <'dflt' > ) ]
MarkAttachClasses: 1
DEI: 91125
TtTable: prep
NPUSHB
 19
 12
 12
 11
 11
 10
 10
 9
 9
 4
 4
 3
 3
 2
 2
 1
 1
 0
 0
 1
SCANTYPE
PUSHW_1
 511
SCANCTRL
RCVT
ROUND[Grey]
WCVTP
RCVT
ROUND[Grey]
WCVTP
RCVT
ROUND[Grey]
WCVTP
RCVT
ROUND[Grey]
WCVTP
RCVT
ROUND[Grey]
WCVTP
RCVT
ROUND[Grey]
WCVTP
RCVT
ROUND[Grey]
WCVTP
RCVT
ROUND[Grey]
WCVTP
RCVT
ROUND[Grey]
WCVTP
PUSHB_4
 6
 5
 70
 0
CALL
PUSHB_4
 8
 7
 70
 0
CALL
PUSHB_2
 5
 5
RCVT
ROUND[Grey]
WCVTP
PUSHB_2
 7
 7
RCVT
ROUND[Grey]
WCVTP
EndTTInstrs
TtTable: fpgm
NPUSHB
 1
 0
FDEF
SROUND
RCVT
DUP
PUSHB_1
 3
CINDEX
RCVT
SWAP
SUB
ROUND[Grey]
RTG
SWAP
ROUND[Grey]
ADD
WCVTP
ENDF
EndTTInstrs
ShortTable: cvt  138
  -197
  -16
  504
  650
  698
  117
  108
  89
  100
  117
  99
  71
  170
  23630
  2086
  -9787
  14927
  21985
  -8739
  31343
  -7176
  -30170
  12383

StartChar: .notdef
Encoding: 256 -1 0
Width: 500
Flags: W
LayerCount: 2
Fore
SplineSet
63 0 m 1,0,-1
 63 750 l 1,1,-1
 438 750 l 1,2,-1
 438 0 l 1,3,-1
 63 0 l 1,0,-1
125 63 m 1,4,-1
 375 63 l 1,5,-1
 375 688 l 1,6,-1
 125 688 l 1,7,-1
 125 63 l 1,4,-1
EndSplineSet
EndChar

StartChar: exclam
Encoding: 33 33 4
Width: 235
Flags: W
LayerCount: 2
Fore
SplineSet
40 172 m 1,0,-1
 94 686 l 1,1,-1
 219 686 l 1,2,-1
 165 172 l 1,3,-1
 40 172 l 1,0,-1
7 44 m 0,4,5
 11 76 11 76 35 99 c 128,-1,6
 59 122 59 122 92 122 c 0,7,8
 124 122 124 122 145 99 c 128,-1,9
 166 76 166 76 162 44 c 0,10,11
 159 11 159 11 133.5 -11 c 128,-1,12
 108 -33 108 -33 75 -33 c 0,13,14
 44 -33 44 -33 24 -10.5 c 128,-1,15
 4 12 4 12 7 44 c 0,4,5
EndSplineSet
EndChar

StartChar: quotedbl
Encoding: 34 34 5
Width: 329
Flags: W
LayerCount: 2
Fore
SplineSet
202 645 m 1,0,-1
 200 425 l 1,1,-1
 234 425 l 1,2,-1
 297 645 l 1,3,-1
 202 645 l 1,0,-1
61 645 m 1,4,-1
 59 425 l 1,5,-1
 92 425 l 1,6,-1
 155 645 l 1,7,-1
 61 645 l 1,4,-1
EndSplineSet
EndChar

StartChar: numbersign
Encoding: 35 35 6
Width: 536
Flags: W
LayerCount: 2
Fore
SplineSet
377 529 m 1,0,-1
 373 495 l 1,1,-1
 445 502 l 1,2,-1
 436 419 l 1,3,-1
 364 411 l 1,4,-1
 354 324 l 1,5,-1
 265 314 l 1,6,-1
 276 402 l 1,7,-1
 239 398 l 1,8,-1
 229 311 l 1,9,-1
 140 301 l 1,10,-1
 150 389 l 1,11,-1
 57 379 l 1,12,-1
 66 462 l 1,13,-1
 159 472 l 1,14,-1
 163 507 l 1,15,-1
 71 497 l 1,16,-1
 79 580 l 1,17,-1
 172 590 l 1,18,-1
 179 658 l 1,19,-1
 268 667 l 1,20,-1
 260 600 l 1,21,-1
 298 603 l 1,22,-1
 305 671 l 1,23,-1
 394 682 l 1,24,-1
 386 613 l 1,25,-1
 459 620 l 1,26,-1
 450 537 l 1,27,-1
 377 529 l 1,0,-1
248 482 m 1,28,-1
 284 485 l 1,29,-1
 288 520 l 1,30,-1
 252 516 l 1,31,-1
 248 482 l 1,28,-1
EndSplineSet
EndChar

StartChar: dollar
Encoding: 36 36 7
Width: 536
Flags: W
LayerCount: 2
Fore
SplineSet
286 -100 m 1,0,-1
 169 -100 l 1,1,-1
 179 -10 l 1,2,3
 92 7 92 7 49 80 c 1,4,-1
 123 159 l 1,5,6
 176 84 176 84 242 84 c 0,7,8
 275 84 275 84 301 109.5 c 128,-1,9
 327 135 327 135 331 174 c 0,10,11
 335 216 335 216 278 241 c 0,12,13
 174 287 174 287 168 291 c 0,14,15
 108 333 108 333 108 412 c 0,16,17
 108 426 108 426 109 441 c 0,18,19
 116 498 116 498 154 542 c 0,20,21
 190 583 190 583 243 601 c 1,22,-1
 253 690 l 1,23,-1
 370 690 l 1,24,-1
 360 604 l 1,25,26
 410 590 410 590 468 537 c 1,27,-1
 398 460 l 1,28,29
 343 514 343 514 297 514 c 0,30,31
 269 514 269 514 249.5 493.5 c 128,-1,32
 230 473 230 473 226 436 c 0,33,34
 222 400 222 400 279 379 c 0,35,36
 368 346 368 346 387 333 c 0,37,38
 446 291 446 291 446 205 c 0,39,40
 446 191 446 191 444 175 c 0,41,42
 430 32 430 32 296 -7 c 1,43,-1
 286 -100 l 1,0,-1
EndSplineSet
EndChar

StartChar: percent
Encoding: 37 37 8
Width: 536
Flags: W
LayerCount: 2
Fore
SplineSet
178 650 m 0,0,1
 229 650 229 650 259 612.5 c 128,-1,2
 289 575 289 575 283 518 c 0,3,4
 276 455 276 455 239.5 420 c 128,-1,5
 203 385 203 385 151 385 c 0,6,7
 103 385 103 385 74 414 c 128,-1,8
 45 443 45 443 45 497 c 0,9,10
 45 558 45 558 81 602 c 0,11,12
 119 650 119 650 178 650 c 0,0,1
-32 -46 m 1,13,-1
 407 634 l 1,14,-1
 502 596 l 1,15,-1
 70 -82 l 1,16,-1
 -32 -46 l 1,13,-1
254 131 m 0,17,18
 260 188 260 188 298.5 226.5 c 128,-1,19
 337 265 337 265 389 265 c 0,20,21
 440 265 440 265 470 226.5 c 128,-1,22
 500 188 500 188 494 131 c 0,23,24
 487 65 487 65 450.5 29.5 c 128,-1,25
 414 -6 414 -6 361 -6 c 0,26,27
 312 -6 312 -6 282.5 23.5 c 128,-1,28
 253 53 253 53 253 108 c 0,29,30
 253 119 253 119 254 131 c 0,17,18
139 515 m 0,31,32
 135 474 135 474 160 474 c 0,33,34
 184 474 184 474 188 515 c 0,35,36
 193 559 193 559 168 559 c 0,37,38
 144 559 144 559 139 515 c 0,31,32
349 127 m 0,39,40
 345 85 345 85 370 85 c 0,41,42
 394 85 394 85 398 127 c 0,43,44
 403 172 403 172 378 172 c 0,45,46
 354 172 354 172 349 127 c 0,39,40
EndSplineSet
EndChar

StartChar: ampersand
Encoding: 38 38 9
Width: 555
Flags: W
LayerCount: 2
Fore
SplineSet
116 186 m 0,0,1
 112 145 112 145 132 113 c 0,2,3
 155 75 155 75 201 75 c 0,4,5
 242 75 242 75 289 120 c 1,6,7
 193 222 193 222 166 292 c 1,8,9
 125 264 125 264 116 186 c 0,0,1
351 60 m 1,10,11
 330 32 330 32 285 11.5 c 128,-1,12
 240 -9 240 -9 196 -9 c 0,13,14
 105 -9 105 -9 55 40 c 0,15,16
 9 85 9 85 9 156 c 0,17,18
 9 217 9 217 44 274 c 0,19,20
 76 329 76 329 130 363 c 1,21,22
 103 418 103 418 109 475 c 0,23,24
 116 546 116 546 170 593 c 128,-1,25
 224 640 224 640 293 640 c 0,26,27
 335 640 335 640 362 627 c 0,28,29
 394 611 394 611 426 568 c 1,30,-1
 363 506 l 1,31,32
 330 552 330 552 267 552 c 0,33,34
 226 552 226 552 219 489 c 0,35,36
 216 461 216 461 230 414 c 1,37,38
 273 430 273 430 341 432 c 1,39,-1
 349 352 l 1,40,41
 298 352 298 352 269 344 c 1,42,43
 317 264 317 264 356 213 c 1,44,45
 362 228 362 228 363 242 c 0,46,47
 367 275 367 275 362 314 c 1,48,-1
 452 330 l 1,49,50
 455 275 455 275 452 253 c 0,51,52
 447 202 447 202 423 145 c 1,53,54
 442 126 442 126 510 87 c 1,55,-1
 437 0 l 1,56,57
 405 12 405 12 351 60 c 1,10,11
EndSplineSet
EndChar

StartChar: quotesingle
Encoding: 39 39 10
Width: 194
Flags: W
LayerCount: 2
Fore
SplineSet
62 646 m 1,0,-1
 67 413 l 1,1,-1
 96 413 l 1,2,-1
 156 646 l 1,3,-1
 62 646 l 1,0,-1
EndSplineSet
EndChar

StartChar: parenleft
Encoding: 40 40 11
Width: 318
Flags: W
LayerCount: 2
Fore
SplineSet
211 789 m 1,0,-1
 287 744 l 1,1,2
 170 500 170 500 151 323 c 0,3,4
 146 278 146 278 146 235 c 0,5,6
 146 157 146 157 163 68 c 0,7,8
 169 36 169 36 201 -100 c 1,9,-1
 113 -143 l 1,10,11
 41 38 41 38 41 226 c 0,12,13
 41 521 41 521 211 789 c 1,0,-1
EndSplineSet
EndChar

StartChar: parenright
Encoding: 41 41 12
Width: 316
Flags: W
LayerCount: 2
Fore
SplineSet
29 -100 m 1,0,1
 101 63 101 63 116 104 c 0,2,3
 155 212 155 212 167 319 c 0,4,5
 172 366 172 366 172 413 c 0,6,7
 172 557 172 557 120 745 c 1,8,-1
 206 788 l 1,9,10
 275 624 275 624 275 433 c 0,11,12
 275 133 275 133 108 -143 c 1,13,-1
 29 -100 l 1,0,1
EndSplineSet
EndChar

StartChar: asterisk
Encoding: 42 42 13
Width: 275
Flags: W
LayerCount: 2
Fore
SplineSet
162 500 m 1,0,-1
 158 446 l 1,1,-1
 83 446 l 1,2,-1
 91 500 l 1,3,-1
 45 462 l 1,4,-1
 10 532 l 1,5,-1
 74 569 l 1,6,-1
 19 607 l 1,7,-1
 66 677 l 1,8,-1
 106 638 l 1,9,-1
 110 694 l 1,10,-1
 185 692 l 1,11,-1
 176 640 l 1,12,-1
 221 678 l 1,13,-1
 254 607 l 1,14,-1
 193 570 l 1,15,-1
 248 532 l 1,16,-1
 199 462 l 1,17,-1
 162 500 l 1,0,-1
EndSplineSet
EndChar

StartChar: plus
Encoding: 43 43 14
Width: 498
Flags: W
LayerCount: 2
Fore
SplineSet
295 96 m 1,0,-1
 203 96 l 1,1,-1
 203 266 l 1,2,-1
 52 266 l 1,3,-1
 52 360 l 1,4,-1
 203 360 l 1,5,-1
 203 521 l 1,6,-1
 295 521 l 1,7,-1
 295 360 l 1,8,-1
 446 360 l 1,9,-1
 446 266 l 1,10,-1
 295 266 l 1,11,-1
 295 96 l 1,0,-1
EndSplineSet
EndChar

StartChar: comma
Encoding: 44 44 15
Width: 254
Flags: W
LayerCount: 2
Fore
SplineSet
97 -107 m 1,0,-1
 32 -94 l 1,1,2
 56 -53 56 -53 68 -1 c 0,3,4
 70 9 70 9 82 85 c 1,5,-1
 187 85 l 1,6,7
 183 49 183 49 153 -14 c 0,8,9
 124 -73 124 -73 97 -107 c 1,0,-1
EndSplineSet
EndChar

StartChar: hyphen
Encoding: 45 45 16
AltUni2: 002010.ffffffff.0
Width: 380
Flags: W
LayerCount: 2
Fore
SplineSet
55 360 m 1,0,-1
 335 360 l 1,1,-1
 325 267 l 1,2,-1
 45 267 l 1,3,-1
 55 360 l 1,0,-1
EndSplineSet
EndChar

StartChar: period
Encoding: 46 46 17
Width: 244
Flags: W
LayerCount: 2
Fore
SplineSet
36 77 m 256,0,1
 40 113 40 113 68.5 138.5 c 128,-1,2
 97 164 97 164 132 164 c 0,3,4
 168 164 168 164 191 138.5 c 128,-1,5
 214 113 214 113 210 77 c 256,6,7
 206 41 206 41 177.5 16 c 128,-1,8
 149 -9 149 -9 114 -9 c 256,9,10
 79 -9 79 -9 55.5 16 c 128,-1,11
 32 41 32 41 36 77 c 256,0,1
EndSplineSet
EndChar

StartChar: slash
Encoding: 47 47 18
Width: 385
Flags: W
LayerCount: 2
Fore
SplineSet
-58 -149 m 1,0,-1
 342 707 l 1,1,-1
 460 683 l 1,2,-1
 61 -173 l 1,3,-1
 -58 -149 l 1,0,-1
EndSplineSet
EndChar

StartChar: zero
Encoding: 48 48 19
Width: 500
Flags: W
LayerCount: 2
Fore
SplineSet
35 103 m 0,0,1
 4 167 4 167 4 253 c 0,2,3
 4 282 4 282 7 315 c 0,4,5
 22 459 22 459 88 551 c 0,6,7
 164 656 164 656 284 656 c 0,8,9
 390 656 390 656 445 573 c 0,10,11
 495 500 495 500 495 378 c 0,12,13
 495 347 495 347 491 315 c 0,14,15
 479 195 479 195 412 103 c 0,16,17
 329 -12 329 -12 214 -12 c 0,18,19
 91 -12 91 -12 35 103 c 0,0,1
224 85 m 0,20,21
 297 85 297 85 339 169 c 0,22,23
 368 228 368 228 377 315 c 0,24,25
 382 363 382 363 382 397 c 0,26,27
 382 559 382 559 274 559 c 0,28,29
 194 559 194 559 156 470 c 0,30,31
 135 419 135 419 124 315 c 0,32,33
 121 285 121 285 121 256 c 0,34,35
 121 85 121 85 224 85 c 0,20,21
EndSplineSet
EndChar

StartChar: one
Encoding: 49 49 20
Width: 500
Flags: W
LayerCount: 2
Fore
SplineSet
440 100 m 1,0,-1
 430 0 l 1,1,-1
 68 0 l 1,2,-1
 78 100 l 1,3,-1
 211 100 l 1,4,-1
 257 534 l 1,5,-1
 133 534 l 1,6,-1
 143 637 l 1,7,-1
 375 637 l 1,8,-1
 319 100 l 1,9,-1
 440 100 l 1,0,-1
EndSplineSet
EndChar

StartChar: two
Encoding: 50 50 21
Width: 500
Flags: W
LayerCount: 2
Fore
SplineSet
60 99 m 1,0,-1
 260 295 l 2,1,2
 350 382 350 382 357 455 c 0,3,4
 362 501 362 501 341 533 c 128,-1,5
 320 565 320 565 276 565 c 0,6,7
 218 565 218 565 159 477 c 1,8,-1
 89 527 l 1,9,10
 175 658 175 658 284 658 c 0,11,12
 370 658 370 658 424 608 c 128,-1,13
 478 558 478 558 478 479 c 0,14,15
 478 407 478 407 427 333 c 0,16,17
 389 277 389 277 313 211 c 0,18,19
 191 111 l 1,20,-1
 457 111 l 1,21,-1
 445 0 l 1,22,-1
 49 0 l 1,23,-1
 60 99 l 1,0,-1
EndSplineSet
EndChar

StartChar: three
Encoding: 51 51 22
Width: 500
Flags: W
LayerCount: 2
Fore
SplineSet
87 145 m 1,0,1
 153 68 153 68 217 68 c 0,2,3
 274 68 274 68 308 105 c 0,4,5
 336 136 336 136 341 183 c 0,6,7
 345 228 345 228 321 258 c 0,8,9
 293 292 293 292 239 292 c 2,10,-1
 177 292 l 1,11,-1
 186 378 l 1,12,-1
 248 378 l 2,13,14
 290 378 290 378 322.5 408 c 128,-1,15
 355 438 355 438 360 482 c 0,16,17
 364 517 364 517 339.5 544.5 c 128,-1,18
 315 572 315 572 277 572 c 0,19,20
 245 572 245 572 220 554 c 0,21,22
 204 543 204 543 170 506 c 1,23,-1
 114 563 l 1,24,25
 199 660 199 660 286 660 c 0,26,27
 357 660 357 660 409 615 c 0,28,29
 467 565 467 565 459 489 c 0,30,31
 453 436 453 436 418 400 c 0,32,33
 395 376 395 376 347 351 c 1,34,35
 395 326 395 326 423 281 c 0,36,37
 456 231 456 231 450 174 c 0,38,39
 443 109 443 109 385 49 c 0,40,41
 318 -19 318 -19 229 -19 c 0,42,43
 92 -19 92 -19 28 69 c 1,44,-1
 87 145 l 1,0,1
EndSplineSet
EndChar

StartChar: four
Encoding: 52 52 23
Width: 500
Flags: W
LayerCount: 2
Fore
SplineSet
127 230 m 1,0,-1
 275 230 l 1,1,-1
 300 464 l 1,2,-1
 127 230 l 1,0,-1
360 0 m 1,3,-1
 251 0 l 1,4,-1
 266 141 l 1,5,-1
 -3 141 l 1,6,-1
 5 217 l 1,7,-1
 334 651 l 1,8,-1
 428 651 l 1,9,-1
 384 230 l 1,10,-1
 471 230 l 1,11,-1
 462 141 l 1,12,-1
 375 141 l 1,13,-1
 360 0 l 1,3,-1
EndSplineSet
EndChar

StartChar: five
Encoding: 53 53 24
Width: 500
Flags: W
LayerCount: 2
Fore
SplineSet
-1 64 m 1,0,-1
 55 138 l 1,1,2
 109 61 109 61 198 61 c 0,3,4
 254 61 254 61 300 113 c 0,5,6
 340 159 340 159 345 207 c 0,7,8
 346 218 346 218 346 227 c 0,9,10
 346 323 346 323 243 323 c 0,11,12
 223 323 223 323 189 303 c 0,13,14
 151 282 151 282 129 254 c 1,15,-1
 49 274 l 1,16,-1
 88 644 l 1,17,-1
 458 644 l 1,18,-1
 446 533 l 1,19,-1
 156 533 l 1,20,-1
 137 347 l 1,21,22
 159 375 159 375 194 396 c 0,23,24
 237 422 237 422 279 422 c 0,25,26
 356 422 356 422 406 372 c 0,27,28
 458 319 458 319 458 233 c 0,29,30
 458 121 458 121 377 48.5 c 128,-1,31
 296 -24 296 -24 182 -24 c 0,32,33
 44 -24 44 -24 -1 64 c 1,0,-1
EndSplineSet
EndChar

StartChar: six
Encoding: 54 54 25
Width: 500
Flags: W
LayerCount: 2
Fore
SplineSet
124 193 m 0,0,1
 118 137 118 137 145 100 c 0,2,3
 175 58 175 58 234 58 c 0,4,5
 288 58 288 58 330 113 c 0,6,7
 368 164 368 164 368 220 c 0,8,9
 368 271 368 271 341.5 298.5 c 128,-1,10
 315 326 315 326 269 326 c 0,11,12
 214 326 214 326 174 292 c 0,13,14
 130 255 130 255 124 193 c 0,0,1
11 270 m 0,15,16
 29 438 29 438 97 537 c 0,17,18
 179 656 179 656 326 656 c 0,19,20
 395 656 395 656 483 611 c 1,21,-1
 434 528 l 1,22,23
 390 564 390 564 315 564 c 0,24,25
 237 564 237 564 187 491 c 0,26,27
 146 432 146 432 130 335 c 1,28,29
 157 380 157 380 219 405 c 0,30,31
 263 422 263 422 296 422 c 0,32,33
 374 422 374 422 423 378 c 0,34,35
 477 330 477 330 477 244 c 0,36,37
 477 229 477 229 475 213 c 0,38,39
 465 116 465 116 397 49 c 0,40,41
 326 -22 326 -22 225 -22 c 0,42,43
 131 -22 131 -22 74 32 c 0,44,45
 8 94 8 94 8 217 c 0,46,47
 8 242 8 242 11 270 c 0,15,16
EndSplineSet
EndChar

StartChar: seven
Encoding: 55 55 26
Width: 500
Flags: W
LayerCount: 2
Fore
SplineSet
155 -32 m 1,0,-1
 49 -2 l 1,1,-1
 376 535 l 1,2,-1
 60 535 l 1,3,-1
 72 644 l 1,4,-1
 494 644 l 1,5,-1
 483 543 l 1,6,-1
 155 -32 l 1,0,-1
EndSplineSet
EndChar

StartChar: eight
Encoding: 56 56 27
Width: 500
Flags: W
LayerCount: 2
Fore
SplineSet
125 179 m 0,0,1
 118 118 118 118 153 85 c 0,2,3
 181 58 181 58 221 58 c 0,4,5
 268 58 268 58 303.5 92.5 c 128,-1,6
 339 127 339 127 345 179 c 0,7,8
 354 268 354 268 251 311 c 1,9,10
 133 254 133 254 125 179 c 0,0,1
192 497 m 1,11,12
 197 429 197 429 260 401 c 1,13,14
 354 436 354 436 360 495 c 0,15,16
 364 531 364 531 342 557 c 128,-1,17
 320 583 320 583 286 583 c 0,18,19
 255 583 255 583 229 562 c 0,20,21
 200 538 200 538 192 497 c 1,11,12
21 177 m 0,22,23
 33 283 33 283 176 352 c 1,24,25
 78 421 78 421 86 494 c 0,26,27
 95 577 95 577 161 621 c 0,28,29
 217 658 217 658 294 658 c 0,30,31
 360 658 360 658 404 625 c 0,32,33
 454 589 454 589 454 522 c 0,34,35
 454 430 454 430 341 358 c 1,36,37
 459 291 459 291 459 198 c 0,38,39
 459 95 459 95 388 32 c 0,40,41
 321 -28 321 -28 216 -28 c 0,42,43
 130 -28 130 -28 78 15 c 0,44,45
 20 62 20 62 20 149 c 0,46,47
 20 162 20 162 21 177 c 0,22,23
EndSplineSet
EndChar

StartChar: nine
Encoding: 57 57 28
Width: 500
Flags: W
LayerCount: 2
Fore
SplineSet
-2 56 m 1,0,-1
 66 133 l 1,1,2
 104 95 104 95 134.5 80.5 c 128,-1,3
 165 66 165 66 212 66 c 0,4,5
 282 66 282 66 327 147 c 0,6,7
 362 210 362 210 372 302 c 1,8,9
 292 218 292 218 219 218 c 0,10,11
 143 218 143 218 89 269.5 c 128,-1,12
 35 321 35 321 35 404 c 0,13,14
 35 509 35 509 108 582.5 c 128,-1,15
 181 656 181 656 287 656 c 0,16,17
 372 656 372 656 429 599 c 0,18,19
 495 534 495 534 495 413 c 0,20,21
 495 389 495 389 492 363 c 0,22,23
 476 214 476 214 420 115 c 0,24,25
 339 -26 339 -26 194 -26 c 0,26,27
 75 -26 75 -26 -2 56 c 1,0,-1
144 432 m 0,28,29
 139 381 139 381 167 340 c 0,30,31
 196 296 196 296 243 296 c 0,32,33
 305 296 305 296 343 340 c 128,-1,34
 381 384 381 384 381 447 c 0,35,36
 381 499 381 499 358 533 c 0,37,38
 330 572 330 572 278 572 c 0,39,40
 225 572 225 572 188 532.5 c 128,-1,41
 151 493 151 493 144 432 c 0,28,29
EndSplineSet
EndChar

StartChar: colon
Encoding: 58 58 29
Width: 244
Flags: W
LayerCount: 2
Fore
SplineSet
54 420 m 256,0,1
 58 456 58 456 86.5 481 c 128,-1,2
 115 506 115 506 150 506 c 0,3,4
 186 506 186 506 209 481 c 128,-1,5
 232 456 232 456 228 420 c 256,6,7
 224 384 224 384 195.5 358.5 c 128,-1,8
 167 333 167 333 132 333 c 256,9,10
 97 333 97 333 73.5 358.5 c 128,-1,11
 50 384 50 384 54 420 c 256,0,1
18 77 m 256,12,13
 22 113 22 113 50.5 138.5 c 128,-1,14
 79 164 79 164 114 164 c 0,15,16
 150 164 150 164 173 138.5 c 128,-1,17
 196 113 196 113 192 77 c 256,18,19
 188 41 188 41 159.5 16 c 128,-1,20
 131 -9 131 -9 96 -9 c 256,21,22
 61 -9 61 -9 37.5 16 c 128,-1,23
 14 41 14 41 18 77 c 256,12,13
EndSplineSet
EndChar

StartChar: semicolon
Encoding: 59 59 30
Width: 254
Flags: W
LayerCount: 2
Fore
SplineSet
91 418 m 256,0,1
 100 504 100 504 169 504 c 0,2,3
 235 504 235 504 226 418 c 256,4,5
 217 332 217 332 151 332 c 0,6,7
 82 332 82 332 91 418 c 256,0,1
75 -107 m 1,8,-1
 10 -94 l 1,9,10
 34 -53 34 -53 46 -1 c 0,11,12
 48 9 48 9 60 85 c 1,13,-1
 165 85 l 1,14,15
 161 49 161 49 131 -14 c 0,16,17
 102 -73 102 -73 75 -107 c 1,8,-1
EndSplineSet
EndChar

StartChar: less
Encoding: 60 60 31
Width: 366
Flags: W
LayerCount: 2
Fore
SplineSet
359 46 m 1,0,-1
 237 42 l 1,1,-1
 0 289 l 1,2,-1
 236 529 l 1,3,-1
 359 525 l 1,4,-1
 158 285 l 1,5,-1
 359 46 l 1,0,-1
EndSplineSet
EndChar

StartChar: equal
Encoding: 61 61 32
Width: 441
Flags: W
LayerCount: 2
Fore
SplineSet
89 352 m 1,0,-1
 410 352 l 1,1,-1
 410 254 l 1,2,-1
 89 254 l 1,3,-1
 89 352 l 1,0,-1
89 223 m 1,4,-1
 410 223 l 1,5,-1
 410 125 l 1,6,-1
 89 125 l 1,7,-1
 89 223 l 1,4,-1
EndSplineSet
EndChar

StartChar: greater
Encoding: 62 62 33
Width: 365
Flags: W
LayerCount: 2
Fore
SplineSet
-14 46 m 1,0,-1
 187 285 l 1,1,-1
 -16 525 l 1,2,-1
 107 529 l 1,3,-1
 343 289 l 1,4,-1
 107 42 l 1,5,-1
 -14 46 l 1,0,-1
EndSplineSet
EndChar

StartChar: question
Encoding: 63 63 34
Width: 546
Flags: W
LayerCount: 2
Fore
SplineSet
154 60 m 0,0,1
 157 90 157 90 181.5 112 c 128,-1,2
 206 134 206 134 237 134 c 0,3,4
 270 134 270 134 291 112.5 c 128,-1,5
 312 91 312 91 309 60 c 0,6,7
 305 29 305 29 280 8 c 128,-1,8
 255 -13 255 -13 222 -13 c 0,9,10
 190 -13 190 -13 170 8 c 128,-1,11
 150 29 150 29 154 60 c 0,0,1
384 356 m 0,12,13
 326 316 326 316 297 251 c 0,14,15
 290 236 290 236 284 178 c 1,16,-1
 186 178 l 1,17,18
 184 197 184 197 189 227 c 0,19,20
 192 247 192 247 196 268 c 0,21,22
 201 320 201 320 227 352 c 0,23,24
 247 378 247 378 315 429 c 0,25,26
 366 467 366 467 371 509 c 0,27,28
 375 546 375 546 354 575.5 c 128,-1,29
 333 605 333 605 301 605 c 0,30,31
 221 605 221 605 174 500 c 1,32,-1
 84 539 l 1,33,34
 128 622 128 622 177.5 656.5 c 128,-1,35
 227 691 227 691 307 691 c 0,36,37
 397 691 397 691 446 646 c 0,38,39
 490 605 490 605 490 533 c 0,40,41
 490 521 490 521 489 509 c 0,42,43
 483 457 483 457 456 420 c 0,44,45
 434 391 434 391 384 356 c 0,12,13
EndSplineSet
EndChar

StartChar: at
Encoding: 64 64 35
Width: 1010
Flags: W
LayerCount: 2
Fore
SplineSet
626 470 m 1,0,-1
 634 510 l 1,1,-1
 724 510 l 1,2,3
 717 428 717 428 699 320 c 0,4,5
 682 225 682 225 666 129 c 1,6,7
 674 81 l 1,8,9
 680 64 680 64 719 64 c 0,10,11
 761 64 761 64 806 130 c 128,-1,12
 851 196 851 196 851 269 c 0,13,14
 851 422 851 422 757 522.5 c 128,-1,15
 663 623 663 623 513 623 c 256,16,17
 363 623 363 623 256 504 c 0,18,19
 152 389 152 389 152 238 c 0,20,21
 152 78 152 78 238 -35 c 0,22,23
 329 -157 329 -157 473 -157 c 0,24,25
 577 -157 577 -157 643 -128 c 0,26,27
 705 -100 705 -100 787 -21 c 1,28,-1
 847 -90 l 1,29,30
 747 -181 747 -181 695 -205 c 0,31,32
 617 -242 617 -242 473 -242 c 0,33,34
 269 -242 269 -242 147 -100 c 0,35,36
 33 34 33 34 33 238 c 0,37,38
 33 428 33 428 173.5 563 c 128,-1,39
 314 698 314 698 513 698 c 0,40,41
 711 698 711 698 830.5 579.5 c 128,-1,42
 950 461 950 461 950 269 c 0,43,44
 950 160 950 160 863.5 69.5 c 128,-1,45
 777 -21 777 -21 669 -21 c 0,46,47
 609 -21 609 -21 577 76 c 1,48,49
 509 -20 509 -20 424 -20 c 0,50,51
 249 -20 249 -20 249 199 c 0,52,53
 249 314 249 314 323 411 c 0,54,55
 405 520 405 520 529 520 c 0,56,57
 559 520 559 520 584 504 c 0,58,59
 626 470 l 1,0,-1
526 436 m 0,60,61
 476 436 476 436 432 390 c 0,62,63
 372 329 372 329 372 212 c 0,64,65
 372 148 372 148 384 119 c 0,66,67
 403 70 403 70 459 70 c 0,68,69
 489 70 489 70 532.5 114 c 128,-1,70
 576 158 576 158 583 199 c 2,71,-1
 617 387 l 1,72,73
 604 404 604 404 575 420 c 128,-1,74
 546 436 546 436 526 436 c 0,60,61
EndSplineSet
EndChar

StartChar: A
Encoding: 65 65 36
Width: 568
Flags: W
LayerCount: 2
Fore
SplineSet
362 148 m 1,0,-1
 155 148 l 1,1,-1
 92 -12 l 1,2,-1
 -11 2 l 1,3,-1
 266 654 l 1,4,-1
 368 654 l 1,5,-1
 510 7 l 1,6,-1
 392 -12 l 1,7,-1
 362 148 l 1,0,-1
192 241 m 1,8,-1
 345 241 l 1,9,-1
 297 501 l 1,10,-1
 192 241 l 1,8,-1
EndSplineSet
EndChar

StartChar: B
Encoding: 66 66 37
Width: 501
Flags: W
LayerCount: 2
Fore
SplineSet
29 2 m 1,0,-1
 97 641 l 1,1,2
 105 641 105 641 191 643 c 0,3,4
 254 645 254 645 291 645 c 0,5,6
 365 645 365 645 406.5 608.5 c 128,-1,7
 448 572 448 572 448 505 c 0,8,9
 448 494 448 494 447 482 c 0,10,11
 438 399 438 399 343 351 c 1,12,13
 395 347 395 347 429.5 300 c 128,-1,14
 464 253 464 253 457 192 c 0,15,16
 445 77 445 77 358 31 c 0,17,18
 295 -2 295 -2 176 -2 c 0,19,20
 149 -2 149 -2 98.5 0 c 128,-1,21
 48 2 48 2 29 2 c 1,0,-1
207 569 m 1,22,-1
 187 380 l 1,23,-1
 231 380 l 2,24,25
 276 380 276 380 306 408 c 0,26,27
 333 434 333 434 337 473 c 0,28,29
 346 571 346 571 264 571 c 0,30,31
 243 571 243 571 207 569 c 1,22,-1
179 304 m 1,32,-1
 156 81 l 1,33,-1
 223 81 l 2,34,35
 276 81 276 81 308 113 c 0,36,37
 338 142 338 142 343 193 c 0,38,39
 348 235 348 235 323 268 c 0,40,41
 295 304 295 304 244 304 c 2,42,-1
 179 304 l 1,32,-1
EndSplineSet
EndChar

StartChar: C
Encoding: 67 67 38
Width: 557
Flags: W
LayerCount: 2
Fore
SplineSet
348 660 m 0,0,1
 433 660 433 660 538 591 c 1,2,-1
 488 513 l 1,3,4
 429 550 429 550 427 552 c 1,5,6
 393 569 393 569 355 569 c 0,7,8
 274 569 274 569 219 479 c 0,9,10
 174 407 174 407 165 318 c 0,11,12
 163 301 163 301 163 284 c 0,13,14
 163 202 163 202 203 149 c 128,-1,15
 243 96 243 96 302 96 c 0,16,17
 337 96 337 96 370 108 c 0,18,19
 395 117 395 117 451 147 c 1,20,-1
 490 69 l 1,21,22
 419 26 419 26 380 11 c 0,23,24
 330 -8 330 -8 273 -8 c 0,25,26
 150 -8 150 -8 86 79 c 0,27,28
 29 156 29 156 29 278 c 0,29,30
 29 427 29 427 112 538 c 0,31,32
 203 660 203 660 348 660 c 0,0,1
EndSplineSet
EndChar

StartChar: D
Encoding: 68 68 39
Width: 565
Flags: W
LayerCount: 2
Fore
SplineSet
29 2 m 1,0,-1
 97 643 l 1,1,2
 177 647 177 647 260 647 c 0,3,4
 536 647 536 647 536 383 c 0,5,6
 536 354 536 354 533 323 c 0,7,8
 518 170 518 170 431 86 c 0,9,10
 341 -2 341 -2 188 -2 c 0,11,12
 164 -2 164 -2 117 0 c 128,-1,13
 70 2 70 2 29 2 c 1,0,-1
260 569 m 0,14,15
 253 569 253 569 237 569 c 0,16,17
 221 568 221 568 211 568 c 1,18,-1
 160 87 l 1,19,-1
 215 87 l 2,20,21
 292 87 292 87 348 160 c 0,22,23
 398 225 398 225 407 313 c 0,24,25
 410 345 410 345 410 374 c 0,26,27
 410 569 410 569 260 569 c 0,14,15
EndSplineSet
EndChar

StartChar: E
Encoding: 69 69 40
Width: 462
Flags: W
LayerCount: 2
Fore
SplineSet
186 391 m 1,0,-1
 413 391 l 1,1,-1
 404 302 l 1,2,-1
 177 303 l 1,3,-1
 155 89 l 1,4,-1
 395 89 l 1,5,-1
 385 0 l 1,6,-1
 29 0 l 1,7,-1
 97 640 l 1,8,-1
 456 640 l 1,9,-1
 447 555 l 1,10,-1
 204 555 l 1,11,-1
 186 391 l 1,0,-1
EndSplineSet
EndChar

StartChar: F
Encoding: 70 70 41
Width: 463
Flags: W
LayerCount: 2
Fore
SplineSet
186 391 m 1,0,-1
 415 391 l 1,1,-1
 406 302 l 1,2,-1
 177 302 l 1,3,-1
 145 0 l 1,4,-1
 29 0 l 1,5,-1
 97 640 l 1,6,-1
 457 640 l 1,7,-1
 448 555 l 1,8,-1
 204 555 l 1,9,-1
 186 391 l 1,0,-1
EndSplineSet
EndChar

StartChar: G
Encoding: 71 71 42
Width: 582
Flags: W
LayerCount: 2
Fore
SplineSet
267 -6 m 0,0,1
 149 -6 149 -6 85 82 c 0,2,3
 28 160 28 160 28 279 c 0,4,5
 28 301 28 301 31 323 c 0,6,7
 42 444 42 444 116 543 c 0,8,9
 205 660 205 660 334 660 c 0,10,11
 380 660 380 660 436 643 c 0,12,13
 501 622 501 622 537 590 c 1,14,-1
 488 514 l 1,15,16
 414 569 414 569 346 569 c 0,17,18
 272 569 272 569 217 478 c 0,19,20
 172 403 172 403 163 318 c 0,21,22
 161 298 161 298 161 279 c 0,23,24
 161 198 161 198 194.5 145 c 128,-1,25
 228 92 228 92 281 92 c 0,26,27
 342 92 342 92 377 108 c 1,28,-1
 398 304 l 1,29,-1
 267 304 l 1,30,-1
 276 391 l 1,31,-1
 526 391 l 1,32,-1
 491 65 l 1,33,34
 422 25 422 25 382 12 c 0,35,36
 331 -6 331 -6 267 -6 c 0,0,1
EndSplineSet
EndChar

StartChar: H
Encoding: 72 72 43
Width: 582
Flags: W
LayerCount: 2
Fore
SplineSet
399 302 m 1,0,-1
 180 302 l 1,1,-1
 148 0 l 1,2,-1
 29 0 l 1,3,-1
 97 640 l 1,4,-1
 216 640 l 1,5,-1
 189 391 l 1,6,-1
 408 391 l 1,7,-1
 435 640 l 1,8,-1
 553 640 l 1,9,-1
 485 0 l 1,10,-1
 367 0 l 1,11,-1
 399 302 l 1,0,-1
EndSplineSet
EndChar

StartChar: I
Encoding: 73 73 44
Width: 245
Flags: W
LayerCount: 2
Fore
SplineSet
97 641 m 1,0,-1
 216 641 l 1,1,-1
 148 0 l 1,2,-1
 29 0 l 1,3,-1
 97 641 l 1,0,-1
EndSplineSet
EndChar

StartChar: J
Encoding: 74 74 45
Width: 247
Flags: W
LayerCount: 2
Fore
SplineSet
-30 -187 m 0,0,1
 -85 -187 -85 -187 -121 -167 c 0,2,3
 -142 -154 -142 -154 -185 -111 c 1,4,-1
 -117 -36 l 1,5,6
 -95 -65 -95 -65 -80 -76 c 0,7,8
 -59 -91 -59 -91 -28 -91 c 0,9,10
 31 -91 31 -91 47 60 c 2,11,-1
 107 640 l 1,12,-1
 227 640 l 1,13,-1
 167 67 l 2,14,15
 141 -187 141 -187 -30 -187 c 0,0,1
EndSplineSet
EndChar

StartChar: K
Encoding: 75 75 46
Width: 542
Flags: W
LayerCount: 2
Fore
SplineSet
209 255 m 1,0,-1
 169 206 l 1,1,-1
 148 0 l 1,2,-1
 29 0 l 1,3,-1
 96 641 l 1,4,-1
 215 641 l 1,5,-1
 185 351 l 1,6,-1
 420 673 l 1,7,-1
 519 620 l 1,8,9
 427 510 427 510 281 330 c 1,10,11
 311 270 311 270 386 169 c 0,12,13
 447 88 447 88 509 8 c 1,14,-1
 365 -23 l 1,15,16
 281 111 281 111 209 255 c 1,0,-1
EndSplineSet
EndChar

StartChar: L
Encoding: 76 76 47
Width: 501
Flags: W
LayerCount: 2
Fore
SplineSet
97 641 m 1,0,-1
 214 641 l 1,1,-1
 155 85 l 1,2,-1
 413 85 l 1,3,-1
 404 0 l 1,4,-1
 29 0 l 1,5,-1
 97 641 l 1,0,-1
EndSplineSet
EndChar

StartChar: M
Encoding: 77 77 48
Width: 793
Flags: W
LayerCount: 2
Fore
SplineSet
599 427 m 1,0,-1
 402 -1 l 1,1,-1
 298 -1 l 1,2,-1
 191 431 l 1,3,-1
 145 0 l 1,4,-1
 39 0 l 1,5,-1
 107 642 l 1,6,-1
 259 642 l 1,7,-1
 383 170 l 1,8,-1
 611 642 l 1,9,-1
 753 642 l 1,10,-1
 685 0 l 1,11,-1
 554 0 l 1,12,-1
 599 427 l 1,0,-1
EndSplineSet
EndChar

StartChar: N
Encoding: 78 78 49
Width: 582
Flags: W
LayerCount: 2
Fore
SplineSet
176 401 m 1,0,-1
 133 0 l 1,1,-1
 30 0 l 1,2,-1
 98 644 l 1,3,-1
 194 644 l 1,4,-1
 409 239 l 1,5,-1
 451 640 l 1,6,-1
 553 640 l 1,7,-1
 488 15 l 1,8,-1
 389 -15 l 1,9,10
 310 165 310 165 176 401 c 1,0,-1
EndSplineSet
EndChar

StartChar: O
Encoding: 79 79 50
Width: 644
Flags: W
LayerCount: 2
Fore
SplineSet
33 322 m 0,0,1
 47 462 47 462 139.5 554 c 128,-1,2
 232 646 232 646 361 646 c 0,3,4
 477 646 477 646 546.5 568 c 128,-1,5
 616 490 616 490 616 366 c 0,6,7
 616 345 616 345 614 322 c 0,8,9
 597 163 597 163 501 71 c 0,10,11
 412 -16 412 -16 284 -16 c 0,12,13
 170 -16 170 -16 102 57 c 0,14,15
 30 133 30 133 30 267 c 0,16,17
 30 294 30 294 33 322 c 0,0,1
155 276 m 0,18,19
 155 191 155 191 192 134 c 0,20,21
 231 74 231 74 294 74 c 0,22,23
 382 74 382 74 440 173 c 0,24,25
 490 257 490 257 490 352 c 0,26,27
 490 440 490 440 454 497 c 0,28,29
 415 558 415 558 350 558 c 0,30,31
 260 558 260 558 203 458 c 0,32,33
 155 373 155 373 155 276 c 0,18,19
EndSplineSet
EndChar

StartChar: P
Encoding: 80 80 51
Width: 475
Flags: W
LayerCount: 2
Fore
SplineSet
172 259 m 1,0,-1
 145 0 l 1,1,-1
 29 0 l 1,2,-1
 97 641 l 1,3,-1
 285 644 l 2,4,5
 361 645 361 645 411.5 596.5 c 128,-1,6
 462 548 462 548 462 473 c 0,7,8
 462 386 462 386 385 320 c 0,9,10
 312 257 312 257 223 257 c 0,11,12
 212 257 212 257 172 259 c 1,0,-1
205 569 m 1,13,-1
 180 327 l 1,14,-1
 212 327 l 2,15,16
 262 327 262 327 301 363.5 c 128,-1,17
 340 400 340 400 345 448 c 0,18,19
 346 459 346 459 346 469 c 0,20,21
 346 562 346 562 249 571 c 0,22,23
 242 572 242 572 227 570.5 c 128,-1,24
 212 569 212 569 205 569 c 1,13,-1
EndSplineSet
EndChar

StartChar: Q
Encoding: 81 81 52
Width: 658
Flags: W
LayerCount: 2
Fore
SplineSet
438 41 m 1,0,1
 354 -19 354 -19 288 -19 c 0,2,3
 174 -19 174 -19 103 56.5 c 128,-1,4
 32 132 32 132 32 267 c 0,5,6
 32 293 32 293 35 321 c 0,7,8
 50 462 50 462 143 554 c 128,-1,9
 236 646 236 646 365 646 c 0,10,11
 482 646 482 646 552 569 c 128,-1,12
 622 492 622 492 622 369 c 0,13,14
 622 208 622 208 523 122 c 1,15,-1
 639 6 l 1,16,-1
 555 -78 l 1,17,-1
 438 41 l 1,0,1
158 276 m 0,18,19
 158 191 158 191 194 133 c 0,20,21
 233 72 233 72 295 72 c 0,22,23
 337 72 337 72 376 101 c 1,24,-1
 306 164 l 1,25,-1
 393 247 l 1,26,-1
 456 185 l 1,27,28
 482 221 482 221 492 315 c 0,29,30
 494 335 494 335 494 355 c 0,31,32
 494 441 494 441 459 497 c 0,33,34
 420 557 420 557 354 557 c 0,35,36
 264 557 264 557 207 458 c 0,37,38
 158 373 158 373 158 276 c 0,18,19
EndSplineSet
EndChar

StartChar: R
Encoding: 82 82 53
Width: 522
Flags: W
LayerCount: 2
Fore
SplineSet
195 263 m 1,0,-1
 173 263 l 1,1,-1
 146 0 l 1,2,-1
 30 0 l 1,3,-1
 97 641 l 1,4,5
 125 641 125 641 201 643 c 0,6,7
 255 644 255 644 290 644 c 0,8,9
 459 643 459 643 459 489 c 0,10,11
 459 474 459 474 457 458 c 0,12,13
 449 389 449 389 404 338 c 0,14,15
 364 293 364 293 309 276 c 1,16,17
 376 166 376 166 510 16 c 1,18,-1
 361 -11 l 1,19,20
 313 44 313 44 269 120 c 0,21,22
 249 156 249 156 195 263 c 1,0,-1
206 569 m 1,23,-1
 181 333 l 1,24,-1
 222 333 l 2,25,26
 332 333 332 333 345 459 c 0,27,28
 349 501 349 501 336 530 c 0,29,30
 316 573 316 573 260 571 c 2,31,-1
 206 569 l 1,23,-1
EndSplineSet
EndChar

StartChar: S
Encoding: 83 83 54
Width: 454
Flags: W
LayerCount: 2
Fore
SplineSet
-2 82 m 1,0,-1
 60 159 l 1,1,2
 113 89 113 89 190 89 c 0,3,4
 294 89 294 89 305 191 c 0,5,6
 310 242 310 242 247.5 270 c 128,-1,7
 185 298 185 298 124 325 c 1,8,9
 57 369 57 369 57 455 c 0,10,11
 57 470 57 470 59 486 c 0,12,13
 68 568 68 568 138 620 c 0,14,15
 197 664 197 664 262 664 c 0,16,17
 366 664 366 664 443 593 c 1,18,-1
 394 509 l 1,19,20
 333 573 333 573 272 573 c 0,21,22
 231 573 231 573 211 557 c 0,23,24
 184 537 184 537 179 485 c 0,25,26
 174 440 174 440 236 413 c 0,27,28
 346 365 346 365 356 359 c 0,29,30
 422 313 422 313 422 223 c 0,31,32
 422 209 422 209 420 193 c 0,33,34
 409 90 409 90 336 36 c 0,35,36
 274 -10 274 -10 188 -10 c 0,37,38
 53 -10 53 -10 -2 82 c 1,0,-1
EndSplineSet
EndChar

StartChar: T
Encoding: 84 84 55
Width: 536
Flags: W
LayerCount: 2
Fore
SplineSet
298 0 m 1,0,-1
 179 0 l 1,1,-1
 238 558 l 1,2,-1
 56 558 l 1,3,-1
 65 639 l 1,4,-1
 538 639 l 1,5,-1
 529 558 l 1,6,-1
 357 558 l 1,7,-1
 298 0 l 1,0,-1
EndSplineSet
EndChar

StartChar: U
Encoding: 85 85 56
Width: 611
Flags: W
LayerCount: 2
Fore
SplineSet
263 -17 m 0,0,1
 177 -17 177 -17 120 33 c 0,2,3
 53 91 53 91 53 197 c 0,4,5
 53 216 53 216 55 235 c 2,6,-1
 98 640 l 1,7,-1
 217 640 l 1,8,-1
 174 235 l 2,9,10
 173 222 173 222 173 210 c 0,11,12
 173 142 173 142 211 103 c 0,13,14
 244 71 244 71 285 71 c 0,15,16
 329 71 329 71 367 110 c 0,17,18
 413 156 413 156 421 235 c 2,19,-1
 464 640 l 1,20,-1
 583 640 l 1,21,-1
 540 235 l 2,22,23
 527 110 527 110 436 41 c 0,24,25
 360 -17 360 -17 263 -17 c 0,0,1
EndSplineSet
EndChar

StartChar: V
Encoding: 86 86 57
Width: 542
Flags: W
LayerCount: 2
Fore
SplineSet
192 -10 m 1,0,-1
 40 626 l 1,1,-1
 167 657 l 1,2,-1
 272 187 l 1,3,-1
 466 658 l 1,4,-1
 566 625 l 1,5,-1
 279 -10 l 1,6,-1
 192 -10 l 1,0,-1
EndSplineSet
EndChar

StartChar: W
Encoding: 87 87 58
Width: 789
Flags: W
LayerCount: 2
Fore
SplineSet
495 -6 m 1,0,-1
 415 396 l 1,1,-1
 244 -6 l 1,2,-1
 156 -6 l 1,3,-1
 43 622 l 1,4,-1
 178 648 l 1,5,-1
 244 208 l 1,6,-1
 399 636 l 1,7,-1
 502 636 l 1,8,-1
 567 209 l 1,9,-1
 717 649 l 1,10,-1
 814 621 l 1,11,-1
 573 -6 l 1,12,-1
 495 -6 l 1,0,-1
EndSplineSet
EndChar

StartChar: X
Encoding: 88 88 59
Width: 552
Flags: W
LayerCount: 2
Fore
SplineSet
267 244 m 1,0,-1
 101 -30 l 1,1,-1
 -6 10 l 1,2,-1
 215 317 l 1,3,-1
 69 621 l 1,4,-1
 189 662 l 1,5,-1
 293 407 l 1,6,-1
 453 664 l 1,7,-1
 542 620 l 1,8,-1
 335 329 l 1,9,-1
 515 10 l 1,10,-1
 386 -25 l 1,11,-1
 267 244 l 1,0,-1
EndSplineSet
EndChar

StartChar: Y
Encoding: 89 89 60
Width: 503
Flags: W
LayerCount: 2
Fore
SplineSet
276 0 m 1,0,-1
 158 0 l 1,1,-1
 186 271 l 1,2,-1
 42 621 l 1,3,-1
 168 654 l 1,4,-1
 268 371 l 1,5,-1
 433 654 l 1,6,-1
 522 621 l 1,7,-1
 304 271 l 1,8,-1
 276 0 l 1,0,-1
EndSplineSet
EndChar

StartChar: Z
Encoding: 90 90 61
Width: 544
Flags: W
LayerCount: 2
Fore
SplineSet
455 99 m 1,0,-1
 444 0 l 1,1,-1
 27 0 l 1,2,-1
 9 74 l 1,3,-1
 366 550 l 1,4,-1
 92 548 l 1,5,-1
 102 639 l 1,6,-1
 505 639 l 1,7,-1
 519 555 l 1,8,-1
 171 99 l 1,9,-1
 455 99 l 1,0,-1
EndSplineSet
EndChar

StartChar: bracketleft
Encoding: 91 91 62
Width: 225
Flags: W
LayerCount: 2
Fore
SplineSet
117 740 m 1,0,-1
 273 740 l 1,1,-1
 264 653 l 1,2,-1
 206 653 l 1,3,-1
 136 -9 l 1,4,-1
 201 -9 l 1,5,-1
 190 -114 l 1,6,-1
 27 -114 l 1,7,-1
 117 740 l 1,0,-1
EndSplineSet
EndChar

StartChar: backslash
Encoding: 92 92 63
Width: 385
Flags: W
LayerCount: 2
Fore
SplineSet
50 683 m 1,0,-1
 161 707 l 1,1,-1
 350 -149 l 1,2,-1
 239 -173 l 1,3,-1
 50 683 l 1,0,-1
EndSplineSet
EndChar

StartChar: bracketright
Encoding: 93 93 64
Width: 266
Flags: W
LayerCount: 2
Fore
SplineSet
16 -9 m 1,0,-1
 81 -9 l 1,1,-1
 151 653 l 1,2,-1
 94 653 l 1,3,-1
 103 740 l 1,4,-1
 255 740 l 1,5,-1
 165 -114 l 1,6,-1
 5 -114 l 1,7,-1
 16 -9 l 1,0,-1
EndSplineSet
EndChar

StartChar: asciicircum
Encoding: 94 94 65
Width: 536
Flags: W
LayerCount: 2
Fore
SplineSet
152 443 m 1,0,-1
 100 515 l 1,1,-1
 280 686 l 1,2,-1
 427 515 l 1,3,-1
 359 443 l 1,4,-1
 267 562 l 1,5,-1
 152 443 l 1,0,-1
EndSplineSet
EndChar

StartChar: underscore
Encoding: 95 95 66
Width: 536
Flags: W
LayerCount: 2
Fore
SplineSet
8 -50 m 1,0,-1
 533 -50 l 1,1,-1
 527 -109 l 1,2,-1
 2 -109 l 1,3,-1
 8 -50 l 1,0,-1
EndSplineSet
EndChar

StartChar: grave
Encoding: 96 96 67
Width: 329
Flags: W
LayerCount: 2
Fore
SplineSet
323 626 m 1,0,-1
 117 715 l 1,1,-1
 47 637 l 1,2,-1
 253 554 l 1,3,-1
 323 626 l 1,0,-1
EndSplineSet
EndChar

StartChar: a
Encoding: 97 97 68
Width: 491
Flags: W
LayerCount: 2
Fore
SplineSet
296 223 m 1,0,1
 266 223 266 223 222 215 c 0,2,3
 174 207 174 207 157 196 c 0,4,5
 131 181 131 181 126 137 c 0,6,7
 123 109 123 109 139 87.5 c 128,-1,8
 155 66 155 66 179 66 c 0,9,10
 239 66 239 66 284 114 c 1,11,-1
 296 223 l 1,0,1
289 54 m 1,12,13
 243 17 243 17 226 6 c 0,14,15
 190 -16 190 -16 157 -16 c 0,16,17
 102 -16 102 -16 65 19 c 128,-1,18
 28 54 28 54 28 115 c 0,19,20
 28 125 28 125 29 136 c 0,21,22
 38 219 38 219 90 254 c 0,23,24
 123 275 123 275 216 293 c 0,25,26
 263 302 263 302 302 306 c 1,27,-1
 308 358 l 2,28,29
 310 380 310 380 294 399.5 c 128,-1,30
 278 419 278 419 254 419 c 0,31,32
 163 419 163 419 99 351 c 1,33,-1
 62 412 l 1,34,35
 94 457 94 457 159 486 c 0,36,37
 216 512 216 512 264 512 c 0,38,39
 335 512 335 512 378.5 466 c 128,-1,40
 422 420 422 420 415 349 c 2,41,-1
 388 98 l 2,42,43
 388 92 388 92 394.5 84 c 128,-1,44
 401 76 401 76 409 76 c 0,45,46
 441 76 441 76 452 86 c 1,47,-1
 456 22 l 1,48,49
 391 -11 391 -11 355 -11 c 0,50,51
 339 -11 339 -11 318 7 c 0,52,53
 293 28 293 28 289 54 c 1,12,13
EndSplineSet
EndChar

StartChar: b
Encoding: 98 98 69
Width: 515
Flags: W
LayerCount: 2
Fore
SplineSet
132 46 m 1,0,-1
 119 -1 l 1,1,-1
 28 -1 l 1,2,-1
 101 700 l 1,3,-1
 209 700 l 1,4,-1
 181 434 l 1,5,6
 204 468 204 468 252 494 c 0,7,8
 297 518 297 518 328 518 c 0,9,10
 399 518 399 518 439 456 c 0,11,12
 474 401 474 401 474 320 c 0,13,14
 474 302 474 302 472 285 c 0,15,16
 440 -10 440 -10 245 -10 c 0,17,18
 210 -10 210 -10 132 46 c 1,0,-1
171 335 m 1,19,-1
 149 128 l 1,20,21
 163 110 163 110 192.5 95 c 128,-1,22
 222 80 222 80 246 80 c 0,23,24
 303 80 303 80 330 147 c 0,25,26
 346 187 346 187 355 271 c 0,27,28
 358 294 358 294 358 315 c 0,29,30
 358 429 358 429 283 429 c 0,31,32
 227 429 227 429 171 335 c 1,19,-1
EndSplineSet
EndChar

StartChar: c
Encoding: 99 99 70
Width: 479
Flags: W
LayerCount: 2
Fore
SplineSet
38 242 m 0,0,1
 52 376 52 376 138 449 c 0,2,3
 210 512 210 512 302 511 c 0,4,5
 360 511 360 511 448 447 c 1,6,-1
 408 378 l 1,7,8
 348 431 348 431 285 431 c 256,9,10
 222 431 222 431 184 347 c 0,11,12
 153 279 153 279 153 206 c 0,13,14
 153 143 153 143 180.5 105 c 128,-1,15
 208 67 208 67 254 67 c 0,16,17
 313 67 313 67 391 131 c 1,18,-1
 429 72 l 1,19,20
 348 -12 348 -12 246 -12 c 0,21,22
 128 -12 128 -12 75 72 c 0,23,24
 37 131 37 131 37 215 c 0,25,26
 37 230 37 230 38 242 c 0,0,1
EndSplineSet
EndChar

StartChar: d
Encoding: 100 100 71
Width: 511
Flags: W
LayerCount: 2
Fore
SplineSet
320 -1 m 1,0,-1
 317 49 l 1,1,2
 285 30 285 30 252 11 c 0,3,4
 208 -13 208 -13 185 -13 c 0,5,6
 104 -13 104 -13 61 55 c 0,7,8
 25 114 25 114 25 205 c 0,9,10
 25 304 25 304 73 401 c 0,11,12
 131 518 131 518 218 518 c 0,13,14
 269 518 269 518 295 506 c 0,15,16
 309 499 309 499 353 462 c 1,17,-1
 377 697 l 1,18,-1
 485 697 l 1,19,-1
 412 -1 l 1,20,-1
 320 -1 l 1,0,-1
246 429 m 0,21,22
 164 429 164 429 146 259 c 0,23,24
 144 234 144 234 144 210 c 0,25,26
 144 75 144 75 218 75 c 0,27,28
 248 75 248 75 317 127 c 1,29,-1
 340 342 l 1,30,31
 312 389 312 389 303 399 c 0,32,33
 278 429 278 429 246 429 c 0,21,22
EndSplineSet
EndChar

StartChar: e
Encoding: 101 101 72
Width: 491
Flags: W
LayerCount: 2
Fore
SplineSet
256 68 m 0,0,1
 321 67 321 67 393 131 c 1,2,-1
 431 70 l 1,3,4
 374 20 374 20 335.5 4 c 128,-1,5
 297 -12 297 -12 241 -12 c 0,6,7
 124 -12 124 -12 73 74 c 0,8,9
 37 133 37 133 37 218 c 0,10,11
 37 234 37 234 39 247 c 0,12,13
 51 360 51 360 118 433 c 0,14,15
 190 510 190 510 299 510 c 0,16,17
 368 510 368 510 413 467 c 0,18,19
 462 420 462 420 462 341 c 0,20,21
 462 327 462 327 461 313 c 2,22,-1
 453 238 l 1,23,-1
 157 238 l 1,24,25
 155 214 155 214 155 195 c 0,26,27
 155 69 155 69 256 68 c 0,0,1
353 323 m 1,28,29
 355 338 355 338 355 351 c 0,30,31
 355 432 355 432 284 432 c 0,32,33
 251 432 251 432 221 406 c 0,34,35
 188 376 188 376 173 323 c 1,36,-1
 353 323 l 1,28,29
EndSplineSet
EndChar

StartChar: f
Encoding: 102 102 73
Width: 324
Flags: W
LayerCount: 2
Fore
SplineSet
264 657 m 0,0,1
 229 658 229 658 216 594 c 0,2,3
 206 498 l 1,4,-1
 330 498 l 1,5,-1
 321 408 l 1,6,-1
 197 408 l 1,7,-1
 154 0 l 1,8,-1
 49 0 l 1,9,-1
 92 408 l 1,10,-1
 22 408 l 1,11,-1
 31 498 l 1,12,-1
 101 498 l 1,13,-1
 107 551 l 2,14,15
 127 746 127 746 272 746 c 0,16,17
 318 746 318 746 341 732 c 0,18,19
 345 729 345 729 385 690 c 1,20,-1
 330 623 l 1,21,22
 295 656 295 656 264 657 c 0,0,1
EndSplineSet
EndChar

StartChar: g
Encoding: 103 103 74
Width: 511
Flags: W
LayerCount: 2
Fore
SplineSet
447 323 m 0,0,1
 439 243 439 243 380.5 190 c 128,-1,2
 322 137 322 137 242 137 c 0,3,4
 216 137 216 137 187 146 c 1,5,6
 169 130 169 130 150 104 c 1,7,8
 147 73 147 73 192 67 c 0,9,10
 199 66 199 66 264 66 c 0,11,12
 364 66 364 66 391 57 c 0,13,14
 450 38 450 38 450 -35 c 0,15,16
 450 -47 450 -47 449 -60 c 0,17,18
 439 -149 439 -149 332 -200 c 0,19,20
 250 -239 250 -239 169 -239 c 0,21,22
 94 -239 94 -239 51.5 -207 c 128,-1,23
 9 -175 9 -175 15 -117 c 0,24,25
 20 -63 20 -63 115 -6 c 1,26,27
 76 -6 76 -6 54 18 c 0,28,29
 34 39 34 39 37 68 c 0,30,31
 39 88 39 88 78 121 c 0,32,33
 128 165 128 165 132 170 c 1,34,35
 59 232 59 232 69 320 c 0,36,37
 76 394 76 394 137 449 c 128,-1,38
 198 504 198 504 279 504 c 0,39,40
 373 504 373 504 413 446 c 1,41,-1
 550 505 l 1,42,-1
 538 392 l 1,43,-1
 439 392 l 1,44,45
 449 343 449 343 447 323 c 0,0,1
178 320 m 0,46,47
 174 282 174 282 191 250 c 0,48,49
 212 213 212 213 250 213 c 0,50,51
 286 213 286 213 313 246.5 c 128,-1,52
 340 280 340 280 345 325 c 0,53,54
 349 359 349 359 327 393.5 c 128,-1,55
 305 428 305 428 269 428 c 0,56,57
 232 428 232 428 205 391 c 0,58,59
 182 359 182 359 178 320 c 0,46,47
174 -16 m 1,60,61
 164 -19 164 -19 145.5 -44 c 128,-1,62
 127 -69 127 -69 124 -93 c 0,63,64
 123 -103 123 -103 123 -111 c 0,65,66
 123 -167 123 -167 201 -167 c 0,67,68
 250 -167 250 -167 296 -133 c 128,-1,69
 342 -99 342 -99 345 -63 c 0,70,71
 349 -33 349 -33 328 -23 c 0,72,73
 313 -16 313 -16 268 -16 c 2,74,-1
 174 -16 l 1,60,61
EndSplineSet
EndChar

StartChar: h
Encoding: 104 104 75
Width: 512
Flags: W
LayerCount: 2
Fore
SplineSet
340 326 m 2,0,1
 341 339 341 339 341 351 c 0,2,3
 341 420 341 420 294 420 c 0,4,5
 249 420 249 420 205 373 c 0,6,7
 169 335 169 335 167 319 c 2,8,-1
 133 0 l 1,9,-1
 26 0 l 1,10,-1
 100 696 l 1,11,-1
 207 696 l 1,12,-1
 176 406 l 1,13,14
 243 511 243 511 309 511 c 0,15,16
 363 511 363 511 404 470 c 0,17,18
 449 426 449 426 449 359 c 0,19,20
 449 349 449 349 448 339 c 2,21,-1
 412 0 l 1,22,-1
 305 0 l 1,23,-1
 340 326 l 2,0,1
EndSplineSet
EndChar

StartChar: i
Encoding: 105 105 76
Width: 233
Flags: W
LayerCount: 2
Fore
SplineSet
74 657 m 0,0,1
 77 689 77 689 101 710 c 128,-1,2
 125 731 125 731 155 731 c 256,3,4
 185 731 185 731 204.5 710 c 128,-1,5
 224 689 224 689 221 657 c 0,6,7
 217 625 217 625 193.5 603.5 c 128,-1,8
 170 582 170 582 140 582 c 256,9,10
 110 582 110 582 90 603.5 c 128,-1,11
 70 625 70 625 74 657 c 0,0,1
77 495 m 1,12,-1
 184 495 l 1,13,-1
 132 0 l 1,14,-1
 25 0 l 1,15,-1
 77 495 l 1,12,-1
EndSplineSet
EndChar

StartChar: j
Encoding: 106 106 77
Width: 233
Flags: W
LayerCount: 2
Fore
SplineSet
236 658 m 0,0,1
 233 626 233 626 209 605 c 128,-1,2
 185 584 185 584 155 584 c 0,3,4
 124 584 124 584 104.5 605 c 128,-1,5
 85 626 85 626 88 658 c 0,6,7
 92 690 92 690 116 711 c 128,-1,8
 140 732 140 732 170 732 c 256,9,10
 200 732 200 732 220 711 c 128,-1,11
 240 690 240 690 236 658 c 0,0,1
74 -171 m 0,12,13
 36 -196 36 -196 -42 -223 c 1,14,-1
 -71 -132 l 1,15,16
 16 -107 16 -107 29 -64 c 0,17,18
 30 -59 30 -59 35 -13 c 2,19,-1
 88 495 l 1,20,-1
 196 495 l 1,21,-1
 138 -55 l 2,22,23
 130 -134 130 -134 74 -171 c 0,12,13
EndSplineSet
EndChar

StartChar: k
Encoding: 107 107 78
Width: 476
Flags: W
LayerCount: 2
Fore
SplineSet
188 222 m 1,0,-1
 154 178 l 1,1,-1
 135 -1 l 1,2,-1
 28 -1 l 1,3,-1
 101 697 l 1,4,-1
 208 697 l 1,5,-1
 165 289 l 1,6,-1
 369 536 l 1,7,-1
 457 471 l 1,8,-1
 252 275 l 1,9,-1
 443 31 l 1,10,-1
 341 -31 l 1,11,-1
 188 222 l 1,0,-1
EndSplineSet
EndChar

StartChar: l
Encoding: 108 108 79
Width: 234
Flags: W
LayerCount: 2
Fore
SplineSet
101 698 m 1,0,-1
 207 698 l 1,1,-1
 133 0 l 1,2,-1
 27 0 l 1,3,-1
 101 698 l 1,0,-1
EndSplineSet
EndChar

StartChar: m
Encoding: 109 109 80
Width: 776
Flags: W
LayerCount: 2
Fore
SplineSet
610 339 m 2,0,1
 611 350 611 350 611 360 c 0,2,3
 611 420 611 420 564 420 c 0,4,5
 540 420 540 420 500 386 c 0,6,7
 452 345 452 345 447 297 c 2,8,-1
 416 0 l 1,9,-1
 304 0 l 1,10,-1
 338 324 l 2,11,12
 342 361 342 361 326.5 388.5 c 128,-1,13
 311 416 311 416 289 416 c 0,14,15
 259 416 259 416 218.5 374 c 128,-1,16
 178 332 178 332 175 306 c 2,17,-1
 143 0 l 1,18,-1
 36 0 l 1,19,-1
 88 496 l 1,20,-1
 195 496 l 1,21,-1
 186 407 l 1,22,23
 260 507 260 507 325 507 c 0,24,25
 361 507 361 507 394 478 c 128,-1,26
 427 449 427 449 438 412 c 1,27,28
 524 512 524 512 590 512 c 0,29,30
 658 512 658 512 696 457 c 0,31,32
 729 408 729 408 722 344 c 2,33,-1
 686 0 l 1,34,-1
 574 0 l 1,35,-1
 610 339 l 2,0,1
EndSplineSet
EndChar

StartChar: n
Encoding: 110 110 81
Width: 512
Flags: W
LayerCount: 2
Fore
SplineSet
349 320 m 2,0,1
 350 333 350 333 350 344 c 0,2,3
 350 421 350 421 302 421 c 0,4,5
 266 421 266 421 222 378.5 c 128,-1,6
 178 336 178 336 175 303 c 2,7,-1
 143 0 l 1,8,-1
 36 0 l 1,9,-1
 88 496 l 1,10,-1
 195 496 l 1,11,-1
 186 407 l 1,12,13
 257 511 257 511 320 511 c 0,14,15
 378 511 378 511 418 468 c 128,-1,16
 458 425 458 425 458 355 c 0,17,18
 458 344 458 344 457 332 c 2,19,-1
 422 0 l 1,20,-1
 315 0 l 1,21,-1
 349 320 l 2,0,1
EndSplineSet
EndChar

StartChar: o
Encoding: 111 111 82
Width: 546
Flags: W
LayerCount: 2
Fore
SplineSet
39 252 m 0,0,1
 53 380 53 380 141 452 c 0,2,3
 214 512 214 512 303 512 c 0,4,5
 384 512 384 512 442 461 c 0,6,7
 509 400 509 400 509 291 c 0,8,9
 509 272 509 272 507 252 c 0,10,11
 498 164 498 164 445 91 c 0,12,13
 372 -11 372 -11 248 -11 c 0,14,15
 128 -11 128 -11 75 69 c 0,16,17
 37 127 37 127 37 215 c 0,18,19
 37 234 37 234 39 252 c 0,0,1
153 215 m 0,20,21
 153 152 153 152 177 112 c 0,22,23
 203 67 203 67 252 67 c 0,24,25
 320 67 320 67 360 145 c 0,26,27
 393 209 393 209 393 285 c 0,28,29
 393 348 393 348 371 388 c 0,30,31
 345 433 345 433 299 433 c 0,32,33
 228 433 228 433 187 356 c 0,34,35
 153 292 153 292 153 215 c 0,20,21
EndSplineSet
EndChar

StartChar: p
Encoding: 112 112 83
Width: 517
Flags: W
LayerCount: 2
Fore
SplineSet
156 28 m 1,0,-1
 133 -197 l 1,1,-1
 26 -197 l 1,2,-1
 99 496 l 1,3,-1
 206 496 l 1,4,-1
 197 414 l 1,5,6
 214 453 214 453 258 483 c 128,-1,7
 302 513 302 513 343 513 c 0,8,9
 494 512 494 512 494 316 c 0,10,11
 494 290 494 290 491 261 c 0,12,13
 461 -23 461 -23 253 -23 c 0,14,15
 223 -23 223 -23 156 28 c 1,0,-1
186 310 m 1,16,-1
 165 114 l 1,17,18
 222 68 222 68 264 68 c 0,19,20
 310 68 310 68 341 130 c 0,21,22
 367 180 367 180 373 248 c 0,23,24
 377 283 377 283 377 307 c 0,25,26
 377 421 377 421 299 421 c 0,27,28
 275 421 275 421 235 378 c 0,29,30
 199 340 199 340 186 310 c 1,16,-1
EndSplineSet
EndChar

StartChar: q
Encoding: 113 113 84
Width: 511
Flags: W
LayerCount: 2
Fore
SplineSet
369 450 m 1,0,-1
 374 496 l 1,1,-1
 481 496 l 1,2,-1
 408 -197 l 1,3,-1
 301 -197 l 1,4,-1
 326 43 l 1,5,6
 225 -23 225 -23 193 -23 c 0,7,8
 120 -23 120 -23 80 41 c 0,9,10
 44 99 44 99 44 197 c 0,11,12
 44 224 44 224 47 252 c 0,13,14
 56 338 56 338 104 416 c 0,15,16
 161 508 161 508 235 508 c 0,17,18
 281 508 281 508 311 493 c 0,19,20
 330 484 330 484 369 450 c 1,0,-1
273 422 m 0,21,22
 211 421 211 421 181 341 c 0,23,24
 159 284 159 284 159 207 c 0,25,26
 159 146 159 146 179 107 c 0,27,28
 200 65 200 65 234 65 c 0,29,30
 249 65 249 65 281 93 c 0,31,32
 332 135 332 135 336 138 c 1,33,-1
 357 341 l 1,34,35
 351 368 351 368 325 395 c 128,-1,36
 299 422 299 422 273 422 c 0,21,22
EndSplineSet
EndChar

StartChar: r
Encoding: 114 114 85
Width: 338
Flags: W
LayerCount: 2
Fore
SplineSet
264 384 m 0,0,1
 235 383 235 383 204 353 c 0,2,3
 178 327 178 327 176 312 c 2,4,-1
 143 0 l 1,5,-1
 36 0 l 1,6,-1
 89 496 l 1,7,-1
 196 496 l 1,8,-1
 187 415 l 1,9,10
 203 446 203 446 229 474 c 0,11,12
 259 506 259 506 283 506 c 0,13,14
 320 506 320 506 344 496 c 1,15,-1
 319 372 l 1,16,17
 302 382 302 382 293 384 c 0,18,19
 289 385 289 385 264 384 c 0,0,1
EndSplineSet
EndChar

StartChar: s
Encoding: 115 115 86
Width: 437
Flags: W
LayerCount: 2
Fore
SplineSet
27 66 m 1,0,-1
 91 141 l 1,1,2
 136 71 136 71 200 71 c 0,3,4
 232 71 232 71 253.5 89 c 128,-1,5
 275 107 275 107 278 135 c 0,6,7
 283 185 283 185 173 218 c 0,8,9
 118 234 118 234 94 259 c 0,10,11
 64 292 64 292 69 349 c 0,12,13
 78 430 78 430 135 475 c 0,14,15
 185 514 185 514 251 514 c 2,16,-1
 253 514 l 2,17,18
 319 514 319 514 399 460 c 1,19,-1
 352 386 l 1,20,21
 299 427 299 427 251 427 c 0,22,23
 219 427 219 427 199.5 410 c 128,-1,24
 180 393 180 393 178 371 c 0,25,26
 175 344 175 344 196 335 c 0,27,28
 229 321 229 321 261 311 c 0,29,30
 400 268 400 268 390 165 c 0,31,32
 381 78 381 78 319 29 c 0,33,34
 264 -14 264 -14 187 -14 c 0,35,36
 79 -14 79 -14 27 66 c 1,0,-1
EndSplineSet
EndChar

StartChar: t
Encoding: 116 116 87
Width: 351
Flags: W
LayerCount: 2
Fore
SplineSet
76 154 m 2,0,-1
 103 410 l 1,1,-1
 33 410 l 1,2,-1
 42 492 l 1,3,-1
 112 492 l 1,4,-1
 123 597 l 1,5,-1
 236 597 l 1,6,-1
 225 492 l 1,7,-1
 325 492 l 1,8,-1
 316 409 l 1,9,-1
 216 410 l 1,10,-1
 188 143 l 2,11,12
 181 79 181 79 218 79 c 0,13,14
 249 79 249 79 259 83 c 0,15,16
 277 92 277 92 295 102 c 1,17,-1
 312 33 l 1,18,19
 258 5 258 5 240 0 c 0,20,21
 213 -8 213 -8 159 -8 c 0,22,23
 74 -8 74 -8 74 115 c 0,24,25
 74 133 74 133 76 154 c 2,0,-1
EndSplineSet
EndChar

StartChar: u
Encoding: 117 117 88
Width: 511
Flags: W
LayerCount: 2
Fore
SplineSet
324 0 m 1,0,1
 323 27 323 27 321 71 c 1,2,3
 243 -18 243 -18 188 -18 c 0,4,5
 132 -18 132 -18 93 25 c 128,-1,6
 54 68 54 68 54 140 c 0,7,8
 54 153 54 153 55 166 c 2,9,-1
 90 495 l 1,10,-1
 197 495 l 1,11,-1
 163 169 l 2,12,13
 161 154 161 154 161 142 c 0,14,15
 161 75 161 75 205 75 c 0,16,17
 241 75 241 75 288 121 c 0,18,19
 331 163 331 163 334 189 c 2,20,-1
 366 495 l 1,21,-1
 473 495 l 1,22,-1
 421 0 l 1,23,-1
 324 0 l 1,0,1
EndSplineSet
EndChar

StartChar: v
Encoding: 118 118 89
Width: 464
Flags: W
LayerCount: 2
Fore
SplineSet
169 -12 m 1,0,-1
 40 474 l 1,1,-1
 151 505 l 1,2,-1
 223 121 l 1,3,-1
 370 505 l 1,4,-1
 472 474 l 1,5,-1
 245 -12 l 1,6,-1
 169 -12 l 1,0,-1
EndSplineSet
EndChar

StartChar: w
Encoding: 119 119 90
Width: 735
Flags: W
LayerCount: 2
Fore
SplineSet
452 -9 m 1,0,-1
 376 307 l 1,1,-1
 232 -9 l 1,2,-1
 145 -9 l 1,3,-1
 46 475 l 1,4,-1
 159 503 l 1,5,-1
 212 119 l 1,6,-1
 352 493 l 1,7,-1
 446 493 l 1,8,-1
 512 120 l 1,9,-1
 639 503 l 1,10,-1
 743 475 l 1,11,-1
 537 -9 l 1,12,-1
 452 -9 l 1,0,-1
EndSplineSet
EndChar

StartChar: x
Encoding: 120 120 91
Width: 488
Flags: W
LayerCount: 2
Fore
SplineSet
237 183 m 1,0,-1
 70 -31 l 1,1,-1
 -16 32 l 1,2,-1
 177 246 l 1,3,-1
 46 454 l 1,4,-1
 153 514 l 1,5,-1
 257 317 l 1,6,-1
 407 513 l 1,7,-1
 490 462 l 1,8,-1
 309 251 l 1,9,-1
 460 31 l 1,10,-1
 360 -33 l 1,11,-1
 237 183 l 1,0,-1
EndSplineSet
EndChar

StartChar: y
Encoding: 121 121 92
Width: 480
Flags: W
LayerCount: 2
Fore
SplineSet
77 -196 m 0,0,1
 49 -196 49 -196 -17 -172 c 1,2,-1
 25 -77 l 1,3,4
 60 -97 60 -97 93 -97 c 0,5,6
 144 -98 144 -98 192 32 c 1,7,-1
 57 473 l 1,8,-1
 174 503 l 1,9,-1
 253 137 l 1,10,-1
 400 501 l 1,11,-1
 498 476 l 1,12,-1
 241 -78 l 2,13,14
 218 -125 218 -125 180 -157 c 0,15,16
 133 -196 133 -196 77 -196 c 0,0,1
EndSplineSet
EndChar

StartChar: z
Encoding: 122 122 93
Width: 482
Flags: W
LayerCount: 2
Fore
SplineSet
35 77 m 1,0,-1
 267 355 l 2,1,2
 278 370 278 370 312 408 c 1,3,-1
 79 408 l 1,4,-1
 88 494 l 1,5,-1
 453 494 l 1,6,-1
 445 414 l 1,7,-1
 229 152 l 2,8,9
 213 131 213 131 181 92 c 1,10,-1
 423 92 l 1,11,-1
 413 0 l 1,12,-1
 27 0 l 1,13,-1
 35 77 l 1,0,-1
EndSplineSet
EndChar

StartChar: braceleft
Encoding: 123 123 94
Width: 536
Flags: W
LayerCount: 2
Fore
SplineSet
375 725 m 0,0,1
 343 725 343 725 331.5 705.5 c 128,-1,2
 320 686 320 686 312 614 c 0,3,4
 309 589 309 589 307 545 c 128,-1,5
 305 501 305 501 304 487 c 0,6,7
 296 412 296 412 215 339 c 1,8,-1
 214 332 l 1,9,10
 278 267 278 267 278 170 c 0,11,12
 278 158 278 158 277 146 c 0,13,14
 275 124 275 124 265.5 67.5 c 128,-1,15
 256 11 256 11 253 -10 c 0,16,17
 248 -65 248 -65 250 -75 c 0,18,19
 253 -90 253 -90 272 -90 c 0,20,21
 315 -90 315 -90 345 -65 c 1,22,-1
 362 -184 l 1,23,24
 313 -200 313 -200 258 -197 c 0,25,26
 139 -190 139 -190 139 -40 c 0,27,28
 139 -7 139 -7 146 61 c 0,29,30
 147 75 147 75 153.5 114.5 c 128,-1,31
 160 154 160 154 162 177 c 0,32,33
 170 252 170 252 111 310 c 1,34,-1
 118 365 l 1,35,36
 158 407 158 407 168 420 c 0,37,38
 191 452 191 452 195 490 c 0,39,40
 198 514 198 514 200 558 c 128,-1,41
 202 602 202 602 204 621 c 0,42,43
 226 834 226 834 384 834 c 0,44,45
 410 834 410 834 469 819 c 1,46,-1
 437 707 l 1,47,48
 388 725 388 725 375 725 c 0,0,1
EndSplineSet
EndChar

StartChar: bar
Encoding: 124 124 95
Width: 229
Flags: W
LayerCount: 2
Fore
SplineSet
113 686 m 1,0,-1
 241 686 l 1,1,-1
 145 -220 l 1,2,-1
 17 -220 l 1,3,-1
 113 686 l 1,0,-1
EndSplineSet
EndChar

StartChar: braceright
Encoding: 125 125 96
Width: 536
Flags: W
LayerCount: 2
Fore
SplineSet
342 61 m 0,0,1
 329 -57 329 -57 307 -107 c 0,2,3
 269 -192 269 -192 177 -197 c 0,4,5
 120 -200 120 -200 75 -184 c 1,6,-1
 117 -65 l 1,7,8
 142 -90 142 -90 185 -90 c 0,9,10
 202 -90 202 -90 207.5 -81.5 c 128,-1,11
 213 -73 213 -73 216 -49 c 2,12,13
 220 -10 l 2,14,15
 223 11 223 11 225.5 67.5 c 128,-1,16
 228 124 228 124 230 146 c 0,17,18
 236 203 236 203 269 258 c 0,19,20
 296 303 296 303 331 332 c 1,21,-1
 332 339 l 1,22,23
 267 412 267 412 275 487 c 0,24,25
 276 501 276 501 288 580 c 0,26,27
 297 636 297 636 297 673 c 0,28,29
 297 705 297 705 287.5 715 c 128,-1,30
 278 725 278 725 254 725 c 0,31,32
 241 725 241 725 188 707 c 1,33,-1
 180 819 l 1,34,35
 241 834 241 834 267 834 c 0,36,37
 405 834 405 834 405 668 c 0,38,39
 405 646 405 646 403 621 c 0,40,41
 401 602 401 602 394 558 c 128,-1,42
 387 514 387 514 384 490 c 0,43,44
 380 452 380 452 396 420 c 0,45,46
 403 407 403 407 435 365 c 1,47,-1
 430 310 l 1,48,49
 359 252 359 252 351 177 c 0,50,51
 349 154 349 154 346 114.5 c 128,-1,52
 343 75 343 75 342 61 c 0,0,1
EndSplineSet
EndChar

StartChar: asciitilde
Encoding: 126 126 97
Width: 395
Flags: W
LayerCount: 2
Fore
SplineSet
206 403 m 0,0,1
 183 420 183 420 173 420 c 0,2,3
 160 420 160 420 146 407 c 0,4,5
 137 399 137 399 102 360 c 1,6,-1
 83 453 l 1,7,8
 132 497 132 497 183 497 c 0,9,10
 216 497 216 497 246 479 c 128,-1,11
 276 461 276 461 281 461 c 0,12,13
 292 460 292 460 314 481 c 0,14,15
 325 493 325 493 337 504 c 1,16,-1
 353 417 l 1,17,18
 304 379 304 379 265 379 c 0,19,20
 239 379 239 379 206 403 c 0,0,1
EndSplineSet
EndChar

StartChar: Adieresis
Encoding: 196 196 98
Width: 580
Flags: W
LayerCount: 2
Fore
SplineSet
352 168 m 1,0,-1
 171 168 l 1,1,-1
 98 -12 l 1,2,-1
 -14 2 l 1,3,-1
 262 654 l 1,4,-1
 364 654 l 1,5,-1
 507 7 l 1,6,-1
 389 -12 l 1,7,-1
 352 168 l 1,0,-1
207 261 m 1,8,-1
 334 261 l 1,9,-1
 295 483 l 1,10,-1
 207 261 l 1,8,-1
363 758 m 0,11,12
 365 785 365 785 384 805 c 0,13,14
 406 830 406 830 440 830 c 0,15,16
 473 830 473 830 490 805 c 0,17,18
 505 784 505 784 503 758 c 0,19,20
 500 731 500 731 480 710 c 0,21,22
 458 686 458 686 425 686 c 0,23,24
 391 686 391 686 374 710 c 0,25,26
 360 730 360 730 363 758 c 0,11,12
153 758 m 0,27,28
 155 785 155 785 174 805 c 0,29,30
 196 830 196 830 230 830 c 0,31,32
 263 830 263 830 281 805 c 0,33,34
 295 784 295 784 293 758 c 0,35,36
 290 731 290 731 270 710 c 0,37,38
 248 686 248 686 215 686 c 0,39,40
 181 686 181 686 164 710 c 0,41,42
 150 730 150 730 153 758 c 0,27,28
EndSplineSet
EndChar

StartChar: Aring
Encoding: 197 197 99
Width: 580
Flags: W
LayerCount: 2
Fore
SplineSet
350 168 m 1,0,-1
 169 168 l 1,1,-1
 96 -12 l 1,2,-1
 -15 2 l 1,3,-1
 260 654 l 1,4,-1
 362 654 l 1,5,-1
 505 7 l 1,6,-1
 387 -12 l 1,7,-1
 350 168 l 1,0,-1
206 261 m 1,8,-1
 333 261 l 1,9,-1
 293 483 l 1,10,-1
 206 261 l 1,8,-1
321 686 m 0,11,12
 280 686 280 686 257.5 710.5 c 128,-1,13
 235 735 235 735 239 773 c 0,14,15
 243 810 243 810 271 834.5 c 128,-1,16
 299 859 299 859 339 859 c 256,17,18
 379 859 379 859 402 834.5 c 128,-1,19
 425 810 425 810 421 773 c 0,20,21
 417 735 417 735 389 710.5 c 128,-1,22
 361 686 361 686 321 686 c 0,11,12
334 816 m 256,23,24
 301 816 301 816 297 773 c 0,25,26
 292 729 292 729 325 729 c 256,27,28
 358 729 358 729 363 773 c 0,29,30
 367 816 367 816 334 816 c 256,23,24
EndSplineSet
EndChar

StartChar: Ccedilla
Encoding: 199 199 100
Width: 570
Flags: W
LayerCount: 2
Fore
SplineSet
302 -219 m 0,0,1
 237 -219 237 -219 220 -171 c 1,2,-1
 260 -137 l 1,3,4
 285 -169 285 -169 308 -169 c 0,5,6
 343 -169 343 -169 347 -135 c 0,7,8
 351 -96 351 -96 318 -96 c 0,9,10
 304 -96 304 -96 281 -111 c 1,11,-1
 237 -90 l 1,12,-1
 251 -6 l 1,13,14
 148 7 148 7 94 92 c 0,15,16
 46 167 46 167 46 278 c 0,17,18
 46 427 46 427 127 537 c 0,19,20
 216 659 216 659 361 660 c 0,21,22
 452 661 452 661 554 597 c 1,23,-1
 491 488 l 1,24,25
 459 511 459 511 428 533 c 0,26,27
 388 559 388 559 356 559 c 0,28,29
 274 559 274 559 220 474 c 0,30,31
 175 405 175 405 166 318 c 0,32,33
 164 300 164 300 164 283 c 0,34,35
 164 200 164 200 202.5 147.5 c 128,-1,36
 241 95 241 95 299 95 c 0,37,38
 352 95 352 95 460 152 c 1,39,-1
 505 58 l 1,40,41
 433 21 433 21 400 10 c 0,42,43
 357 -6 357 -6 308 -8 c 1,44,-1
 301 -47 l 1,45,46
 311 -43 311 -43 326 -43 c 0,47,48
 368 -43 368 -43 391 -72 c 0,49,50
 411 -97 411 -97 407 -132 c 256,51,52
 403 -167 403 -167 377 -192 c 0,53,54
 348 -219 348 -219 302 -219 c 0,0,1
EndSplineSet
EndChar

StartChar: Eacute
Encoding: 201 201 101
Width: 469
Flags: W
LayerCount: 2
Fore
SplineSet
182 391 m 1,0,-1
 408 391 l 1,1,-1
 397 292 l 1,2,-1
 171 293 l 1,3,-1
 152 109 l 1,4,-1
 392 110 l 1,5,-1
 381 0 l 1,6,-1
 24 0 l 1,7,-1
 91 640 l 1,8,-1
 450 640 l 1,9,-1
 439 535 l 1,10,-1
 197 535 l 1,11,-1
 182 391 l 1,0,-1
151 756 m 1,12,-1
 374 845 l 1,13,-1
 428 767 l 1,14,-1
 205 684 l 1,15,-1
 151 756 l 1,12,-1
EndSplineSet
EndChar

StartChar: Ntilde
Encoding: 209 209 102
Width: 570
Flags: W
LayerCount: 2
Fore
SplineSet
182 395 m 1,0,-1
 140 1 l 1,1,-1
 27 -1 l 1,2,-1
 95 644 l 1,3,-1
 191 644 l 1,4,-1
 398 259 l 1,5,-1
 438 640 l 1,6,-1
 550 640 l 1,7,-1
 485 15 l 1,8,-1
 396 -15 l 1,9,10
 334 127 334 127 182 395 c 1,0,-1
331 689 m 0,11,12
 298 712 298 712 290 712 c 0,13,14
 264 712 264 712 219 665 c 1,15,-1
 188 743 l 1,16,17
 233 793 233 793 299 795 c 0,18,19
 329 796 329 796 365 769 c 128,-1,20
 401 742 401 742 411 742 c 0,21,22
 424 742 424 742 465 773 c 1,23,-1
 494 697 l 1,24,25
 477 681 477 681 446 669 c 0,26,27
 419 659 419 659 404 659 c 0,28,29
 375 659 375 659 331 689 c 0,11,12
EndSplineSet
EndChar

StartChar: Odieresis
Encoding: 214 214 103
Width: 648
Flags: W
LayerCount: 2
Fore
SplineSet
29 322 m 0,0,1
 43 462 43 462 135.5 554 c 128,-1,2
 228 646 228 646 357 646 c 0,3,4
 473 646 473 646 542.5 568 c 128,-1,5
 612 490 612 490 612 367 c 0,6,7
 612 345 612 345 610 322 c 0,8,9
 593 163 593 163 497 71 c 0,10,11
 407 -16 407 -16 280 -16 c 0,12,13
 166 -16 166 -16 96 58.5 c 128,-1,14
 26 133 26 133 26 267 c 0,15,16
 26 294 26 294 29 322 c 0,0,1
141 281 m 0,17,18
 141 197 141 197 183.5 140.5 c 128,-1,19
 226 84 226 84 291 84 c 0,20,21
 380 84 380 84 441 173 c 0,22,23
 496 253 496 253 496 346 c 0,24,25
 496 432 496 432 454 490 c 128,-1,26
 412 548 412 548 344 548 c 0,27,28
 255 548 255 548 194 456 c 0,29,30
 141 375 141 375 141 281 c 0,17,18
405 748 m 0,31,32
 408 775 408 775 427 795 c 0,33,34
 449 820 449 820 483 820 c 0,35,36
 515 820 515 820 533 795 c 0,37,38
 548 774 548 774 545 748 c 0,39,40
 543 721 543 721 523 700 c 0,41,42
 500 676 500 676 468 676 c 0,43,44
 433 676 433 676 417 700 c 0,45,46
 402 720 402 720 405 748 c 0,31,32
195 748 m 0,47,48
 198 775 198 775 217 795 c 0,49,50
 239 820 239 820 273 820 c 0,51,52
 306 820 306 820 323 795 c 0,53,54
 338 774 338 774 335 748 c 0,55,56
 332 721 332 721 313 700 c 0,57,58
 291 676 291 676 258 676 c 0,59,60
 224 676 224 676 207 700 c 0,61,62
 192 720 192 720 195 748 c 0,47,48
EndSplineSet
EndChar

StartChar: Udieresis
Encoding: 220 220 104
Width: 521
Flags: W
LayerCount: 2
Fore
SplineSet
239 -17 m 0,0,1
 156 -17 156 -17 105 32 c 0,2,3
 48 87 48 87 48 191 c 0,4,5
 48 212 48 212 51 235 c 2,6,-1
 93 640 l 1,7,-1
 212 640 l 1,8,-1
 170 235 l 2,9,10
 167 216 167 216 167 198 c 0,11,12
 167 81 167 81 251 81 c 0,13,14
 295 81 295 81 329 115 c 0,15,16
 368 156 368 156 377 235 c 2,17,-1
 419 640 l 1,18,-1
 538 640 l 1,19,-1
 496 235 l 2,20,21
 482 109 482 109 401 41 c 0,22,23
 332 -17 332 -17 239 -17 c 0,0,1
352 748 m 0,24,25
 355 774 355 774 374 795 c 0,26,27
 396 820 396 820 430 820 c 0,28,29
 463 820 463 820 480 795 c 0,30,31
 495 774 495 774 492 748 c 0,32,33
 490 721 490 721 470 700 c 0,34,35
 448 676 448 676 415 676 c 0,36,37
 381 676 381 676 364 700 c 0,38,39
 350 720 350 720 352 748 c 0,24,25
143 748 m 0,40,41
 146 775 146 775 165 795 c 0,42,43
 187 820 187 820 221 820 c 0,44,45
 253 820 253 820 271 795 c 0,46,47
 285 774 285 774 282 748 c 0,48,49
 280 721 280 721 260 700 c 0,50,51
 238 676 238 676 206 676 c 0,52,53
 171 676 171 676 155 700 c 0,54,55
 140 720 140 720 143 748 c 0,40,41
EndSplineSet
EndChar

StartChar: aacute
Encoding: 225 225 105
Width: 491
Flags: W
LayerCount: 2
Fore
SplineSet
155 626 m 1,0,-1
 379 715 l 1,1,-1
 433 637 l 1,2,-1
 210 554 l 1,3,-1
 155 626 l 1,0,-1
296 223 m 1,4,5
 266 223 266 223 222 215 c 0,6,7
 174 207 174 207 157 196 c 0,8,9
 131 181 131 181 126 137 c 0,10,11
 123 109 123 109 139 87.5 c 128,-1,12
 155 66 155 66 179 66 c 0,13,14
 239 66 239 66 284 114 c 1,15,-1
 296 223 l 1,4,5
289 54 m 1,16,17
 243 17 243 17 226 6 c 0,18,19
 190 -16 190 -16 157 -16 c 0,20,21
 102 -16 102 -16 65 19 c 128,-1,22
 28 54 28 54 28 115 c 0,23,24
 28 125 28 125 29 136 c 0,25,26
 38 219 38 219 90 254 c 0,27,28
 123 275 123 275 216 293 c 0,29,30
 263 302 263 302 302 306 c 1,31,-1
 308 358 l 2,32,33
 310 380 310 380 294 399.5 c 128,-1,34
 278 419 278 419 254 419 c 0,35,36
 163 419 163 419 99 351 c 1,37,-1
 62 412 l 1,38,39
 94 457 94 457 159 486 c 0,40,41
 216 512 216 512 264 512 c 0,42,43
 335 512 335 512 378.5 466 c 128,-1,44
 422 420 422 420 415 349 c 2,45,-1
 388 98 l 2,46,47
 388 92 388 92 394.5 84 c 128,-1,48
 401 76 401 76 409 76 c 0,49,50
 441 76 441 76 452 86 c 1,51,-1
 456 22 l 1,52,53
 391 -11 391 -11 355 -11 c 0,54,55
 339 -11 339 -11 318 7 c 0,56,57
 293 28 293 28 289 54 c 1,16,17
EndSplineSet
EndChar

StartChar: agrave
Encoding: 224 224 106
Width: 491
Flags: W
LayerCount: 2
Fore
SplineSet
403 626 m 1,0,-1
 197 715 l 1,1,-1
 127 637 l 1,2,-1
 332 554 l 1,3,-1
 403 626 l 1,0,-1
296 223 m 1,4,5
 266 223 266 223 222 215 c 0,6,7
 174 207 174 207 157 196 c 0,8,9
 131 181 131 181 126 137 c 0,10,11
 123 109 123 109 139 87.5 c 128,-1,12
 155 66 155 66 179 66 c 0,13,14
 239 66 239 66 284 114 c 1,15,-1
 296 223 l 1,4,5
289 54 m 1,16,17
 243 17 243 17 226 6 c 0,18,19
 190 -16 190 -16 157 -16 c 0,20,21
 102 -16 102 -16 65 19 c 128,-1,22
 28 54 28 54 28 115 c 0,23,24
 28 125 28 125 29 136 c 0,25,26
 38 219 38 219 90 254 c 0,27,28
 123 275 123 275 216 293 c 0,29,30
 263 302 263 302 302 306 c 1,31,-1
 308 358 l 2,32,33
 310 380 310 380 294 399.5 c 128,-1,34
 278 419 278 419 254 419 c 0,35,36
 163 419 163 419 99 351 c 1,37,-1
 62 412 l 1,38,39
 94 457 94 457 159 486 c 0,40,41
 216 512 216 512 264 512 c 0,42,43
 335 512 335 512 378.5 466 c 128,-1,44
 422 420 422 420 415 349 c 2,45,-1
 388 98 l 2,46,47
 388 92 388 92 394.5 84 c 128,-1,48
 401 76 401 76 409 76 c 0,49,50
 441 76 441 76 452 86 c 1,51,-1
 456 22 l 1,52,53
 391 -11 391 -11 355 -11 c 0,54,55
 339 -11 339 -11 318 7 c 0,56,57
 293 28 293 28 289 54 c 1,16,17
EndSplineSet
EndChar

StartChar: acircumflex
Encoding: 226 226 107
Width: 491
Flags: W
LayerCount: 2
Fore
SplineSet
133 521 m 1,0,-1
 142 609 l 1,1,-1
 291 715 l 1,2,-1
 422 609 l 1,3,-1
 413 522 l 1,4,-1
 279 599 l 1,5,-1
 133 521 l 1,0,-1
296 223 m 1,6,7
 266 223 266 223 222 215 c 0,8,9
 174 207 174 207 157 196 c 0,10,11
 131 181 131 181 126 137 c 0,12,13
 123 109 123 109 139 87.5 c 128,-1,14
 155 66 155 66 179 66 c 0,15,16
 239 66 239 66 284 114 c 1,17,-1
 296 223 l 1,6,7
289 54 m 1,18,19
 243 17 243 17 226 6 c 0,20,21
 190 -16 190 -16 157 -16 c 0,22,23
 102 -16 102 -16 65 19 c 128,-1,24
 28 54 28 54 28 115 c 0,25,26
 28 125 28 125 29 136 c 0,27,28
 38 219 38 219 90 254 c 0,29,30
 123 275 123 275 216 293 c 0,31,32
 263 302 263 302 302 306 c 1,33,-1
 308 358 l 2,34,35
 310 380 310 380 294 399.5 c 128,-1,36
 278 419 278 419 254 419 c 0,37,38
 163 419 163 419 99 351 c 1,39,-1
 62 412 l 1,40,41
 94 457 94 457 159 486 c 0,42,43
 216 512 216 512 264 512 c 0,44,45
 335 512 335 512 378.5 466 c 128,-1,46
 422 420 422 420 415 349 c 2,47,-1
 388 98 l 2,48,49
 388 92 388 92 394.5 84 c 128,-1,50
 401 76 401 76 409 76 c 0,51,52
 441 76 441 76 452 86 c 1,53,-1
 456 22 l 1,54,55
 391 -11 391 -11 355 -11 c 0,56,57
 339 -11 339 -11 318 7 c 0,58,59
 293 28 293 28 289 54 c 1,18,19
EndSplineSet
EndChar

StartChar: adieresis
Encoding: 228 228 108
Width: 491
Flags: W
LayerCount: 2
Fore
SplineSet
313 598 m 0,0,1
 316 625 316 625 335 645 c 0,2,3
 357 670 357 670 391 670 c 0,4,5
 423 670 423 670 441 645 c 0,6,7
 456 624 456 624 453 598 c 0,8,9
 451 571 451 571 431 550 c 0,10,11
 409 526 409 526 376 526 c 0,12,13
 341 526 341 526 325 550 c 0,14,15
 311 570 311 570 313 598 c 0,0,1
103 598 m 0,16,17
 106 625 106 625 125 645 c 0,18,19
 147 670 147 670 181 670 c 0,20,21
 214 670 214 670 231 645 c 0,22,23
 246 624 246 624 243 598 c 0,24,25
 241 571 241 571 221 550 c 0,26,27
 199 526 199 526 166 526 c 0,28,29
 132 526 132 526 115 550 c 0,30,31
 101 570 101 570 103 598 c 0,16,17
296 223 m 1,32,33
 266 223 266 223 222 215 c 0,34,35
 174 207 174 207 157 196 c 0,36,37
 131 181 131 181 126 137 c 0,38,39
 123 109 123 109 139 87.5 c 128,-1,40
 155 66 155 66 179 66 c 0,41,42
 239 66 239 66 284 114 c 1,43,-1
 296 223 l 1,32,33
289 54 m 1,44,45
 243 17 243 17 226 6 c 0,46,47
 190 -16 190 -16 157 -16 c 0,48,49
 102 -16 102 -16 65 19 c 128,-1,50
 28 54 28 54 28 115 c 0,51,52
 28 125 28 125 29 136 c 0,53,54
 38 219 38 219 90 254 c 0,55,56
 123 275 123 275 216 293 c 0,57,58
 263 302 263 302 302 306 c 1,59,-1
 308 358 l 2,60,61
 310 380 310 380 294 399.5 c 128,-1,62
 278 419 278 419 254 419 c 0,63,64
 163 419 163 419 99 351 c 1,65,-1
 62 412 l 1,66,67
 94 457 94 457 159 486 c 0,68,69
 216 512 216 512 264 512 c 0,70,71
 335 512 335 512 378.5 466 c 128,-1,72
 422 420 422 420 415 349 c 2,73,-1
 388 98 l 2,74,75
 388 92 388 92 394.5 84 c 128,-1,76
 401 76 401 76 409 76 c 0,77,78
 441 76 441 76 452 86 c 1,79,-1
 456 22 l 1,80,81
 391 -11 391 -11 355 -11 c 0,82,83
 339 -11 339 -11 318 7 c 0,84,85
 293 28 293 28 289 54 c 1,44,45
EndSplineSet
EndChar

StartChar: atilde
Encoding: 227 227 109
Width: 491
Flags: W
LayerCount: 2
Fore
SplineSet
253 579 m 0,0,1
 221 602 221 602 211 602 c 0,2,3
 186 602 186 602 140 555 c 1,4,-1
 108 633 l 1,5,6
 153 683 153 683 219 685 c 0,7,8
 249 686 249 686 285.5 659 c 128,-1,9
 322 632 322 632 332 632 c 0,10,11
 345 632 345 632 386 663 c 1,12,-1
 416 587 l 1,13,14
 398 571 398 571 367 559 c 0,15,16
 340 549 340 549 326 549 c 0,17,18
 295 549 295 549 253 579 c 0,0,1
296 223 m 1,19,20
 266 223 266 223 222 215 c 0,21,22
 174 207 174 207 157 196 c 0,23,24
 131 181 131 181 126 137 c 0,25,26
 123 109 123 109 139 87.5 c 128,-1,27
 155 66 155 66 179 66 c 0,28,29
 239 66 239 66 284 114 c 1,30,-1
 296 223 l 1,19,20
289 54 m 1,31,32
 243 17 243 17 226 6 c 0,33,34
 190 -16 190 -16 157 -16 c 0,35,36
 102 -16 102 -16 65 19 c 128,-1,37
 28 54 28 54 28 115 c 0,38,39
 28 125 28 125 29 136 c 0,40,41
 38 219 38 219 90 254 c 0,42,43
 123 275 123 275 216 293 c 0,44,45
 263 302 263 302 302 306 c 1,46,-1
 308 358 l 2,47,48
 310 380 310 380 294 399.5 c 128,-1,49
 278 419 278 419 254 419 c 0,50,51
 163 419 163 419 99 351 c 1,52,-1
 62 412 l 1,53,54
 94 457 94 457 159 486 c 0,55,56
 216 512 216 512 264 512 c 0,57,58
 335 512 335 512 378.5 466 c 128,-1,59
 422 420 422 420 415 349 c 2,60,-1
 388 98 l 2,61,62
 388 92 388 92 394.5 84 c 128,-1,63
 401 76 401 76 409 76 c 0,64,65
 441 76 441 76 452 86 c 1,66,-1
 456 22 l 1,67,68
 391 -11 391 -11 355 -11 c 0,69,70
 339 -11 339 -11 318 7 c 0,71,72
 293 28 293 28 289 54 c 1,31,32
EndSplineSet
EndChar

StartChar: aring
Encoding: 229 229 110
Width: 491
Flags: W
LayerCount: 2
Fore
SplineSet
261 566 m 0,0,1
 221 566 221 566 199 590.5 c 128,-1,2
 177 615 177 615 181 653 c 0,3,4
 185 690 185 690 212.5 714.5 c 128,-1,5
 240 739 240 739 280 739 c 256,6,7
 320 739 320 739 343 714.5 c 128,-1,8
 366 690 366 690 362 653 c 0,9,10
 358 615 358 615 330 590.5 c 128,-1,11
 302 566 302 566 261 566 c 0,0,1
275 696 m 0,12,13
 243 696 243 696 239 653 c 0,14,15
 234 609 234 609 266 609 c 0,16,17
 299 609 299 609 304 653 c 0,18,19
 308 696 308 696 275 696 c 0,12,13
296 223 m 1,20,21
 266 223 266 223 222 215 c 0,22,23
 174 207 174 207 157 196 c 0,24,25
 131 181 131 181 126 137 c 0,26,27
 123 109 123 109 139 87.5 c 128,-1,28
 155 66 155 66 179 66 c 0,29,30
 239 66 239 66 284 114 c 1,31,-1
 296 223 l 1,20,21
289 54 m 1,32,33
 243 17 243 17 226 6 c 0,34,35
 190 -16 190 -16 157 -16 c 0,36,37
 102 -16 102 -16 65 19 c 128,-1,38
 28 54 28 54 28 115 c 0,39,40
 28 125 28 125 29 136 c 0,41,42
 38 219 38 219 90 254 c 0,43,44
 123 275 123 275 216 293 c 0,45,46
 263 302 263 302 302 306 c 1,47,-1
 308 358 l 2,48,49
 310 380 310 380 294 399.5 c 128,-1,50
 278 419 278 419 254 419 c 0,51,52
 163 419 163 419 99 351 c 1,53,-1
 62 412 l 1,54,55
 94 457 94 457 159 486 c 0,56,57
 216 512 216 512 264 512 c 0,58,59
 335 512 335 512 378.5 466 c 128,-1,60
 422 420 422 420 415 349 c 2,61,-1
 388 98 l 2,62,63
 388 92 388 92 394.5 84 c 128,-1,64
 401 76 401 76 409 76 c 0,65,66
 441 76 441 76 452 86 c 1,67,-1
 456 22 l 1,68,69
 391 -11 391 -11 355 -11 c 0,70,71
 339 -11 339 -11 318 7 c 0,72,73
 293 28 293 28 289 54 c 1,32,33
EndSplineSet
EndChar

StartChar: ccedilla
Encoding: 231 231 111
Width: 483
Flags: W
LayerCount: 2
Fore
SplineSet
363 -132 m 0,0,1
 359 -167 359 -167 331 -193 c 128,-1,2
 303 -219 303 -219 257 -219 c 0,3,4
 193 -219 193 -219 176 -171 c 1,5,-1
 216 -137 l 1,6,7
 241 -169 241 -169 263 -169 c 0,8,9
 299 -169 299 -169 302 -135 c 0,10,11
 307 -96 307 -96 273 -96 c 0,12,13
 258 -96 258 -96 237 -111 c 1,14,-1
 192 -90 l 1,15,-1
 205 -8 l 1,16,-1
 209 -8 l 1,17,18
 119 8 119 8 77 86 c 0,19,20
 48 141 48 141 48 215 c 0,21,22
 48 230 48 230 49 242 c 0,23,24
 63 376 63 376 148 449 c 0,25,26
 220 512 220 512 313 511 c 0,27,28
 371 511 371 511 459 447 c 1,29,-1
 418 378 l 1,30,31
 359 431 359 431 296 431 c 256,32,33
 233 431 233 431 195 347 c 0,34,35
 164 279 164 279 164 206 c 0,36,37
 164 143 164 143 191.5 105 c 128,-1,38
 219 67 219 67 265 67 c 0,39,40
 323 67 323 67 401 131 c 1,41,-1
 440 72 l 1,42,43
 362 -8 362 -8 266 -12 c 2,44,-1
 262 -12 l 1,45,-1
 256 -47 l 1,46,47
 265 -43 265 -43 281 -43 c 0,48,49
 323 -43 323 -43 346 -72 c 0,50,51
 366 -97 366 -97 363 -132 c 0,0,1
262 -12 m 1,52,-1
 256 -47 l 1,53,54
 265 -43 265 -43 281 -43 c 0,55,56
 323 -43 323 -43 346 -72 c 0,57,58
 366 -97 366 -97 363 -132 c 0,59,60
 359 -167 359 -167 331 -193 c 128,-1,61
 303 -219 303 -219 257 -219 c 0,62,63
 193 -219 193 -219 176 -171 c 1,64,-1
 216 -137 l 1,65,66
 241 -169 241 -169 263 -169 c 0,67,68
 299 -169 299 -169 302 -135 c 0,69,70
 307 -96 307 -96 273 -96 c 0,71,72
 258 -96 258 -96 237 -111 c 1,73,-1
 192 -90 l 1,74,-1
 206 -8 l 1,75,-1
 262 -12 l 1,52,-1
EndSplineSet
EndChar

StartChar: eacute
Encoding: 233 233 112
Width: 497
Flags: W
LayerCount: 2
Fore
SplineSet
155 626 m 1,0,-1
 379 715 l 1,1,-1
 403 637 l 1,2,-1
 180 554 l 1,3,-1
 155 626 l 1,0,-1
256 68 m 0,4,5
 321 67 321 67 393 131 c 1,6,-1
 431 70 l 1,7,8
 374 20 374 20 335.5 4 c 128,-1,9
 297 -12 297 -12 241 -12 c 0,10,11
 124 -12 124 -12 73 74 c 0,12,13
 37 133 37 133 37 218 c 0,14,15
 37 234 37 234 39 247 c 0,16,17
 51 360 51 360 118 433 c 0,18,19
 190 510 190 510 299 510 c 0,20,21
 368 510 368 510 413 467 c 0,22,23
 462 420 462 420 462 341 c 0,24,25
 462 327 462 327 461 313 c 2,26,-1
 453 238 l 1,27,-1
 157 238 l 1,28,29
 155 214 155 214 155 195 c 0,30,31
 155 69 155 69 256 68 c 0,4,5
353 323 m 1,32,33
 355 338 355 338 355 351 c 0,34,35
 355 432 355 432 284 432 c 0,36,37
 251 432 251 432 221 406 c 0,38,39
 188 376 188 376 173 323 c 1,40,-1
 353 323 l 1,32,33
EndSplineSet
EndChar

StartChar: egrave
Encoding: 232 232 113
Width: 497
Flags: W
LayerCount: 2
Fore
SplineSet
433 626 m 1,0,-1
 227 715 l 1,1,-1
 177 637 l 1,2,-1
 382 554 l 1,3,-1
 433 626 l 1,0,-1
256 68 m 0,4,5
 321 67 321 67 393 131 c 1,6,-1
 431 70 l 1,7,8
 374 20 374 20 335.5 4 c 128,-1,9
 297 -12 297 -12 241 -12 c 0,10,11
 124 -12 124 -12 73 74 c 0,12,13
 37 133 37 133 37 218 c 0,14,15
 37 234 37 234 39 247 c 0,16,17
 51 360 51 360 118 433 c 0,18,19
 190 510 190 510 299 510 c 0,20,21
 368 510 368 510 413 467 c 0,22,23
 462 420 462 420 462 341 c 0,24,25
 462 327 462 327 461 313 c 2,26,-1
 453 238 l 1,27,-1
 157 238 l 1,28,29
 155 214 155 214 155 195 c 0,30,31
 155 69 155 69 256 68 c 0,4,5
353 323 m 1,32,33
 355 338 355 338 355 351 c 0,34,35
 355 432 355 432 284 432 c 0,36,37
 251 432 251 432 221 406 c 0,38,39
 188 376 188 376 173 323 c 1,40,-1
 353 323 l 1,32,33
EndSplineSet
EndChar

StartChar: ecircumflex
Encoding: 234 234 114
Width: 497
Flags: W
LayerCount: 2
Fore
SplineSet
155 561 m 1,0,-1
 164 649 l 1,1,-1
 313 755 l 1,2,-1
 444 649 l 1,3,-1
 435 562 l 1,4,-1
 301 639 l 1,5,-1
 155 561 l 1,0,-1
256 68 m 0,6,7
 321 67 321 67 393 131 c 1,8,-1
 431 70 l 1,9,10
 374 20 374 20 335.5 4 c 128,-1,11
 297 -12 297 -12 241 -12 c 0,12,13
 124 -12 124 -12 73 74 c 0,14,15
 37 133 37 133 37 218 c 0,16,17
 37 234 37 234 39 247 c 0,18,19
 51 360 51 360 118 433 c 0,20,21
 190 510 190 510 299 510 c 0,22,23
 368 510 368 510 413 467 c 0,24,25
 462 420 462 420 462 341 c 0,26,27
 462 327 462 327 461 313 c 2,28,-1
 453 238 l 1,29,-1
 157 238 l 1,30,31
 155 214 155 214 155 195 c 0,32,33
 155 69 155 69 256 68 c 0,6,7
353 323 m 1,34,35
 355 338 355 338 355 351 c 0,36,37
 355 432 355 432 284 432 c 0,38,39
 251 432 251 432 221 406 c 0,40,41
 188 376 188 376 173 323 c 1,42,-1
 353 323 l 1,34,35
EndSplineSet
EndChar

StartChar: iacute
Encoding: 237 237 116
Width: 234
Flags: W
LayerCount: 2
Fore
SplineSet
18 626 m 1,0,-1
 242 715 l 1,1,-1
 275 637 l 1,2,-1
 53 554 l 1,3,-1
 18 626 l 1,0,-1
77 495 m 1,4,-1
 184 495 l 1,5,-1
 132 0 l 1,6,-1
 25 0 l 1,7,-1
 77 495 l 1,4,-1
EndSplineSet
EndChar

StartChar: idieresis
Encoding: 239 239 119
Width: 207
Flags: W
LayerCount: 2
Fore
SplineSet
78 495 m 1,0,-1
 185 495 l 1,1,-1
 133 0 l 1,2,-1
 26 0 l 1,3,-1
 78 495 l 1,0,-1
155 628 m 0,4,5
 158 655 158 655 176 675 c 0,6,7
 198 700 198 700 233 700 c 0,8,9
 266 700 266 700 283 675 c 0,10,11
 298 654 298 654 295 628 c 0,12,13
 292 601 292 601 273 580 c 0,14,15
 250 556 250 556 217 556 c 256,16,17
 184 556 184 556 167 580 c 0,18,19
 152 600 152 600 155 628 c 0,4,5
-55 628 m 0,20,21
 -52 654 -52 654 -33 675 c 0,22,23
 -11 700 -11 700 23 700 c 0,24,25
 56 700 56 700 73 675 c 0,26,27
 88 654 88 654 85 628 c 0,28,29
 82 601 82 601 63 580 c 0,30,31
 41 556 41 556 7 556 c 0,32,33
 -26 556 -26 556 -43 580 c 0,34,35
 -58 600 -58 600 -55 628 c 0,20,21
EndSplineSet
EndChar

StartChar: ntilde
Encoding: 241 241 120
Width: 486
Flags: W
LayerCount: 2
Fore
SplineSet
273 579 m 0,0,1
 241 602 241 602 231 602 c 0,2,3
 206 602 206 602 160 555 c 1,4,-1
 129 633 l 1,5,6
 173 683 173 683 239 685 c 0,7,8
 270 686 270 686 306 659 c 128,-1,9
 342 632 342 632 352 632 c 0,10,11
 365 632 365 632 406 663 c 1,12,-1
 436 587 l 1,13,14
 418 571 418 571 389.5 560 c 128,-1,15
 361 549 361 549 346 549 c 0,16,17
 315 549 315 549 273 579 c 0,0,1
349 320 m 2,18,19
 350 333 350 333 350 344 c 0,20,21
 350 421 350 421 302 421 c 0,22,23
 266 421 266 421 222 378.5 c 128,-1,24
 178 336 178 336 175 303 c 2,25,-1
 143 0 l 1,26,-1
 36 0 l 1,27,-1
 88 496 l 1,28,-1
 195 496 l 1,29,-1
 186 407 l 1,30,31
 257 511 257 511 320 511 c 0,32,33
 378 511 378 511 418 468 c 128,-1,34
 458 425 458 425 458 355 c 0,35,36
 458 344 458 344 457 332 c 2,37,-1
 422 0 l 1,38,-1
 315 0 l 1,39,-1
 349 320 l 2,18,19
EndSplineSet
EndChar

StartChar: oacute
Encoding: 243 243 121
Width: 543
Flags: W
LayerCount: 2
Fore
SplineSet
197 626 m 1,0,-1
 421 715 l 1,1,-1
 475 637 l 1,2,-1
 252 554 l 1,3,-1
 197 626 l 1,0,-1
39 252 m 0,4,5
 53 380 53 380 141 452 c 0,6,7
 214 512 214 512 303 512 c 0,8,9
 384 512 384 512 442 461 c 0,10,11
 509 400 509 400 509 291 c 0,12,13
 509 272 509 272 507 252 c 0,14,15
 498 164 498 164 445 91 c 0,16,17
 372 -11 372 -11 248 -11 c 0,18,19
 128 -11 128 -11 75 69 c 0,20,21
 37 127 37 127 37 215 c 0,22,23
 37 234 37 234 39 252 c 0,4,5
153 215 m 0,24,25
 153 152 153 152 177 112 c 0,26,27
 203 67 203 67 252 67 c 0,28,29
 320 67 320 67 360 145 c 0,30,31
 393 209 393 209 393 285 c 0,32,33
 393 348 393 348 371 388 c 0,34,35
 345 433 345 433 299 433 c 0,36,37
 228 433 228 433 187 356 c 0,38,39
 153 292 153 292 153 215 c 0,24,25
EndSplineSet
EndChar

StartChar: ograve
Encoding: 242 242 122
Width: 543
Flags: W
LayerCount: 2
Fore
SplineSet
409 556 m 1,0,-1
 209 646 l 1,1,-1
 263 711 l 1,2,-1
 463 615 l 1,3,-1
 409 556 l 1,0,-1
39 252 m 0,4,5
 53 380 53 380 141 452 c 0,6,7
 214 512 214 512 303 512 c 0,8,9
 384 512 384 512 442 461 c 0,10,11
 509 400 509 400 509 291 c 0,12,13
 509 272 509 272 507 252 c 0,14,15
 498 164 498 164 445 91 c 0,16,17
 372 -11 372 -11 248 -11 c 0,18,19
 128 -11 128 -11 75 69 c 0,20,21
 37 127 37 127 37 215 c 0,22,23
 37 234 37 234 39 252 c 0,4,5
153 215 m 0,24,25
 153 152 153 152 177 112 c 0,26,27
 203 67 203 67 252 67 c 0,28,29
 320 67 320 67 360 145 c 0,30,31
 393 209 393 209 393 285 c 0,32,33
 393 348 393 348 371 388 c 0,34,35
 345 433 345 433 299 433 c 0,36,37
 228 433 228 433 187 356 c 0,38,39
 153 292 153 292 153 215 c 0,24,25
EndSplineSet
EndChar

StartChar: ocircumflex
Encoding: 244 244 123
Width: 543
Flags: W
LayerCount: 2
Fore
SplineSet
163 521 m 1,0,-1
 172 609 l 1,1,-1
 321 715 l 1,2,-1
 452 609 l 1,3,-1
 443 522 l 1,4,-1
 309 599 l 1,5,-1
 163 521 l 1,0,-1
39 252 m 0,6,7
 53 380 53 380 141 452 c 0,8,9
 214 512 214 512 303 512 c 0,10,11
 384 512 384 512 442 461 c 0,12,13
 509 400 509 400 509 291 c 0,14,15
 509 272 509 272 507 252 c 0,16,17
 498 164 498 164 445 91 c 0,18,19
 372 -11 372 -11 248 -11 c 0,20,21
 128 -11 128 -11 75 69 c 0,22,23
 37 127 37 127 37 215 c 0,24,25
 37 234 37 234 39 252 c 0,6,7
153 215 m 0,26,27
 153 152 153 152 177 112 c 0,28,29
 203 67 203 67 252 67 c 0,30,31
 320 67 320 67 360 145 c 0,32,33
 393 209 393 209 393 285 c 0,34,35
 393 348 393 348 371 388 c 0,36,37
 345 433 345 433 299 433 c 0,38,39
 228 433 228 433 187 356 c 0,40,41
 153 292 153 292 153 215 c 0,26,27
EndSplineSet
EndChar

StartChar: otilde
Encoding: 245 245 125
Width: 543
Flags: W
LayerCount: 2
Fore
SplineSet
304 579 m 0,0,1
 271 602 271 602 263 602 c 0,2,3
 237 602 237 602 192 555 c 1,4,-1
 161 633 l 1,5,6
 206 683 206 683 272 685 c 0,7,8
 302 686 302 686 338 659 c 128,-1,9
 374 632 374 632 384 632 c 0,10,11
 397 632 397 632 438 663 c 1,12,-1
 467 587 l 1,13,14
 450 571 450 571 419 559 c 0,15,16
 392 549 392 549 377 549 c 0,17,18
 348 549 348 549 304 579 c 0,0,1
39 252 m 0,19,20
 53 380 53 380 141 452 c 0,21,22
 214 512 214 512 303 512 c 0,23,24
 384 512 384 512 442 461 c 0,25,26
 509 400 509 400 509 291 c 0,27,28
 509 272 509 272 507 252 c 0,29,30
 498 164 498 164 445 91 c 0,31,32
 372 -11 372 -11 248 -11 c 0,33,34
 128 -11 128 -11 75 69 c 0,35,36
 37 127 37 127 37 215 c 0,37,38
 37 234 37 234 39 252 c 0,19,20
153 215 m 0,39,40
 153 152 153 152 177 112 c 0,41,42
 203 67 203 67 252 67 c 0,43,44
 320 67 320 67 360 145 c 0,45,46
 393 209 393 209 393 285 c 0,47,48
 393 348 393 348 371 388 c 0,49,50
 345 433 345 433 299 433 c 0,51,52
 228 433 228 433 187 356 c 0,53,54
 153 292 153 292 153 215 c 0,39,40
EndSplineSet
EndChar

StartChar: uacute
Encoding: 250 250 126
Width: 482
Flags: W
LayerCount: 2
Fore
SplineSet
155 626 m 1,0,-1
 380 715 l 1,1,-1
 433 637 l 1,2,-1
 211 554 l 1,3,-1
 155 626 l 1,0,-1
324 0 m 1,4,5
 323 27 323 27 321 71 c 1,6,7
 243 -18 243 -18 188 -18 c 0,8,9
 132 -18 132 -18 93 25 c 128,-1,10
 54 68 54 68 54 140 c 0,11,12
 54 153 54 153 55 166 c 2,13,-1
 90 495 l 1,14,-1
 197 495 l 1,15,-1
 163 169 l 2,16,17
 161 154 161 154 161 142 c 0,18,19
 161 75 161 75 205 75 c 0,20,21
 241 75 241 75 288 121 c 0,22,23
 331 163 331 163 334 189 c 2,24,-1
 366 495 l 1,25,-1
 473 495 l 1,26,-1
 421 0 l 1,27,-1
 324 0 l 1,4,5
EndSplineSet
EndChar

StartChar: ugrave
Encoding: 249 249 127
Width: 482
Flags: W
LayerCount: 2
Fore
SplineSet
377 556 m 1,0,-1
 178 646 l 1,1,-1
 231 711 l 1,2,-1
 432 615 l 1,3,-1
 377 556 l 1,0,-1
324 0 m 1,4,5
 323 27 323 27 321 71 c 1,6,7
 243 -18 243 -18 188 -18 c 0,8,9
 132 -18 132 -18 93 25 c 128,-1,10
 54 68 54 68 54 140 c 0,11,12
 54 153 54 153 55 166 c 2,13,-1
 90 495 l 1,14,-1
 197 495 l 1,15,-1
 163 169 l 2,16,17
 161 154 161 154 161 142 c 0,18,19
 161 75 161 75 205 75 c 0,20,21
 241 75 241 75 288 121 c 0,22,23
 331 163 331 163 334 189 c 2,24,-1
 366 495 l 1,25,-1
 473 495 l 1,26,-1
 421 0 l 1,27,-1
 324 0 l 1,4,5
EndSplineSet
EndChar

StartChar: ucircumflex
Encoding: 251 251 128
Width: 482
Flags: W
LayerCount: 2
Fore
SplineSet
143 521 m 1,0,-1
 152 609 l 1,1,-1
 302 715 l 1,2,-1
 432 609 l 1,3,-1
 423 522 l 1,4,-1
 289 599 l 1,5,-1
 143 521 l 1,0,-1
324 0 m 1,6,7
 323 27 323 27 321 71 c 1,8,9
 243 -18 243 -18 188 -18 c 0,10,11
 132 -18 132 -18 93 25 c 128,-1,12
 54 68 54 68 54 140 c 0,13,14
 54 153 54 153 55 166 c 2,15,-1
 90 495 l 1,16,-1
 197 495 l 1,17,-1
 163 169 l 2,18,19
 161 154 161 154 161 142 c 0,20,21
 161 75 161 75 205 75 c 0,22,23
 241 75 241 75 288 121 c 0,24,25
 331 163 331 163 334 189 c 2,26,-1
 366 495 l 1,27,-1
 473 495 l 1,28,-1
 421 0 l 1,29,-1
 324 0 l 1,6,7
EndSplineSet
EndChar

StartChar: dagger
Encoding: 257 8224 130
Width: 221
Flags: W
LayerCount: 2
Fore
SplineSet
135 534 m 1,0,-1
 135 333 l 1,1,-1
 71 333 l 1,2,-1
 71 534 l 1,3,-1
 23 534 l 1,4,-1
 23 600 l 1,5,-1
 71 600 l 1,6,-1
 71 655 l 1,7,-1
 135 655 l 1,8,-1
 135 600 l 1,9,-1
 192 600 l 1,10,-1
 192 534 l 1,11,-1
 135 534 l 1,0,-1
EndSplineSet
EndChar

StartChar: degree
Encoding: 176 176 131
Width: 273
Flags: W
LayerCount: 2
Fore
SplineSet
278 582 m 256,0,1
 272 524 272 524 227.5 483 c 128,-1,2
 183 442 183 442 123 442 c 256,3,4
 63 442 63 442 26 483 c 128,-1,5
 -11 524 -11 524 -5 582 c 256,6,7
 1 640 1 640 46.5 681 c 128,-1,8
 92 722 92 722 153 722 c 0,9,10
 213 722 213 722 248.5 681 c 128,-1,11
 284 640 284 640 278 582 c 256,0,1
68 582 m 256,12,13
 65 552 65 552 82.5 532 c 128,-1,14
 100 512 100 512 131 512 c 0,15,16
 160 512 160 512 181 532 c 128,-1,17
 202 552 202 552 205 582 c 256,18,19
 208 612 208 612 191.5 632 c 128,-1,20
 175 652 175 652 145 652 c 256,21,22
 115 652 115 652 93 632 c 128,-1,23
 71 612 71 612 68 582 c 256,12,13
EndSplineSet
EndChar

StartChar: cent
Encoding: 162 162 132
Width: 479
Flags: W
LayerCount: 2
Fore
SplineSet
37 242 m 0,0,1
 49 355 49 355 108 425 c 0,2,3
 158 486 158 486 235 505 c 1,4,-1
 244 590 l 1,5,-1
 362 590 l 1,6,-1
 353 506 l 1,7,8
 404 494 404 494 458 447 c 1,9,-1
 401 371 l 1,10,11
 354 412 354 412 341 420 c 0,12,13
 317 436 317 436 288 436 c 0,14,15
 227 436 227 436 186 350 c 0,16,17
 152 279 152 279 152 209 c 0,18,19
 152 146 152 146 180 106.5 c 128,-1,20
 208 67 208 67 247 67 c 0,21,22
 277 67 277 67 309 86 c 0,23,24
 332 99 332 99 379 140 c 1,25,-1
 430 69 l 1,26,27
 365 8 365 8 299 -10 c 1,28,-1
 290 -89 l 1,29,-1
 172 -89 l 1,30,-1
 181 -11 l 1,31,32
 98 8 98 8 62 82 c 0,33,34
 35 135 35 135 35 208 c 0,35,36
 35 226 35 226 37 242 c 0,0,1
EndSplineSet
EndChar

StartChar: sterling
Encoding: 163 163 133
Width: 476
Flags: W
LayerCount: 2
Fore
SplineSet
262 26 m 0,0,1
 215 26 215 26 37 -18 c 1,2,-1
 32 82 l 1,3,4
 50 86 50 86 69 91 c 0,5,6
 92 97 92 97 103 107 c 0,7,8
 130 132 130 132 135 179 c 0,9,10
 142 242 142 242 138 293 c 1,11,-1
 71 293 l 1,12,-1
 81 386 l 1,13,-1
 135 386 l 1,14,15
 131 440 131 440 134 467 c 0,16,17
 142 547 142 547 189 599 c 0,18,19
 240 656 240 656 321 656 c 0,20,21
 382 656 382 656 448 615 c 1,22,-1
 396 534 l 1,23,24
 331 568 331 568 317 568 c 0,25,26
 286 568 286 568 261.5 535.5 c 128,-1,27
 237 503 237 503 233 463 c 0,28,29
 232 448 232 448 237 386 c 1,30,-1
 363 386 l 1,31,-1
 353 293 l 1,32,-1
 247 293 l 1,33,34
 247 250 247 250 241 196 c 0,35,36
 236 150 236 150 201 114 c 1,37,38
 239 119 239 119 286 119 c 0,39,40
 347 119 347 119 422 98 c 1,41,-1
 389 -12 l 1,42,43
 376 -8 376 -8 319 13 c 0,44,45
 284 26 284 26 262 26 c 0,0,1
EndSplineSet
EndChar

StartChar: section
Encoding: 167 167 134
Width: 392
Flags: W
LayerCount: 2
Fore
SplineSet
28 -23 m 1,0,-1
 85 56 l 1,1,2
 125 3 125 3 171 3 c 0,3,4
 188 3 188 3 201 15.5 c 128,-1,5
 214 28 214 28 215 38 c 0,6,7
 217 55 217 55 203 62 c 0,8,9
 200 64 200 64 175 71 c 0,10,11
 157 75 157 75 125 87 c 0,12,13
 62 112 62 112 69 183 c 0,14,15
 75 233 75 233 107 267 c 1,16,17
 81 294 81 294 86 340 c 0,18,19
 92 402 92 402 136 437 c 0,20,21
 174 467 174 467 222 466 c 0,22,23
 271 465 271 465 333 422 c 1,24,-1
 291 341 l 1,25,26
 236 381 236 381 211 381 c 0,27,28
 190 381 190 381 183.5 374.5 c 128,-1,29
 177 368 177 368 174 346 c 0,30,31
 173 335 173 335 238 320 c 0,32,33
 331 289 331 289 323 207 c 0,34,35
 317 155 317 155 288 123 c 1,36,37
 311 96 311 96 306 50 c 0,38,39
 300 -17 300 -17 254 -54 c 0,40,41
 213 -87 213 -87 157 -87 c 0,42,43
 84 -87 84 -87 28 -23 c 1,0,-1
158 189 m 0,44,45
 157 182 157 182 190 172 c 2,46,-1
 210 166 l 1,47,48
 230 179 230 179 232 195 c 0,49,50
 233 211 233 211 219 219 c 0,51,52
 214 222 214 222 186 230 c 1,53,54
 162 226 162 226 158 189 c 0,44,45
EndSplineSet
EndChar

StartChar: bullet
Encoding: 258 8226 135
Width: 282
Flags: W
LayerCount: 2
Fore
SplineSet
129 190 m 256,0,1
 91 190 91 190 67 218.5 c 128,-1,2
 43 247 43 247 48 291 c 0,3,4
 53 334 53 334 83 362.5 c 128,-1,5
 113 391 113 391 151 391 c 0,6,7
 188 391 188 391 212 362.5 c 128,-1,8
 236 334 236 334 231 291 c 256,9,10
 226 248 226 248 196.5 219 c 128,-1,11
 167 190 167 190 129 190 c 256,0,1
EndSplineSet
EndChar

StartChar: paragraph
Encoding: 182 182 136
Width: 507
Flags: W
LayerCount: 2
Fore
SplineSet
338 0 m 1,0,-1
 338 642 l 1,1,-1
 437 642 l 1,2,-1
 437 0 l 1,3,-1
 338 0 l 1,0,-1
211 0 m 1,4,-1
 211 317 l 1,5,6
 49 317 49 317 50 483 c 0,7,8
 50 569 50 569 91 607 c 0,9,10
 129 642 129 642 209 642 c 2,11,-1
 310 642 l 1,12,-1
 310 0 l 1,13,-1
 211 0 l 1,4,-1
EndSplineSet
EndChar

StartChar: germandbls
Encoding: 223 223 137
Width: 549
Flags: W
LayerCount: 2
Fore
SplineSet
148 61 m 1,0,-1
 206 140 l 1,1,2
 231 99 231 99 259 88 c 0,3,4
 272 83 272 83 306 83 c 0,5,6
 333 83 333 83 352 106 c 0,7,8
 367 124 367 124 370 149 c 0,9,10
 373 181 373 181 341 200 c 0,11,12
 330 206 330 206 284 222 c 0,13,14
 187 255 187 255 187 357 c 0,15,16
 187 368 187 368 188 379 c 0,17,18
 192 419 192 419 232 464 c 0,19,20
 279 517 279 517 335 517 c 0,21,22
 357 517 357 517 379 508 c 1,23,24
 383 515 383 515 384 535 c 0,25,26
 385 549 385 549 385 563 c 0,27,28
 388 586 388 586 358 600.5 c 128,-1,29
 328 615 328 615 289 615 c 0,30,31
 249 615 249 615 216 582 c 128,-1,32
 183 549 183 549 178 500 c 2,33,-1
 125 -1 l 1,34,-1
 15 -1 l 1,35,-1
 68 500 l 2,36,37
 78 593 78 593 136 651 c 0,38,39
 200 715 200 715 304 715 c 0,40,41
 386 715 386 715 430.5 672 c 128,-1,42
 475 629 475 629 475 554 c 0,43,44
 475 541 475 541 474 527 c 0,45,46
 467 460 467 460 426 401 c 1,47,48
 370 423 370 423 345 423 c 0,49,50
 300 423 300 423 295 374 c 0,51,52
 293 356 293 356 314 345 c 0,53,54
 320 342 320 342 366 327 c 0,55,56
 442 302 442 302 469 249 c 0,57,58
 488 212 488 212 483 155 c 0,59,60
 475 84 475 84 417.5 34.5 c 128,-1,61
 360 -15 360 -15 291 -15 c 0,62,63
 234 -15 234 -15 212 -4 c 0,64,65
 186 9 186 9 148 61 c 1,0,-1
EndSplineSet
EndChar

StartChar: registered
Encoding: 174 174 138
Width: 796
Flags: W
LayerCount: 2
Fore
SplineSet
133 316 m 1,0,-1
 132 316 l 1,1,2
 132 206 132 206 210 128 c 128,-1,3
 288 50 288 50 398 50 c 256,4,5
 508 50 508 50 586 128 c 128,-1,6
 664 206 664 206 664 316 c 256,7,8
 664 426 664 426 586 504 c 128,-1,9
 508 582 508 582 398 582 c 256,10,11
 288 582 288 582 210.5 504 c 128,-1,12
 133 426 133 426 133 316 c 1,0,-1
67 316 m 256,13,14
 67 453 67 453 164 550 c 128,-1,15
 261 647 261 647 398 647 c 256,16,17
 535 647 535 647 632 550 c 128,-1,18
 729 453 729 453 729 316 c 256,19,20
 729 179 729 179 632 82 c 128,-1,21
 535 -15 535 -15 398 -15 c 256,22,23
 261 -15 261 -15 164 82 c 128,-1,24
 67 179 67 179 67 316 c 256,13,14
491 108 m 1,25,26
 457 142 457 142 415 202 c 0,27,28
 388 241 388 241 352 300 c 1,29,-1
 323 299 l 1,30,-1
 323 114 l 1,31,-1
 266 114 l 1,32,-1
 266 524 l 1,33,34
 363 526 363 526 395 526 c 0,35,36
 507 525 507 525 506 413 c 0,37,38
 505 322 505 322 408 304 c 1,39,40
 442 257 442 257 477 211 c 0,41,42
 501 180 501 180 562 121 c 1,43,-1
 491 108 l 1,25,26
379 487 m 2,44,-1
 323 486 l 1,45,-1
 323 342 l 1,46,-1
 365 342 l 2,47,48
 416 342 416 342 437 362 c 0,49,50
 454 380 454 380 454 420 c 0,51,52
 454 488 454 488 379 487 c 2,44,-1
EndSplineSet
EndChar

StartChar: copyright
Encoding: 169 169 139
Width: 796
Flags: W
LayerCount: 2
Fore
SplineSet
396 102 m 0,0,1
 309 102 309 102 260 169 c 0,2,3
 217 228 217 228 217 318 c 0,4,5
 217 403 217 403 261 462 c 0,6,7
 311 529 311 529 398 530 c 0,8,9
 458 530 458 530 519 495 c 1,10,-1
 495 444 l 1,11,12
 436 480 436 480 401 480 c 0,13,14
 337 480 337 480 302 419 c 0,15,16
 275 371 275 371 275 310 c 0,17,18
 275 242 275 242 310 197.5 c 128,-1,19
 345 153 345 153 396 153 c 0,20,21
 449 153 449 153 498 181 c 1,22,-1
 523 139 l 1,23,24
 453 102 453 102 396 102 c 0,0,1
132 316 m 256,25,26
 132 206 132 206 210 128 c 128,-1,27
 288 50 288 50 398 50 c 256,28,29
 508 50 508 50 586 128 c 128,-1,30
 664 206 664 206 664 316 c 256,31,32
 664 426 664 426 586 504 c 128,-1,33
 508 582 508 582 398 582 c 256,34,35
 288 582 288 582 210 504 c 128,-1,36
 132 426 132 426 132 316 c 256,25,26
67 316 m 256,37,38
 67 453 67 453 164 550 c 128,-1,39
 261 647 261 647 398 647 c 256,40,41
 535 647 535 647 632 550 c 128,-1,42
 729 453 729 453 729 316 c 256,43,44
 729 179 729 179 632 82 c 128,-1,45
 535 -15 535 -15 398 -15 c 256,46,47
 261 -15 261 -15 164 82 c 128,-1,48
 67 179 67 179 67 316 c 256,37,38
EndSplineSet
EndChar

StartChar: trademark
Encoding: 259 8482 140
Width: 641
Flags: W
LayerCount: 2
Fore
SplineSet
174 315 m 1,0,-1
 110 315 l 1,1,-1
 110 590 l 1,2,-1
 15 590 l 1,3,-1
 15 642 l 1,4,-1
 263 642 l 1,5,-1
 263 590 l 1,6,-1
 174 590 l 1,7,-1
 174 315 l 1,0,-1
555 514 m 1,8,-1
 479 315 l 1,9,-1
 425 315 l 1,10,-1
 348 516 l 1,11,-1
 348 315 l 1,12,-1
 288 315 l 1,13,-1
 288 644 l 1,14,-1
 366 644 l 1,15,-1
 455 415 l 1,16,-1
 544 644 l 1,17,-1
 619 644 l 1,18,-1
 619 315 l 1,19,-1
 555 315 l 1,20,-1
 555 514 l 1,8,-1
EndSplineSet
EndChar

StartChar: acute
Encoding: 260 180 141
Width: 329
Flags: W
LayerCount: 2
Fore
SplineSet
46 626 m 1,0,-1
 270 715 l 1,1,-1
 294 637 l 1,2,-1
 72 554 l 1,3,-1
 46 626 l 1,0,-1
EndSplineSet
EndChar

StartChar: dieresis
Encoding: 261 168 142
Width: 306
Flags: W
LayerCount: 2
Fore
SplineSet
185 628 m 0,0,1
 188 655 188 655 206 675 c 0,2,3
 228 700 228 700 263 700 c 0,4,5
 296 700 296 700 313 675 c 0,6,7
 328 654 328 654 325 628 c 0,8,9
 322 601 322 601 303 580 c 0,10,11
 280 556 280 556 247 556 c 256,12,13
 214 556 214 556 197 580 c 0,14,15
 182 600 182 600 185 628 c 0,0,1
-25 628 m 0,16,17
 -22 654 -22 654 -3 675 c 0,18,19
 19 700 19 700 53 700 c 0,20,21
 86 700 86 700 103 675 c 0,22,23
 118 654 118 654 115 628 c 0,24,25
 112 601 112 601 93 580 c 0,26,27
 71 556 71 556 37 556 c 0,28,29
 4 556 4 556 -13 580 c 0,30,31
 -28 600 -28 600 -25 628 c 0,16,17
EndSplineSet
EndChar

StartChar: notequal
Encoding: 262 8800 143
Width: 441
Flags: W
LayerCount: 2
Fore
SplineSet
92 12 m 1,0,-1
 129 125 l 1,1,-1
 51 125 l 1,2,-1
 51 223 l 1,3,-1
 161 223 l 1,4,-1
 176 266 l 1,5,-1
 51 266 l 1,6,-1
 51 364 l 1,7,-1
 208 364 l 1,8,-1
 266 539 l 1,9,-1
 355 507 l 1,10,-1
 307 364 l 1,11,-1
 389 364 l 1,12,-1
 389 266 l 1,13,-1
 275 266 l 1,14,-1
 260 223 l 1,15,-1
 389 223 l 1,16,-1
 389 125 l 1,17,-1
 228 125 l 1,18,-1
 180 -20 l 1,19,-1
 92 12 l 1,0,-1
EndSplineSet
EndChar

StartChar: AE
Encoding: 198 198 144
Width: 862
Flags: W
LayerCount: 2
Fore
SplineSet
222 271 m 1,0,-1
 346 271 l 1,1,-1
 306 493 l 1,2,-1
 222 271 l 1,0,-1
572 391 m 1,3,-1
 812 391 l 1,4,-1
 802 292 l 1,5,-1
 562 292 l 1,6,-1
 542 99 l 1,7,-1
 796 99 l 1,8,-1
 785 -1 l 1,9,-1
 400 -1 l 1,10,-1
 365 168 l 1,11,-1
 179 168 l 1,12,-1
 105 -12 l 1,13,-1
 -11 2 l 1,14,-1
 272 654 l 1,15,-1
 376 654 l 1,16,-1
 441 310 l 1,17,-1
 476 641 l 1,18,-1
 856 641 l 1,19,-1
 846 545 l 1,20,-1
 589 545 l 1,21,-1
 572 391 l 1,3,-1
EndSplineSet
EndChar

StartChar: Oslash
Encoding: 216 216 145
Width: 644
Flags: W
LayerCount: 2
Fore
SplineSet
34 322 m 0,0,1
 48 462 48 462 140.5 554 c 128,-1,2
 233 646 233 646 362 646 c 0,3,4
 383 646 383 646 402 643 c 1,5,-1
 420 687 l 1,6,-1
 525 653 l 1,7,-1
 505 604 l 1,8,9
 617 530 617 530 617 367 c 0,10,11
 617 345 617 345 615 322 c 0,12,13
 598 163 598 163 502 71 c 0,14,15
 412 -16 412 -16 285 -16 c 0,16,17
 274 -16 274 -16 254 -14 c 1,18,-1
 230 -74 l 1,19,-1
 125 -40 l 1,20,-1
 149 19 l 1,21,22
 31 91 31 91 31 267 c 0,23,24
 31 294 31 294 34 322 c 0,0,1
295 84 m 1,25,-1
 296 84 l 2,26,27
 385 84 385 84 446 173 c 0,28,29
 501 253 501 253 501 346 c 0,30,31
 501 433 501 433 459 490 c 1,32,-1
 295 84 l 1,25,-1
146 281 m 0,33,34
 146 191 146 191 195 132 c 1,35,-1
 363 547 l 1,36,37
 358 548 358 548 349 548 c 0,38,39
 259 548 259 548 199 457 c 0,40,41
 146 376 146 376 146 281 c 0,33,34
EndSplineSet
EndChar

StartChar: infinity
Encoding: 263 8734 146
Width: 536
Flags: W
LayerCount: 2
Fore
SplineSet
258 304 m 1,0,1
 209 264 209 264 147 264 c 0,2,3
 84 264 84 264 43.5 303 c 128,-1,4
 3 342 3 342 9 398 c 0,5,6
 15 453 15 453 63.5 492 c 128,-1,7
 112 531 112 531 175 531 c 0,8,9
 237 531 237 531 278 492 c 1,10,11
 326 531 326 531 389 531 c 0,12,13
 451 531 451 531 491.5 492 c 128,-1,14
 532 453 532 453 526 398 c 256,15,16
 520 343 520 343 471.5 303.5 c 128,-1,17
 423 264 423 264 361 264 c 0,18,19
 297 264 297 264 258 304 c 1,0,1
312 399 m 0,20,21
 310 376 310 376 326 359.5 c 128,-1,22
 342 343 342 343 369 343 c 256,23,24
 396 343 396 343 416 359.5 c 128,-1,25
 436 376 436 376 438 399 c 0,26,27
 440 421 440 421 423.5 437.5 c 128,-1,28
 407 454 407 454 381 454 c 0,29,30
 354 454 354 454 334 437.5 c 128,-1,31
 314 421 314 421 312 399 c 0,20,21
97 399 m 0,32,33
 94 373 94 373 113 357 c 0,34,35
 129 344 129 344 155 344 c 256,36,37
 181 344 181 344 201 358.5 c 128,-1,38
 221 373 221 373 224 399 c 0,39,40
 226 421 226 421 209.5 437.5 c 128,-1,41
 193 454 193 454 167 454 c 0,42,43
 140 454 140 454 119.5 437.5 c 128,-1,44
 99 421 99 421 97 399 c 0,32,33
EndSplineSet
EndChar

StartChar: plusminus
Encoding: 177 177 147
Width: 501
Flags: W
LayerCount: 2
Fore
SplineSet
295 89 m 1,0,-1
 202 89 l 1,1,-1
 202 260 l 1,2,-1
 52 260 l 1,3,-1
 52 355 l 1,4,-1
 202 355 l 1,5,-1
 202 517 l 1,6,-1
 295 517 l 1,7,-1
 295 355 l 1,8,-1
 446 355 l 1,9,-1
 446 260 l 1,10,-1
 295 260 l 1,11,-1
 295 89 l 1,0,-1
65 49 m 1,12,-1
 441 49 l 1,13,-1
 441 -38 l 1,14,-1
 65 -38 l 1,15,-1
 65 49 l 1,12,-1
EndSplineSet
EndChar

StartChar: lessequal
Encoding: 264 8804 148
Width: 250
Flags: W
LayerCount: 2
Fore
SplineSet
261 116 m 1,0,-1
 159 111 l 1,1,-1
 13 282 l 1,2,-1
 159 448 l 1,3,-1
 261 444 l 1,4,-1
 137 279 l 1,5,-1
 261 116 l 1,0,-1
21 77 m 1,6,-1
 242 77 l 1,7,-1
 242 4 l 1,8,-1
 21 4 l 1,9,-1
 21 77 l 1,6,-1
EndSplineSet
EndChar

StartChar: greaterequal
Encoding: 265 8805 149
Width: 250
Flags: W
LayerCount: 2
Fore
SplineSet
3 116 m 1,0,-1
 126 279 l 1,1,-1
 3 444 l 1,2,-1
 104 448 l 1,3,-1
 250 282 l 1,4,-1
 104 111 l 1,5,-1
 3 116 l 1,0,-1
21 77 m 1,6,-1
 242 77 l 1,7,-1
 242 4 l 1,8,-1
 21 4 l 1,9,-1
 21 77 l 1,6,-1
EndSplineSet
EndChar

StartChar: yen
Encoding: 165 165 150
Width: 531
Flags: W
LayerCount: 2
Fore
SplineSet
189 287 m 1,0,-1
 55 641 l 1,1,-1
 179 641 l 1,2,-1
 265 416 l 1,3,-1
 399 641 l 1,4,-1
 523 641 l 1,5,-1
 314 287 l 1,6,-1
 390 287 l 1,7,-1
 382 204 l 1,8,-1
 303 204 l 1,9,-1
 298 155 l 1,10,-1
 377 155 l 1,11,-1
 368 72 l 1,12,-1
 289 72 l 1,13,-1
 281 2 l 1,14,-1
 162 2 l 1,15,-1
 170 72 l 1,16,-1
 88 72 l 1,17,-1
 97 155 l 1,18,-1
 179 155 l 1,19,-1
 184 204 l 1,20,-1
 102 204 l 1,21,-1
 110 287 l 1,22,-1
 189 287 l 1,0,-1
EndSplineSet
EndChar

StartChar: mu
Encoding: 181 181 151
AltUni2: 0003bc.ffffffff.0
Width: 508
Flags: W
LayerCount: 2
Fore
SplineSet
335 29 m 1,0,-1
 325 19 l 2,1,2
 273 -32 273 -32 226 -32 c 0,3,4
 187 -32 187 -32 155 -10 c 1,5,-1
 135 -196 l 1,6,-1
 32 -196 l 1,7,-1
 104 486 l 1,8,-1
 207 486 l 1,9,-1
 171 144 l 2,10,11
 163 71 163 71 252 71 c 0,12,13
 280 71 280 71 308 98.5 c 128,-1,14
 336 126 336 126 338 149 c 2,15,-1
 374 487 l 1,16,-1
 484 487 l 1,17,-1
 445 117 l 2,18,19
 437 49 437 49 463 31 c 0,20,21
 481 18 481 18 501 -7 c 1,22,-1
 410 -72 l 1,23,24
 349 -34 349 -34 335 29 c 1,0,-1
EndSplineSet
EndChar

StartChar: partialdiff
Encoding: 266 8706 152
Width: 552
Flags: W
LayerCount: 2
Fore
SplineSet
295 508 m 0,0,1
 363 508 363 508 410 452 c 1,2,3
 405 478 405 478 390.5 514.5 c 128,-1,4
 376 551 376 551 363 561 c 0,5,6
 332 586 332 586 271 586 c 0,7,8
 202 586 202 586 124 552 c 1,9,-1
 105 665 l 1,10,11
 187 689 187 689 264 689 c 0,12,13
 371 689 371 689 426 645 c 0,14,15
 512 577 512 577 512 401 c 0,16,17
 512 354 512 354 506 298 c 0,18,19
 473 -17 473 -17 233 -17 c 0,20,21
 136 -17 136 -17 81 53 c 0,22,23
 31 116 31 116 31 208 c 0,24,25
 31 337 31 337 98 419 c 0,26,27
 170 508 170 508 295 508 c 0,0,1
284 416 m 0,28,29
 231 416 231 416 195.5 373.5 c 128,-1,30
 160 331 160 331 152 251 c 0,31,32
 151 237 151 237 151 224 c 0,33,34
 151 163 151 163 178.5 124.5 c 128,-1,35
 206 86 206 86 254 86 c 0,36,37
 380 86 380 86 399 266 c 0,38,39
 403 305 403 305 402 342 c 1,40,41
 355 416 355 416 284 416 c 0,28,29
EndSplineSet
EndChar

StartChar: summation
Encoding: 267 8721 153
Width: 491
Flags: W
LayerCount: 2
Fore
SplineSet
68 91 m 1,0,-1
 283 339 l 1,1,-1
 114 536 l 1,2,-1
 137 633 l 1,3,-1
 481 633 l 1,4,-1
 470 528 l 1,5,-1
 271 528 l 1,6,-1
 425 349 l 1,7,-1
 219 109 l 1,8,-1
 426 110 l 1,9,-1
 415 0 l 1,10,-1
 59 0 l 1,11,-1
 68 91 l 1,0,-1
EndSplineSet
EndChar

StartChar: product
Encoding: 268 8719 154
Width: 595
Flags: W
LayerCount: 2
Fore
SplineSet
354 0 m 1,0,-1
 410 529 l 1,1,-1
 268 529 l 1,2,-1
 212 0 l 1,3,-1
 89 0 l 1,4,-1
 157 642 l 1,5,-1
 545 642 l 1,6,-1
 477 0 l 1,7,-1
 354 0 l 1,0,-1
EndSplineSet
EndChar

StartChar: pi
Encoding: 269 960 155
Width: 518
Flags: W
LayerCount: 2
Fore
SplineSet
362 410 m 1,0,-1
 238 410 l 1,1,-1
 195 0 l 1,2,-1
 79 0 l 1,3,-1
 122 410 l 1,4,-1
 85 410 l 1,5,-1
 96 508 l 1,6,-1
 489 508 l 1,7,-1
 435 0 l 1,8,-1
 319 0 l 1,9,-1
 362 410 l 1,0,-1
EndSplineSet
EndChar

StartChar: integral
Encoding: 270 8747 156
Width: 303
Flags: W
LayerCount: 2
Fore
SplineSet
257 595 m 0,0,1
 204 595 204 595 204 500 c 0,2,3
 204 459 204 459 228 318 c 0,4,5
 251 187 251 187 251 115 c 0,6,7
 251 87 251 87 249 63 c 0,8,9
 240 -21 240 -21 202 -73 c 0,10,11
 154 -140 154 -140 66 -140 c 0,12,13
 45 -140 45 -140 -24 -116 c 1,14,-1
 13 4 l 1,15,16
 58 -24 58 -24 82 -24 c 0,17,18
 122 -24 122 -24 133 79 c 0,19,20
 137 116 137 116 108 273 c 0,21,22
 84 402 84 402 84 475 c 0,23,24
 84 501 84 501 86 524 c 0,25,26
 94 604 94 604 135 654 c 0,27,28
 185 713 185 713 272 713 c 0,29,30
 310 713 310 713 366 677 c 1,31,-1
 303 567 l 1,32,33
 273 595 273 595 257 595 c 0,0,1
EndSplineSet
EndChar

StartChar: Omega
Encoding: 271 937 157
AltUni2: 002126.ffffffff.0
Width: 646
Flags: W
LayerCount: 2
Fore
SplineSet
394 99 m 1,0,-1
 542 99 l 1,1,-1
 532 0 l 1,2,-1
 302 0 l 1,3,-1
 323 203 l 1,4,5
 381 203 381 203 428 254 c 0,6,7
 468 299 468 299 473 347 c 0,8,9
 475 369 475 369 475 389 c 0,10,11
 475 546 475 546 341 547 c 0,12,13
 265 547 265 547 216.5 494.5 c 128,-1,14
 168 442 168 442 158 347 c 0,15,16
 152 295 152 295 179 254 c 0,17,18
 211 203 211 203 278 203 c 1,19,-1
 257 0 l 1,20,-1
 28 0 l 1,21,-1
 38 99 l 1,22,-1
 182 99 l 1,23,-1
 185 125 l 1,24,25
 123 142 123 142 83 204 c 128,-1,26
 43 266 43 266 43 336 c 0,27,28
 43 472 43 472 129 554.5 c 128,-1,29
 215 637 215 637 351 637 c 0,30,31
 593 637 593 637 593 406 c 0,32,33
 593 383 593 383 590 357 c 0,34,35
 582 283 582 283 526 213 c 0,36,37
 467 141 467 141 397 125 c 1,38,-1
 394 99 l 1,0,-1
EndSplineSet
EndChar

StartChar: ae
Encoding: 230 230 158
Width: 775
Flags: W
LayerCount: 2
Fore
SplineSet
560 429 m 0,0,1
 506 429 506 429 478 402 c 0,2,3
 457 382 457 382 435 325 c 1,4,-1
 623 325 l 1,5,-1
 623 326 l 1,6,7
 625 339 625 339 625 351 c 0,8,9
 625 429 625 429 560 429 c 0,0,1
254 -1 m 0,10,11
 213 -16 213 -16 162 -16 c 0,12,13
 105 -16 105 -16 68 18 c 0,14,15
 28 54 28 54 28 116 c 0,16,17
 28 126 28 126 29 136 c 0,18,19
 38 219 38 219 93 257 c 0,20,21
 128 281 128 281 222 303 c 0,22,23
 262 312 262 312 311 319 c 1,24,-1
 316 358 l 2,25,26
 318 379 318 379 301.5 394 c 128,-1,27
 285 409 285 409 260 409 c 0,28,29
 214 409 214 409 123 341 c 1,30,-1
 70 422 l 1,31,32
 115 459 115 459 179 487 c 0,33,34
 239 512 239 512 271 512 c 0,35,36
 361 512 361 512 404 446 c 1,37,38
 474 507 474 507 574 507 c 0,39,40
 645 507 645 507 689 460.5 c 128,-1,41
 733 414 733 414 733 334 c 0,42,43
 733 319 733 319 732 304 c 2,44,-1
 725 239 l 1,45,-1
 425 239 l 1,46,47
 423 220 423 220 423 202 c 0,48,49
 423 68 423 68 532 68 c 0,50,51
 586 68 586 68 653 146 c 1,52,-1
 700 75 l 1,53,54
 621 -12 621 -12 517 -12 c 0,55,56
 403 -12 403 -12 349 58 c 1,57,58
 292 12 292 12 254 -1 c 0,10,11
246 205 m 0,59,60
 191 195 191 195 176 189 c 0,61,62
 140 173 140 173 135 134 c 0,63,64
 129 80 129 80 183 80 c 0,65,66
 216 80 216 80 248 93 c 0,67,68
 290 111 290 111 293 140 c 2,69,-1
 300 214 l 1,70,71
 294 213 294 213 246 205 c 0,59,60
EndSplineSet
EndChar

StartChar: oslash
Encoding: 248 248 159
Width: 546
Flags: W
LayerCount: 2
Fore
SplineSet
447 549 m 1,0,-1
 418 478 l 1,1,2
 509 419 509 419 509 291 c 0,3,4
 509 272 509 272 507 252 c 0,5,6
 498 164 498 164 445 91 c 0,7,8
 371 -11 371 -11 247 -11 c 0,9,10
 229 -11 229 -11 221 -10 c 1,11,-1
 195 -74 l 1,12,-1
 92 -40 l 1,13,-1
 118 25 l 1,14,15
 37 81 37 81 37 215 c 0,16,17
 37 234 37 234 39 252 c 0,18,19
 52 380 52 380 140 452 c 0,20,21
 214 512 214 512 303 512 c 2,22,-1
 314 512 l 1,23,-1
 343 583 l 1,24,-1
 447 549 l 1,0,-1
282 432 m 1,25,26
 228 424 228 424 193 366 c 0,27,28
 161 316 161 316 154 246 c 0,29,30
 148 186 148 186 164 139 c 1,31,-1
 282 432 l 1,25,26
391 251 m 0,32,33
 398 323 398 323 377 375 c 1,34,-1
 252 67 l 1,35,36
 309 68 309 68 348 125 c 0,37,38
 383 177 383 177 391 251 c 0,32,33
EndSplineSet
EndChar

StartChar: questiondown
Encoding: 191 191 160
Width: 459
Flags: W
LayerCount: 2
Fore
SplineSet
171 333 m 0,0,1
 190 390 190 390 191 489 c 1,2,-1
 298 489 l 1,3,4
 299 470 299 470 299 451 c 0,5,6
 299 259 299 259 197 173 c 0,7,8
 150 133 150 133 149 133 c 1,9,10
 122 106 122 106 119 80 c 0,11,12
 115 44 115 44 133.5 24 c 128,-1,13
 152 4 152 4 183 4 c 0,14,15
 255 4 255 4 299 109 c 1,16,-1
 389 59 l 1,17,18
 347 -25 347 -25 299 -63 c 0,19,20
 247 -103 247 -103 176 -103 c 0,21,22
 92 -103 92 -103 46 -43 c 0,23,24
 5 11 5 11 12 81 c 0,25,26
 23 183 23 183 105 241 c 0,27,28
 150 273 150 273 171 333 c 0,0,1
329 608 m 0,29,30
 325 577 325 577 302.5 555.5 c 128,-1,31
 280 534 280 534 251 534 c 256,32,33
 222 534 222 534 203 555.5 c 128,-1,34
 184 577 184 577 188 608 c 0,35,36
 191 638 191 638 214 659.5 c 128,-1,37
 237 681 237 681 266 681 c 0,38,39
 296 681 296 681 314 660 c 128,-1,40
 332 639 332 639 329 608 c 0,29,30
EndSplineSet
EndChar

StartChar: exclamdown
Encoding: 161 161 161
Width: 235
Flags: W
LayerCount: 2
Fore
SplineSet
192 501 m 1,0,-1
 128 -103 l 1,1,-1
 4 -103 l 1,2,-1
 68 501 l 1,3,-1
 192 501 l 1,0,-1
227 649 m 0,4,5
 224 617 224 617 199 594 c 128,-1,6
 174 571 174 571 141 571 c 0,7,8
 110 571 110 571 89.5 594 c 128,-1,9
 69 617 69 617 72 649 c 0,10,11
 76 681 76 681 101 703.5 c 128,-1,12
 126 726 126 726 158 726 c 256,13,14
 190 726 190 726 210.5 703.5 c 128,-1,15
 231 681 231 681 227 649 c 0,4,5
EndSplineSet
EndChar

StartChar: logicalnot
Encoding: 172 172 162
Width: 613
Flags: W
LayerCount: 2
Fore
SplineSet
443 225 m 1,0,-1
 88 225 l 1,1,-1
 88 343 l 1,2,-1
 558 343 l 1,3,-1
 558 28 l 1,4,-1
 443 28 l 1,5,-1
 443 225 l 1,0,-1
EndSplineSet
EndChar

StartChar: radical
Encoding: 272 8730 163
Width: 503
Flags: W
LayerCount: 2
Fore
SplineSet
135 -10 m 1,0,-1
 51 308 l 1,1,-1
 152 364 l 1,2,-1
 178 224 l 1,3,-1
 257 639 l 1,4,-1
 363 639 l 1,5,-1
 231 -10 l 1,6,-1
 135 -10 l 1,0,-1
EndSplineSet
EndChar

StartChar: florin
Encoding: 273 402 164
Width: 361
Flags: W
LayerCount: 2
Fore
SplineSet
267 606 m 0,0,1
 217 606 217 606 208 499 c 1,2,-1
 334 499 l 1,3,-1
 325 399 l 1,4,-1
 202 399 l 1,5,-1
 156 -122 l 1,6,-1
 48 -123 l 1,7,-1
 95 397 l 1,8,-1
 23 396 l 1,9,-1
 33 497 l 1,10,-1
 103 498 l 1,11,12
 124 709 124 709 273 711 c 0,13,14
 319 711 319 711 348 697 c 0,15,16
 353 694 353 694 410 654 c 1,17,-1
 351 570 l 1,18,19
 296 606 296 606 267 606 c 0,0,1
EndSplineSet
EndChar

StartChar: approxequal
Encoding: 274 8776 165
AltUni2: 0022f2.ffffffff.0
Width: 536
Flags: W
LayerCount: 2
Fore
SplineSet
267 285 m 0,0,1
 243 306 243 306 233 306 c 0,2,3
 221 306 221 306 206 291 c 0,4,5
 199 284 199 284 164 238 c 1,6,-1
 137 336 l 1,7,8
 195 397 195 397 245 397 c 0,9,10
 278 397 278 397 307.5 375.5 c 128,-1,11
 337 354 337 354 343 354 c 0,12,13
 348 354 348 354 372 378 c 0,14,15
 396 402 l 1,16,-1
 424 307 l 1,17,18
 371 257 371 257 326 257 c 0,19,20
 298 257 298 257 267 285 c 0,0,1
248 107 m 0,21,22
 223 128 223 128 214 128 c 0,23,24
 202 128 202 128 188 113 c 0,25,26
 180 105 180 105 145 61 c 1,27,-1
 118 158 l 1,28,29
 176 219 176 219 227 219 c 0,30,31
 259 219 259 219 288.5 198 c 128,-1,32
 318 177 318 177 324 177 c 0,33,34
 329 177 329 177 353 200 c 0,35,36
 377 224 l 1,37,-1
 405 129 l 1,38,39
 352 79 352 79 307 79 c 0,40,41
 281 79 281 79 248 107 c 0,21,22
EndSplineSet
EndChar

StartChar: Delta
Encoding: 275 916 166
AltUni2: 002206.ffffffff.0
Width: 689
Flags: W
LayerCount: 2
Fore
SplineSet
355 657 m 1,0,-1
 461 657 l 1,1,-1
 614 0 l 1,2,-1
 42 0 l 1,3,-1
 355 657 l 1,0,-1
210 90 m 1,4,-1
 467 90 l 1,5,-1
 389 490 l 1,6,-1
 210 90 l 1,4,-1
EndSplineSet
EndChar

StartChar: guillemotleft
Encoding: 171 171 167
Width: 390
Flags: W
LayerCount: 2
Fore
SplineSet
419 126 m 1,0,-1
 312 122 l 1,1,-1
 156 289 l 1,2,-1
 312 451 l 1,3,-1
 419 447 l 1,4,-1
 288 286 l 1,5,-1
 419 126 l 1,0,-1
261 126 m 1,6,-1
 154 122 l 1,7,-1
 -1 289 l 1,8,-1
 154 451 l 1,9,-1
 261 447 l 1,10,-1
 131 286 l 1,11,-1
 261 126 l 1,6,-1
EndSplineSet
EndChar

StartChar: guillemotright
Encoding: 187 187 168
Width: 393
Flags: W
LayerCount: 2
Fore
SplineSet
141 126 m 1,0,-1
 273 286 l 1,1,-1
 141 447 l 1,2,-1
 250 451 l 1,3,-1
 404 289 l 1,4,-1
 250 122 l 1,5,-1
 141 126 l 1,0,-1
-17 126 m 1,6,-1
 115 286 l 1,7,-1
 -16 447 l 1,8,-1
 92 451 l 1,9,-1
 246 289 l 1,10,-1
 92 122 l 1,11,-1
 -17 126 l 1,6,-1
EndSplineSet
EndChar

StartChar: ellipsis
Encoding: 276 8230 169
Width: 900
Flags: W
LayerCount: 2
Fore
SplineSet
603 53 m 0,0,1
 607 95 607 95 637 120 c 0,2,3
 664 142 664 142 699 142 c 0,4,5
 735 142 735 142 757.5 118.5 c 128,-1,6
 780 95 780 95 776 53 c 0,7,8
 772 12 772 12 744 -12 c 128,-1,9
 716 -36 716 -36 681 -36 c 0,10,11
 645 -36 645 -36 622 -12 c 128,-1,12
 599 12 599 12 603 53 c 0,0,1
364 53 m 0,13,14
 368 95 368 95 398 120 c 0,15,16
 425 142 425 142 460 142 c 0,17,18
 496 142 496 142 518.5 118.5 c 128,-1,19
 541 95 541 95 537 53 c 0,20,21
 533 12 533 12 505 -12 c 128,-1,22
 477 -36 477 -36 442 -36 c 0,23,24
 406 -36 406 -36 383 -12 c 128,-1,25
 360 12 360 12 364 53 c 0,13,14
125 53 m 0,26,27
 129 95 129 95 159 120 c 0,28,29
 186 142 186 142 221 142 c 0,30,31
 257 142 257 142 279.5 118.5 c 128,-1,32
 302 95 302 95 298 53 c 0,33,34
 294 12 294 12 266 -12 c 128,-1,35
 238 -36 238 -36 203 -36 c 0,36,37
 167 -36 167 -36 144 -12 c 128,-1,38
 121 12 121 12 125 53 c 0,26,27
EndSplineSet
EndChar

StartChar: Agrave
Encoding: 192 192 171
Width: 580
Flags: W
LayerCount: 2
Fore
SplineSet
351 168 m 1,0,-1
 170 168 l 1,1,-1
 97 -12 l 1,2,-1
 -14 2 l 1,3,-1
 261 654 l 1,4,-1
 363 654 l 1,5,-1
 506 7 l 1,6,-1
 388 -12 l 1,7,-1
 351 168 l 1,0,-1
207 261 m 1,8,-1
 334 261 l 1,9,-1
 294 483 l 1,10,-1
 207 261 l 1,8,-1
394 686 m 1,11,-1
 194 776 l 1,12,-1
 248 841 l 1,13,-1
 448 745 l 1,14,-1
 394 686 l 1,11,-1
EndSplineSet
EndChar

StartChar: Atilde
Encoding: 195 195 172
Width: 580
Flags: W
LayerCount: 2
Fore
SplineSet
352 168 m 1,0,-1
 171 168 l 1,1,-1
 98 -12 l 1,2,-1
 -14 2 l 1,3,-1
 262 654 l 1,4,-1
 364 654 l 1,5,-1
 507 7 l 1,6,-1
 389 -12 l 1,7,-1
 352 168 l 1,0,-1
208 261 m 1,8,-1
 335 261 l 1,9,-1
 295 483 l 1,10,-1
 208 261 l 1,8,-1
312 719 m 0,11,12
 278 742 278 742 270 742 c 0,13,14
 245 742 245 742 199 695 c 1,15,-1
 169 773 l 1,16,17
 213 823 213 823 279 825 c 0,18,19
 310 826 310 826 345.5 799 c 128,-1,20
 381 772 381 772 391 772 c 0,21,22
 405 772 405 772 446 803 c 1,23,-1
 475 727 l 1,24,25
 457 711 457 711 428.5 700 c 128,-1,26
 400 689 400 689 385 689 c 0,27,28
 355 689 355 689 312 719 c 0,11,12
EndSplineSet
EndChar

StartChar: Otilde
Encoding: 213 213 173
Width: 648
Flags: W
LayerCount: 2
Fore
SplineSet
29 322 m 0,0,1
 44 462 44 462 136.5 554 c 128,-1,2
 229 646 229 646 357 646 c 0,3,4
 474 646 474 646 543.5 568 c 128,-1,5
 613 490 613 490 613 367 c 0,6,7
 613 345 613 345 610 322 c 0,8,9
 594 163 594 163 498 71 c 0,10,11
 408 -16 408 -16 281 -16 c 0,12,13
 167 -16 167 -16 98 57 c 0,14,15
 26 133 26 133 26 267 c 0,16,17
 26 294 26 294 29 322 c 0,0,1
142 281 m 0,18,19
 142 197 142 197 184 140.5 c 128,-1,20
 226 84 226 84 291 84 c 0,21,22
 381 84 381 84 442 173 c 0,23,24
 497 253 497 253 497 346 c 0,25,26
 497 432 497 432 455 490 c 128,-1,27
 413 548 413 548 345 548 c 0,28,29
 255 548 255 548 195 456 c 0,30,31
 142 375 142 375 142 281 c 0,18,19
332 699 m 0,32,33
 299 722 299 722 290 722 c 0,34,35
 265 722 265 722 219 675 c 1,36,-1
 189 753 l 1,37,38
 233 803 233 803 299 805 c 0,39,40
 330 806 330 806 365.5 779 c 128,-1,41
 401 752 401 752 412 752 c 0,42,43
 425 752 425 752 466 783 c 1,44,-1
 495 707 l 1,45,46
 477 691 477 691 448.5 680 c 128,-1,47
 420 669 420 669 405 669 c 0,48,49
 376 669 376 669 332 699 c 0,32,33
EndSplineSet
EndChar

StartChar: OE
Encoding: 188 338 174
Width: 1028
Flags: W
LayerCount: 2
Fore
SplineSet
567 157 m 1,0,1
 454 -3 454 -3 301 -3 c 0,2,3
 185 -3 185 -3 114 73 c 0,4,5
 40 150 40 150 40 286 c 0,6,7
 40 312 40 312 43 340 c 0,8,9
 58 480 58 480 151 568.5 c 128,-1,10
 244 657 244 657 377 657 c 0,11,12
 526 657 526 657 604 510 c 1,13,-1
 618 639 l 1,14,-1
 997 639 l 1,15,-1
 986 534 l 1,16,-1
 699 534 l 1,17,-1
 684 390 l 1,18,-1
 962 390 l 1,19,-1
 951 291 l 1,20,-1
 673 291 l 1,21,-1
 654 107 l 1,22,-1
 941 107 l 1,23,-1
 930 0 l 1,24,-1
 551 0 l 1,25,-1
 567 157 l 1,0,1
160 299 m 0,26,27
 160 214 160 214 203 156 c 128,-1,28
 246 98 246 98 312 98 c 0,29,30
 402 98 402 98 464 189 c 0,31,32
 520 270 520 270 520 364 c 0,33,34
 520 449 520 449 478 503.5 c 128,-1,35
 436 558 436 558 365 558 c 0,36,37
 273 558 273 558 213 472 c 0,38,39
 160 395 160 395 160 299 c 0,26,27
EndSplineSet
EndChar

StartChar: oe
Encoding: 189 339 175
Width: 1033
Flags: W
LayerCount: 2
Fore
SplineSet
207 217 m 0,0,1
 207 156 207 156 232 118 c 0,2,3
 260 76 260 76 312 76 c 0,4,5
 382 76 382 76 422 147 c 0,6,7
 456 206 456 206 456 282 c 0,8,9
 456 344 456 344 432 381 c 0,10,11
 406 423 406 423 357 423 c 0,12,13
 284 423 284 423 242 353 c 0,14,15
 207 295 207 295 207 217 c 0,0,1
717 68 m 0,16,17
 787 68 787 68 851 148 c 1,18,-1
 905 68 l 1,19,20
 810 -12 810 -12 701 -12 c 0,21,22
 621 -12 621 -12 576 25 c 0,23,24
 544 52 544 52 523 109 c 1,25,26
 446 -11 446 -11 307 -11 c 0,27,28
 182 -11 182 -11 127 70 c 0,29,30
 87 128 87 128 87 217 c 0,31,32
 87 235 87 235 89 252 c 0,33,34
 103 380 103 380 194 452 c 0,35,36
 270 512 270 512 363 512 c 0,37,38
 422 512 422 512 473 483 c 0,39,40
 531 451 531 451 558 390 c 1,41,42
 634 507 634 507 770 507 c 0,43,44
 841 507 841 507 885 466 c 0,45,46
 932 421 932 421 932 342 c 0,47,48
 932 328 932 328 931 313 c 2,49,-1
 923 238 l 1,50,-1
 628 238 l 1,51,52
 625 205 625 205 625 194 c 0,53,54
 625 68 625 68 717 68 c 0,16,17
828 323 m 1,55,56
 830 363 830 363 814 393 c 0,57,58
 795 429 795 429 755 429 c 0,59,60
 668 429 668 429 650 323 c 1,61,-1
 828 323 l 1,55,56
EndSplineSet
EndChar

StartChar: endash
Encoding: 277 8211 176
Width: 500
Flags: W
LayerCount: 2
Fore
SplineSet
34 363 m 1,0,-1
 466 363 l 1,1,-1
 466 292 l 1,2,-1
 34 292 l 1,3,-1
 34 363 l 1,0,-1
EndSplineSet
EndChar

StartChar: emdash
Encoding: 278 8212 177
Width: 1000
Flags: W
LayerCount: 2
Fore
SplineSet
27 363 m 1,0,-1
 973 363 l 1,1,-1
 973 292 l 1,2,-1
 27 292 l 1,3,-1
 27 363 l 1,0,-1
EndSplineSet
EndChar

StartChar: quotedblleft
Encoding: 279 8220 178
Width: 429
Flags: W
LayerCount: 2
Fore
SplineSet
331 675 m 1,0,-1
 396 672 l 1,1,2
 373 631 373 631 361 579 c 0,3,4
 359 569 359 569 346 493 c 1,5,-1
 241 493 l 1,6,7
 246 529 246 529 275 587 c 0,8,9
 302 640 302 640 331 675 c 1,0,-1
131 675 m 1,10,-1
 196 672 l 1,11,12
 173 631 173 631 161 579 c 0,13,14
 159 569 159 569 146 493 c 1,15,-1
 41 493 l 1,16,17
 46 529 46 529 75 587 c 0,18,19
 102 640 102 640 131 675 c 1,10,-1
EndSplineSet
EndChar

StartChar: quotedblright
Encoding: 280 8221 179
Width: 429
Flags: W
LayerCount: 2
Fore
SplineSet
107 483 m 1,0,-1
 42 496 l 1,1,2
 66 537 66 537 78 589 c 0,3,4
 80 599 80 599 92 675 c 1,5,-1
 197 675 l 1,6,7
 193 639 193 639 163 576 c 0,8,9
 134 517 134 517 107 483 c 1,0,-1
307 483 m 1,10,-1
 242 496 l 1,11,12
 266 537 266 537 278 589 c 0,13,14
 280 599 280 599 292 675 c 1,15,-1
 397 675 l 1,16,17
 393 639 393 639 363 576 c 0,18,19
 334 517 334 517 307 483 c 1,10,-1
EndSplineSet
EndChar

StartChar: quoteleft
Encoding: 281 8216 180
Width: 138
Flags: W
LayerCount: 2
Fore
SplineSet
81 675 m 1,0,-1
 146 672 l 1,1,2
 123 631 123 631 111 579 c 0,3,4
 109 569 109 569 96 493 c 1,5,-1
 -9 493 l 1,6,7
 -4 529 -4 529 25 587 c 0,8,9
 52 640 52 640 81 675 c 1,0,-1
EndSplineSet
EndChar

StartChar: quoteright
Encoding: 282 8217 181
Width: 138
Flags: W
LayerCount: 2
Fore
SplineSet
57 493 m 1,0,-1
 -8 506 l 1,1,2
 16 547 16 547 28 599 c 0,3,4
 30 609 30 609 42 685 c 1,5,-1
 147 685 l 1,6,7
 143 649 143 649 113 586 c 0,8,9
 84 527 84 527 57 493 c 1,0,-1
EndSplineSet
EndChar

StartChar: divide
Encoding: 247 247 182
Width: 496
Flags: W
LayerCount: 2
Fore
SplineSet
190 480 m 0,0,1
 190 513 190 513 211 536 c 128,-1,2
 232 559 232 559 262 559 c 0,3,4
 293 559 293 559 314 536 c 128,-1,5
 335 513 335 513 335 480 c 0,6,7
 335 448 335 448 314 425 c 128,-1,8
 293 402 293 402 262 402 c 0,9,10
 232 402 232 402 211 425 c 128,-1,11
 190 448 190 448 190 480 c 0,0,1
52 360 m 1,12,-1
 456 360 l 1,13,-1
 456 260 l 1,14,-1
 52 260 l 1,15,-1
 52 360 l 1,12,-1
190 142 m 0,16,17
 190 174 190 174 211 197 c 128,-1,18
 232 220 232 220 262 220 c 0,19,20
 293 220 293 220 314 197 c 128,-1,21
 335 174 335 174 335 142 c 0,22,23
 335 109 335 109 314 86 c 128,-1,24
 293 63 293 63 262 63 c 0,25,26
 232 63 232 63 211 86 c 128,-1,27
 190 109 190 109 190 142 c 0,16,17
EndSplineSet
EndChar

StartChar: lozenge
Encoding: 283 9674 183
Width: 576
Flags: W
LayerCount: 2
Fore
SplineSet
12 333 m 1,0,-1
 275 589 l 1,1,-1
 537 333 l 1,2,-1
 275 78 l 1,3,-1
 12 333 l 1,0,-1
159 332 m 1,4,-1
 278 217 l 1,5,-1
 396 332 l 1,6,-1
 278 448 l 1,7,-1
 159 332 l 1,4,-1
EndSplineSet
EndChar

StartChar: ydieresis
Encoding: 255 255 184
Width: 467
Flags: W
LayerCount: 2
Fore
SplineSet
73 -196 m 0,0,1
 48 -196 48 -196 -21 -172 c 1,2,-1
 21 -77 l 1,3,4
 56 -97 56 -97 89 -97 c 0,5,6
 119 -97 119 -97 150 -39 c 0,7,8
 169 5 169 5 188 48 c 1,9,-1
 53 473 l 1,10,-1
 162 503 l 1,11,-1
 250 137 l 1,12,-1
 397 501 l 1,13,-1
 494 476 l 1,14,-1
 237 -78 l 2,15,16
 215 -125 215 -125 176 -157 c 0,17,18
 129 -196 129 -196 73 -196 c 0,0,1
311 598 m 0,19,20
 314 624 314 624 333 645 c 0,21,22
 355 670 355 670 389 670 c 0,23,24
 422 670 422 670 439 645 c 0,25,26
 454 624 454 624 451 598 c 0,27,28
 448 571 448 571 429 550 c 0,29,30
 407 526 407 526 373 526 c 256,31,32
 339 526 339 526 323 550 c 0,33,34
 308 570 308 570 311 598 c 0,19,20
102 598 m 0,35,36
 105 625 105 625 123 645 c 0,37,38
 145 670 145 670 180 670 c 0,39,40
 212 670 212 670 229 645 c 0,41,42
 244 624 244 624 241 598 c 0,43,44
 238 571 238 571 219 550 c 0,45,46
 197 526 197 526 164 526 c 0,47,48
 130 526 130 526 113 550 c 0,49,50
 99 570 99 570 102 598 c 0,35,36
EndSplineSet
EndChar

StartChar: Ydieresis
Encoding: 190 376 185
Width: 482
Flags: W
LayerCount: 2
Fore
SplineSet
272 0 m 1,0,-1
 153 0 l 1,1,-1
 182 271 l 1,2,-1
 48 621 l 1,3,-1
 161 654 l 1,4,-1
 255 375 l 1,5,-1
 405 654 l 1,6,-1
 508 621 l 1,7,-1
 301 271 l 1,8,-1
 272 0 l 1,0,-1
342 758 m 0,9,10
 345 785 345 785 363 805 c 0,11,12
 385 830 385 830 420 830 c 0,13,14
 452 830 452 830 470 805 c 0,15,16
 485 784 485 784 482 758 c 0,17,18
 479 731 479 731 460 710 c 0,19,20
 437 686 437 686 404 686 c 0,21,22
 370 686 370 686 353 710 c 0,23,24
 339 730 339 730 342 758 c 0,9,10
132 758 m 0,25,26
 135 785 135 785 153 805 c 0,27,28
 175 830 175 830 210 830 c 0,29,30
 243 830 243 830 260 805 c 0,31,32
 275 784 275 784 272 758 c 0,33,34
 269 731 269 731 250 710 c 0,35,36
 228 686 228 686 194 686 c 0,37,38
 161 686 161 686 144 710 c 0,39,40
 129 730 129 730 132 758 c 0,25,26
EndSplineSet
EndChar

StartChar: fraction
Encoding: 284 8260 186
Width: 537
Flags: W
LayerCount: 2
Fore
SplineSet
32 126 m 1,0,-1
 444 594 l 1,1,-1
 541 528 l 1,2,-1
 129 60 l 1,3,-1
 32 126 l 1,0,-1
EndSplineSet
EndChar

StartChar: currency
Encoding: 285 164 187
Width: 489
Flags: W
LayerCount: 2
Fore
SplineSet
247 349 m 1,0,-1
 242 304 l 1,1,-1
 404 304 l 1,2,-1
 396 226 l 1,3,-1
 234 226 l 1,4,-1
 222 109 l 1,5,-1
 397 110 l 1,6,-1
 385 0 l 1,7,-1
 93 0 l 1,8,-1
 117 226 l 1,9,-1
 26 226 l 1,10,-1
 34 304 l 1,11,-1
 125 304 l 1,12,-1
 130 350 l 1,13,-1
 39 350 l 1,14,-1
 48 437 l 1,15,-1
 139 437 l 1,16,-1
 161 640 l 1,17,-1
 456 640 l 1,18,-1
 445 535 l 1,19,-1
 267 535 l 1,20,-1
 256 437 l 1,21,-1
 418 437 l 1,22,-1
 409 349 l 1,23,-1
 247 349 l 1,0,-1
EndSplineSet
EndChar

StartChar: guilsinglleft
Encoding: 286 8249 188
Width: 319
Flags: W
LayerCount: 2
Fore
SplineSet
297 126 m 1,0,-1
 195 122 l 1,1,-1
 49 289 l 1,2,-1
 195 451 l 1,3,-1
 297 447 l 1,4,-1
 173 286 l 1,5,-1
 297 126 l 1,0,-1
EndSplineSet
EndChar

StartChar: guilsinglright
Encoding: 287 8250 189
Width: 317
Flags: W
LayerCount: 2
Fore
SplineSet
30 126 m 1,0,-1
 153 286 l 1,1,-1
 30 447 l 1,2,-1
 131 451 l 1,3,-1
 277 289 l 1,4,-1
 131 122 l 1,5,-1
 30 126 l 1,0,-1
EndSplineSet
EndChar

StartChar: fi
Encoding: 288 61441 190
Width: 484
Flags: W
LayerCount: 2
Fore
SplineSet
277 657 m 0,0,1
 219 658 219 658 207 498 c 1,2,-1
 445 498 l 1,3,-1
 393 0 l 1,4,-1
 282 0 l 1,5,-1
 325 408 l 1,6,-1
 197 408 l 1,7,-1
 154 0 l 1,8,-1
 49 0 l 1,9,-1
 92 408 l 1,10,-1
 22 408 l 1,11,-1
 31 498 l 1,12,-1
 101 498 l 1,13,-1
 107 552 l 2,14,15
 114 621 114 621 149 674 c 0,16,17
 198 748 198 748 286 748 c 0,18,19
 333 748 333 748 361 735 c 1,20,21
 365 732 365 732 421 694 c 1,22,-1
 357 621 l 1,23,24
 308 656 308 656 277 657 c 0,0,1
EndSplineSet
EndChar

StartChar: fl
Encoding: 289 61442 191
Width: 529
Flags: W
LayerCount: 2
Fore
SplineSet
385 640 m 1,0,-1
 391 699 l 1,1,-1
 501 699 l 1,2,-1
 427 1 l 1,3,-1
 317 1 l 1,4,-1
 378 582 l 1,5,6
 340 628 340 628 276 628 c 0,7,8
 221 628 221 628 214 559 c 2,9,-1
 208 498 l 1,10,-1
 297 498 l 1,11,-1
 287 408 l 1,12,-1
 198 408 l 1,13,-1
 155 0 l 1,14,-1
 50 0 l 1,15,-1
 93 408 l 1,16,-1
 23 408 l 1,17,-1
 33 498 l 1,18,-1
 103 498 l 1,19,-1
 105 522 l 2,20,21
 126 718 126 718 265 718 c 0,22,23
 324 718 324 718 385 640 c 1,0,-1
EndSplineSet
EndChar

StartChar: daggerdbl
Encoding: 290 8225 192
Width: 221
Flags: W
LayerCount: 2
Fore
SplineSet
141 383 m 1,0,-1
 141 245 l 1,1,-1
 64 245 l 1,2,-1
 64 383 l 1,3,-1
 4 383 l 1,4,-1
 4 442 l 1,5,-1
 64 442 l 1,6,-1
 64 522 l 1,7,-1
 4 522 l 1,8,-1
 4 580 l 1,9,-1
 64 580 l 1,10,-1
 64 655 l 1,11,-1
 141 655 l 1,12,-1
 141 580 l 1,13,-1
 203 580 l 1,14,-1
 203 522 l 1,15,-1
 141 522 l 1,16,-1
 141 442 l 1,17,-1
 203 442 l 1,18,-1
 203 383 l 1,19,-1
 141 383 l 1,0,-1
EndSplineSet
EndChar

StartChar: periodcentered
Encoding: 183 183 193
AltUni2: 002219.ffffffff.0
Width: 236
Flags: W
LayerCount: 2
Fore
SplineSet
41 413 m 256,0,1
 45 453 45 453 73.5 482.5 c 128,-1,2
 102 512 102 512 138 512 c 0,3,4
 175 512 175 512 196.5 483 c 128,-1,5
 218 454 218 454 214 413 c 0,6,7
 210 373 210 373 182 343.5 c 128,-1,8
 154 314 154 314 118 314 c 0,9,10
 81 314 81 314 59 343.5 c 128,-1,11
 37 373 37 373 41 413 c 256,0,1
EndSplineSet
EndChar

StartChar: quotesinglbase
Encoding: 291 8218 194
Width: 214
Flags: W
LayerCount: 2
Fore
SplineSet
57 -107 m 1,0,-1
 -8 -94 l 1,1,2
 16 -53 16 -53 28 -1 c 0,3,4
 30 9 30 9 42 85 c 1,5,-1
 147 85 l 1,6,7
 143 49 143 49 113 -14 c 0,8,9
 84 -73 84 -73 57 -107 c 1,0,-1
EndSplineSet
EndChar

StartChar: quotedblbase
Encoding: 292 8222 195
Width: 417
Flags: W
LayerCount: 2
Fore
SplineSet
107 -117 m 1,0,-1
 42 -104 l 1,1,2
 66 -63 66 -63 78 -11 c 0,3,4
 80 -1 80 -1 92 75 c 1,5,-1
 197 75 l 1,6,7
 193 39 193 39 163 -24 c 0,8,9
 134 -83 134 -83 107 -117 c 1,0,-1
307 -117 m 1,10,-1
 242 -104 l 1,11,12
 266 -63 266 -63 278 -11 c 0,13,14
 280 -1 280 -1 292 75 c 1,15,-1
 397 75 l 1,16,17
 393 39 393 39 363 -24 c 0,18,19
 334 -83 334 -83 307 -117 c 1,10,-1
EndSplineSet
EndChar

StartChar: perthousand
Encoding: 293 8240 196
Width: 886
Flags: W
LayerCount: 2
Fore
SplineSet
717 256 m 0,0,1
 769 256 769 256 799.5 218 c 128,-1,2
 830 180 830 180 824 124 c 0,3,4
 817 59 817 59 780 24.5 c 128,-1,5
 743 -10 743 -10 689 -10 c 0,6,7
 640 -10 640 -10 610 19.5 c 128,-1,8
 580 49 580 49 580 103 c 0,9,10
 580 164 580 164 618.5 210 c 128,-1,11
 657 256 657 256 717 256 c 0,0,1
181 650 m 0,12,13
 235 650 235 650 265.5 612.5 c 128,-1,14
 296 575 296 575 290 518 c 0,15,16
 283 455 283 455 245 420 c 128,-1,17
 207 385 207 385 154 385 c 0,18,19
 105 385 105 385 75 414.5 c 128,-1,20
 45 444 45 444 45 497 c 0,21,22
 45 559 45 559 83 604.5 c 128,-1,23
 121 650 121 650 181 650 c 0,12,13
453 256 m 0,24,25
 505 256 505 256 535.5 218 c 128,-1,26
 566 180 566 180 560 124 c 0,27,28
 553 59 553 59 516 24.5 c 128,-1,29
 479 -10 479 -10 425 -10 c 0,30,31
 375 -10 375 -10 345 19.5 c 128,-1,32
 315 49 315 49 315 103 c 0,33,34
 315 164 315 164 353.5 210 c 128,-1,35
 392 256 392 256 453 256 c 0,24,25
-12 -46 m 1,36,-1
 439 634 l 1,37,-1
 537 596 l 1,38,-1
 93 -82 l 1,39,-1
 -12 -46 l 1,36,-1
678 121 m 0,40,41
 673 79 673 79 698 79 c 256,42,43
 723 79 723 79 728 121 c 0,44,45
 729 134 729 134 724 149.5 c 128,-1,46
 719 165 719 165 706 165 c 0,47,48
 682 165 682 165 678 121 c 0,40,41
142 515 m 0,49,50
 138 474 138 474 163 474 c 256,51,52
 188 474 188 474 192 515 c 0,53,54
 197 559 197 559 171 559 c 0,55,56
 147 559 147 559 142 515 c 0,49,50
414 121 m 0,57,58
 409 79 409 79 434 79 c 256,59,60
 459 79 459 79 464 121 c 0,61,62
 465 134 465 134 460 149.5 c 128,-1,63
 455 165 455 165 442 165 c 0,64,65
 418 165 418 165 414 121 c 0,57,58
EndSplineSet
EndChar

StartChar: Acircumflex
Encoding: 194 194 197
Width: 568
Flags: W
LayerCount: 2
Fore
SplineSet
350 168 m 1,0,-1
 169 168 l 1,1,-1
 96 -12 l 1,2,-1
 -16 2 l 1,3,-1
 260 654 l 1,4,-1
 362 654 l 1,5,-1
 505 7 l 1,6,-1
 387 -12 l 1,7,-1
 350 168 l 1,0,-1
206 261 m 1,8,-1
 333 261 l 1,9,-1
 293 483 l 1,10,-1
 206 261 l 1,8,-1
171 661 m 1,11,-1
 181 759 l 1,12,-1
 329 865 l 1,13,-1
 460 759 l 1,14,-1
 450 662 l 1,15,-1
 318 749 l 1,16,-1
 171 661 l 1,11,-1
EndSplineSet
EndChar

StartChar: Ecircumflex
Encoding: 202 202 198
Width: 489
Flags: W
LayerCount: 2
Fore
SplineSet
180 391 m 1,0,-1
 406 391 l 1,1,-1
 396 292 l 1,2,-1
 170 293 l 1,3,-1
 150 109 l 1,4,-1
 391 110 l 1,5,-1
 379 0 l 1,6,-1
 22 0 l 1,7,-1
 89 640 l 1,8,-1
 448 640 l 1,9,-1
 437 535 l 1,10,-1
 195 535 l 1,11,-1
 180 391 l 1,0,-1
151 681 m 1,12,-1
 160 769 l 1,13,-1
 309 875 l 1,14,-1
 440 769 l 1,15,-1
 431 682 l 1,16,-1
 297 759 l 1,17,-1
 151 681 l 1,12,-1
EndSplineSet
EndChar

StartChar: Aacute
Encoding: 193 193 199
Width: 568
Flags: W
LayerCount: 2
Fore
SplineSet
351 168 m 1,0,-1
 170 168 l 1,1,-1
 97 -12 l 1,2,-1
 -14 2 l 1,3,-1
 261 654 l 1,4,-1
 363 654 l 1,5,-1
 506 7 l 1,6,-1
 388 -12 l 1,7,-1
 351 168 l 1,0,-1
207 261 m 1,8,-1
 334 261 l 1,9,-1
 295 483 l 1,10,-1
 207 261 l 1,8,-1
181 746 m 1,11,-1
 406 835 l 1,12,-1
 459 757 l 1,13,-1
 237 674 l 1,14,-1
 181 746 l 1,11,-1
EndSplineSet
EndChar

StartChar: Edieresis
Encoding: 203 203 200
Width: 489
Flags: W
LayerCount: 2
Fore
SplineSet
182 391 m 1,0,-1
 408 391 l 1,1,-1
 398 292 l 1,2,-1
 172 293 l 1,3,-1
 153 109 l 1,4,-1
 393 110 l 1,5,-1
 381 0 l 1,6,-1
 24 0 l 1,7,-1
 92 640 l 1,8,-1
 451 640 l 1,9,-1
 440 535 l 1,10,-1
 198 535 l 1,11,-1
 182 391 l 1,0,-1
331 758 m 0,12,13
 334 784 334 784 353 805 c 0,14,15
 375 830 375 830 409 830 c 0,16,17
 442 830 442 830 459 805 c 0,18,19
 474 784 474 784 471 758 c 0,20,21
 468 731 468 731 449 710 c 0,22,23
 427 686 427 686 393 686 c 0,24,25
 360 686 360 686 343 710 c 0,26,27
 328 730 328 730 331 758 c 0,12,13
122 758 m 0,28,29
 125 785 125 785 143 805 c 0,30,31
 165 830 165 830 200 830 c 0,32,33
 232 830 232 830 249 805 c 0,34,35
 264 784 264 784 261 758 c 0,36,37
 258 731 258 731 239 710 c 0,38,39
 217 686 217 686 184 686 c 0,40,41
 150 686 150 686 133 710 c 0,42,43
 119 730 119 730 122 758 c 0,28,29
EndSplineSet
EndChar

StartChar: Egrave
Encoding: 200 200 201
Width: 489
Flags: W
LayerCount: 2
Fore
SplineSet
182 391 m 1,0,-1
 408 391 l 1,1,-1
 397 292 l 1,2,-1
 172 293 l 1,3,-1
 152 109 l 1,4,-1
 392 110 l 1,5,-1
 381 0 l 1,6,-1
 24 0 l 1,7,-1
 91 640 l 1,8,-1
 450 640 l 1,9,-1
 439 535 l 1,10,-1
 197 535 l 1,11,-1
 182 391 l 1,0,-1
362 686 m 1,12,-1
 163 776 l 1,13,-1
 216 841 l 1,14,-1
 417 745 l 1,15,-1
 362 686 l 1,12,-1
EndSplineSet
EndChar

StartChar: Iacute
Encoding: 205 205 202
Width: 215
Flags: W
LayerCount: 2
Fore
SplineSet
72 642 m 1,0,-1
 201 642 l 1,1,-1
 133 0 l 1,2,-1
 4 0 l 1,3,-1
 72 642 l 1,0,-1
14 746 m 1,4,-1
 238 835 l 1,5,-1
 292 757 l 1,6,-1
 69 674 l 1,7,-1
 14 746 l 1,4,-1
EndSplineSet
EndChar

StartChar: Icircumflex
Encoding: 206 206 203
Width: 215
Flags: W
LayerCount: 2
Fore
SplineSet
63 642 m 1,0,-1
 192 642 l 1,1,-1
 125 0 l 1,2,-1
 -4 0 l 1,3,-1
 63 642 l 1,0,-1
-5 681 m 1,4,-1
 4 769 l 1,5,-1
 153 875 l 1,6,-1
 284 769 l 1,7,-1
 275 682 l 1,8,-1
 141 759 l 1,9,-1
 -5 681 l 1,4,-1
EndSplineSet
EndChar

StartChar: Idieresis
Encoding: 207 207 204
Width: 215
Flags: W
LayerCount: 2
Fore
SplineSet
72 642 m 1,0,-1
 201 642 l 1,1,-1
 134 0 l 1,2,-1
 5 0 l 1,3,-1
 72 642 l 1,0,-1
184 748 m 0,4,5
 186 774 186 774 205 795 c 0,6,7
 227 820 227 820 261 820 c 0,8,9
 294 820 294 820 311 795 c 0,10,11
 326 774 326 774 324 748 c 0,12,13
 321 721 321 721 301 700 c 0,14,15
 279 676 279 676 246 676 c 0,16,17
 212 676 212 676 195 700 c 0,18,19
 181 720 181 720 184 748 c 0,4,5
-25 748 m 0,20,21
 -23 775 -23 775 -4 795 c 0,22,23
 18 820 18 820 52 820 c 0,24,25
 84 820 84 820 102 795 c 0,26,27
 116 774 116 774 114 748 c 0,28,29
 111 721 111 721 92 700 c 0,30,31
 70 676 70 676 37 676 c 0,32,33
 2 676 2 676 -14 700 c 0,34,35
 -28 720 -28 720 -25 748 c 0,20,21
EndSplineSet
EndChar

StartChar: Igrave
Encoding: 204 204 205
Width: 215
Flags: W
LayerCount: 2
Fore
SplineSet
71 642 m 1,0,-1
 200 642 l 1,1,-1
 133 0 l 1,2,-1
 4 0 l 1,3,-1
 71 642 l 1,0,-1
226 686 m 1,4,-1
 26 776 l 1,5,-1
 80 841 l 1,6,-1
 280 745 l 1,7,-1
 226 686 l 1,4,-1
EndSplineSet
EndChar

StartChar: Oacute
Encoding: 211 211 206
Width: 644
Flags: W
LayerCount: 2
Fore
SplineSet
28 322 m 0,0,1
 43 462 43 462 135 554 c 128,-1,2
 227 646 227 646 356 646 c 0,3,4
 473 646 473 646 542 568 c 128,-1,5
 611 490 611 490 611 367 c 0,6,7
 611 345 611 345 609 322 c 0,8,9
 592 163 592 163 497 71 c 0,10,11
 407 -16 407 -16 279 -16 c 0,12,13
 165 -16 165 -16 97 57 c 0,14,15
 25 133 25 133 25 267 c 0,16,17
 25 294 25 294 28 322 c 0,0,1
140 281 m 0,18,19
 140 197 140 197 182.5 140.5 c 128,-1,20
 225 84 225 84 290 84 c 0,21,22
 379 84 379 84 440 173 c 0,23,24
 496 253 496 253 496 346 c 0,25,26
 496 432 496 432 454 490 c 128,-1,27
 412 548 412 548 344 548 c 0,28,29
 254 548 254 548 194 456 c 0,30,31
 140 375 140 375 140 281 c 0,18,19
224 746 m 1,32,-1
 449 835 l 1,33,-1
 503 757 l 1,34,-1
 280 674 l 1,35,-1
 224 746 l 1,32,-1
EndSplineSet
EndChar

StartChar: Ocircumflex
Encoding: 212 212 207
Width: 644
Flags: W
LayerCount: 2
Fore
SplineSet
26 322 m 0,0,1
 41 462 41 462 133.5 554 c 128,-1,2
 226 646 226 646 354 646 c 0,3,4
 471 646 471 646 540.5 568 c 128,-1,5
 610 490 610 490 610 367 c 0,6,7
 610 345 610 345 607 322 c 0,8,9
 591 163 591 163 495 71 c 0,10,11
 405 -16 405 -16 278 -16 c 0,12,13
 164 -16 164 -16 95 57 c 0,14,15
 23 133 23 133 23 267 c 0,16,17
 23 294 23 294 26 322 c 0,0,1
139 281 m 0,18,19
 139 197 139 197 181 140.5 c 128,-1,20
 223 84 223 84 288 84 c 0,21,22
 378 84 378 84 439 173 c 0,23,24
 494 253 494 253 494 346 c 0,25,26
 494 432 494 432 452 490 c 128,-1,27
 410 548 410 548 342 548 c 0,28,29
 252 548 252 548 192 456 c 0,30,31
 139 375 139 375 139 281 c 0,18,19
220 661 m 1,32,-1
 230 759 l 1,33,-1
 379 865 l 1,34,-1
 510 759 l 1,35,-1
 500 662 l 1,36,-1
 367 749 l 1,37,-1
 220 661 l 1,32,-1
EndSplineSet
EndChar

StartChar: apple
Encoding: 294 61440 208
Width: 549
Flags: W
LayerCount: 2
Fore
SplineSet
302 453 m 1,0,-1
 302 481 l 1,1,-1
 338 481 l 1,2,-1
 338 515 l 1,3,-1
 367 515 l 1,4,-1
 367 481 l 1,5,-1
 403 481 l 1,6,-1
 403 453 l 1,7,-1
 367 453 l 1,8,-1
 367 420 l 1,9,-1
 338 420 l 1,10,-1
 338 453 l 1,11,-1
 302 453 l 1,0,-1
157 187 m 1,12,-1
 157 215 l 1,13,-1
 192 215 l 1,14,-1
 192 248 l 1,15,-1
 222 248 l 1,16,-1
 222 215 l 1,17,-1
 257 215 l 1,18,-1
 257 187 l 1,19,-1
 222 187 l 1,20,-1
 222 153 l 1,21,-1
 192 153 l 1,22,-1
 192 187 l 1,23,-1
 157 187 l 1,12,-1
222 276 m 1,24,-1
 240 276 l 1,25,-1
 240 253 l 1,26,-1
 222 253 l 1,27,-1
 222 276 l 1,24,-1
241 291 m 1,28,-1
 255 291 l 1,29,-1
 255 281 l 1,30,-1
 241 281 l 1,31,-1
 241 291 l 1,28,-1
256 309 m 1,32,-1
 301 309 l 1,33,-1
 301 296 l 1,34,-1
 256 296 l 1,35,-1
 256 309 l 1,32,-1
237 357 m 1,36,-1
 252 357 l 1,37,-1
 252 316 l 1,38,-1
 237 316 l 1,39,-1
 237 357 l 1,36,-1
335 392 m 1,40,-1
 318 392 l 1,41,-1
 318 415 l 1,42,-1
 335 415 l 1,43,-1
 335 392 l 1,40,-1
317 377 m 1,44,-1
 303 377 l 1,45,-1
 303 387 l 1,46,-1
 317 387 l 1,47,-1
 317 377 l 1,44,-1
301 359 m 1,48,-1
 256 359 l 1,49,-1
 256 372 l 1,50,-1
 301 372 l 1,51,-1
 301 359 l 1,48,-1
320 311 m 1,52,-1
 306 311 l 1,53,-1
 306 353 l 1,54,-1
 320 353 l 1,55,-1
 320 311 l 1,52,-1
EndSplineSet
EndChar

StartChar: Ograve
Encoding: 210 210 209
Width: 644
Flags: W
LayerCount: 2
Fore
SplineSet
27 322 m 0,0,1
 42 462 42 462 134.5 554 c 128,-1,2
 227 646 227 646 356 646 c 0,3,4
 472 646 472 646 541.5 568 c 128,-1,5
 611 490 611 490 611 367 c 0,6,7
 611 345 611 345 608 322 c 0,8,9
 592 163 592 163 496 71 c 0,10,11
 406 -16 406 -16 279 -16 c 0,12,13
 165 -16 165 -16 95 58.5 c 128,-1,14
 25 133 25 133 25 267 c 0,15,16
 25 294 25 294 27 322 c 0,0,1
140 281 m 0,17,18
 140 197 140 197 182 140.5 c 128,-1,19
 224 84 224 84 289 84 c 0,20,21
 379 84 379 84 440 173 c 0,22,23
 495 253 495 253 495 346 c 0,24,25
 495 432 495 432 453 490 c 128,-1,26
 411 548 411 548 343 548 c 0,27,28
 254 548 254 548 193 456 c 0,29,30
 140 375 140 375 140 281 c 0,17,18
437 686 m 1,31,-1
 237 776 l 1,32,-1
 291 841 l 1,33,-1
 491 745 l 1,34,-1
 437 686 l 1,31,-1
EndSplineSet
EndChar

StartChar: Uacute
Encoding: 218 218 210
Width: 571
Flags: W
LayerCount: 2
Fore
SplineSet
238 -17 m 0,0,1
 155 -17 155 -17 105 32 c 0,2,3
 47 87 47 87 47 191 c 0,4,5
 47 212 47 212 50 235 c 2,6,-1
 92 640 l 1,7,-1
 211 640 l 1,8,-1
 169 235 l 2,9,10
 167 216 167 216 167 198 c 0,11,12
 167 81 167 81 251 81 c 0,13,14
 295 81 295 81 328 115 c 0,15,16
 367 156 367 156 376 235 c 2,17,-1
 418 640 l 1,18,-1
 537 640 l 1,19,-1
 495 235 l 2,20,21
 481 109 481 109 401 41 c 0,22,23
 332 -17 332 -17 238 -17 c 0,0,1
182 746 m 1,24,-1
 407 835 l 1,25,-1
 461 757 l 1,26,-1
 238 674 l 1,27,-1
 182 746 l 1,24,-1
EndSplineSet
EndChar

StartChar: Ucircumflex
Encoding: 219 219 211
Width: 571
Flags: W
LayerCount: 2
Fore
SplineSet
237 -17 m 0,0,1
 154 -17 154 -17 103 32 c 0,2,3
 46 87 46 87 46 191 c 0,4,5
 46 212 46 212 48 235 c 2,6,-1
 91 640 l 1,7,-1
 210 640 l 1,8,-1
 167 235 l 2,9,10
 165 216 165 216 165 198 c 0,11,12
 165 81 165 81 249 81 c 0,13,14
 293 81 293 81 326 115 c 0,15,16
 366 156 366 156 374 235 c 2,17,-1
 417 640 l 1,18,-1
 536 640 l 1,19,-1
 493 235 l 2,20,21
 480 109 480 109 399 41 c 0,22,23
 330 -17 330 -17 237 -17 c 0,0,1
171 671 m 1,24,-1
 180 759 l 1,25,-1
 329 865 l 1,26,-1
 460 759 l 1,27,-1
 451 672 l 1,28,-1
 317 749 l 1,29,-1
 171 671 l 1,24,-1
EndSplineSet
EndChar

StartChar: Ugrave
Encoding: 217 217 212
Width: 571
Flags: W
LayerCount: 2
Fore
SplineSet
238 -17 m 0,0,1
 155 -17 155 -17 104 32 c 0,2,3
 47 87 47 87 47 191 c 0,4,5
 47 212 47 212 49 235 c 2,6,-1
 92 640 l 1,7,-1
 211 640 l 1,8,-1
 168 235 l 2,9,10
 166 216 166 216 166 198 c 0,11,12
 166 81 166 81 250 81 c 0,13,14
 294 81 294 81 327 115 c 0,15,16
 367 156 367 156 375 235 c 2,17,-1
 418 640 l 1,18,-1
 537 640 l 1,19,-1
 494 235 l 2,20,21
 481 109 481 109 400 41 c 0,22,23
 331 -17 331 -17 238 -17 c 0,0,1
395 686 m 1,24,-1
 195 776 l 1,25,-1
 249 841 l 1,26,-1
 449 745 l 1,27,-1
 395 686 l 1,24,-1
EndSplineSet
EndChar

StartChar: dotlessi
Encoding: 295 305 213
Width: 233
Flags: W
LayerCount: 2
Fore
SplineSet
89 495 m 1,0,-1
 196 495 l 1,1,-1
 144 0 l 1,2,-1
 37 0 l 1,3,-1
 89 495 l 1,0,-1
EndSplineSet
EndChar

StartChar: circumflex
Encoding: 296 710 214
Width: 337
Flags: W
LayerCount: 2
Fore
SplineSet
25 521 m 1,0,-1
 34 609 l 1,1,-1
 183 715 l 1,2,-1
 314 609 l 1,3,-1
 305 522 l 1,4,-1
 171 599 l 1,5,-1
 25 521 l 1,0,-1
EndSplineSet
EndChar

StartChar: tilde
Encoding: 297 732 215
Width: 375
Flags: W
LayerCount: 2
Fore
SplineSet
186 579 m 0,0,1
 154 602 154 602 144 602 c 0,2,3
 119 602 119 602 73 555 c 1,4,-1
 42 633 l 1,5,6
 88 683 88 683 153 685 c 0,7,8
 183 686 183 686 219 659 c 128,-1,9
 255 632 255 632 266 632 c 0,10,11
 279 632 279 632 319 663 c 1,12,-1
 349 587 l 1,13,14
 331 571 331 571 302.5 560 c 128,-1,15
 274 549 274 549 259 549 c 0,16,17
 228 549 228 549 186 579 c 0,0,1
EndSplineSet
EndChar

StartChar: macron
Encoding: 175 175 216
AltUni2: 0002c9.ffffffff.0
Width: 406
Flags: W
LayerCount: 2
Fore
SplineSet
108 659 m 1,0,-1
 342 659 l 1,1,-1
 336 594 l 1,2,-1
 102 594 l 1,3,-1
 108 659 l 1,0,-1
EndSplineSet
EndChar

StartChar: breve
Encoding: 298 728 217
Width: 345
Flags: W
LayerCount: 2
Fore
SplineSet
31 642 m 1,0,-1
 108 651 l 1,1,2
 126 604 126 604 171 604 c 0,3,4
 212 604 212 604 239 652 c 1,5,-1
 313 642 l 1,6,7
 266 538 266 538 165 538 c 0,8,9
 58 538 58 538 31 642 c 1,0,-1
EndSplineSet
EndChar

StartChar: dotaccent
Encoding: 299 729 218
Width: 237
Flags: W
LayerCount: 2
Fore
SplineSet
55 576 m 0,0,1
 58 605 58 605 81 624.5 c 128,-1,2
 104 644 104 644 135 644 c 0,3,4
 165 644 165 644 184.5 624 c 128,-1,5
 204 604 204 604 201 576 c 256,6,7
 198 548 198 548 174.5 528 c 128,-1,8
 151 508 151 508 121 508 c 0,9,10
 90 508 90 508 71 528 c 128,-1,11
 52 548 52 548 55 576 c 0,0,1
EndSplineSet
EndChar

StartChar: ring
Encoding: 300 730 219
Width: 305
Flags: W
LayerCount: 2
Fore
SplineSet
163 576 m 256,0,1
 123 576 123 576 100 600.5 c 128,-1,2
 77 625 77 625 81 663 c 0,3,4
 85 700 85 700 113 724.5 c 128,-1,5
 141 749 141 749 181 749 c 256,6,7
 221 749 221 749 244 724.5 c 128,-1,8
 267 700 267 700 263 663 c 0,9,10
 259 625 259 625 231 600.5 c 128,-1,11
 203 576 203 576 163 576 c 256,0,1
177 706 m 256,12,13
 144 706 144 706 139 663 c 0,14,15
 134 619 134 619 167 619 c 256,16,17
 200 619 200 619 205 663 c 0,18,19
 210 706 210 706 177 706 c 256,12,13
EndSplineSet
EndChar

StartChar: cedilla
Encoding: 301 184 220
Width: 205
Flags: W
LayerCount: 2
Fore
SplineSet
5 -176 m 1,0,-1
 49 -147 l 1,1,2
 75 -182 75 -182 104 -182 c 0,3,4
 112 -182 112 -182 121.5 -166.5 c 128,-1,5
 131 -151 131 -151 132 -142 c 0,6,7
 134 -129 134 -129 127.5 -117.5 c 128,-1,8
 121 -106 121 -106 115 -106 c 0,9,10
 86 -106 86 -106 77 -122 c 1,11,-1
 22 -105 l 1,12,-1
 40 4 l 1,13,-1
 120 5 l 1,14,-1
 113 -36 l 1,15,-1
 116 -36 l 2,16,17
 158 -36 158 -36 180 -67 c 0,18,19
 199 -94 199 -94 196 -130 c 0,20,21
 192 -169 192 -169 170 -200 c 0,22,23
 142 -239 142 -239 97 -239 c 0,24,25
 26 -239 26 -239 5 -176 c 1,0,-1
EndSplineSet
EndChar

StartChar: hungarumlaut
Encoding: 302 733 221
Width: 362
Flags: W
LayerCount: 2
Fore
SplineSet
170 561 m 1,0,-1
 292 675 l 1,1,-1
 393 675 l 1,2,-1
 270 561 l 1,3,-1
 170 561 l 1,0,-1
12 561 m 1,4,-1
 135 675 l 1,5,-1
 235 675 l 1,6,-1
 113 561 l 1,7,-1
 12 561 l 1,4,-1
EndSplineSet
EndChar

StartChar: caron
Encoding: 304 711 222
Width: 337
Flags: W
LayerCount: 2
Fore
SplineSet
326 725 m 1,0,-1
 315 627 l 1,1,-1
 167 521 l 1,2,-1
 35 627 l 1,3,-1
 46 724 l 1,4,-1
 178 637 l 1,5,-1
 326 725 l 1,0,-1
EndSplineSet
EndChar

StartChar: Lslash
Encoding: 305 321 223
Width: 501
Flags: W
LayerCount: 2
Fore
SplineSet
63 367 m 1,0,-1
 92 641 l 1,1,-1
 210 641 l 1,2,-1
 186 413 l 1,3,-1
 250 437 l 1,4,-1
 238 323 l 1,5,-1
 174 299 l 1,6,-1
 153 105 l 1,7,-1
 415 105 l 1,8,-1
 404 0 l 1,9,-1
 24 0 l 1,10,-1
 51 254 l 1,11,-1
 -3 234 l 1,12,-1
 9 347 l 1,13,-1
 63 367 l 1,0,-1
EndSplineSet
EndChar

StartChar: lslash
Encoding: 306 322 224
Width: 282
Flags: W
LayerCount: 2
Fore
SplineSet
145 0 m 1,0,-1
 35 0 l 1,1,-1
 65 287 l 1,2,-1
 8 256 l 1,3,-1
 21 372 l 1,4,-1
 78 402 l 1,5,-1
 103 642 l 1,6,-1
 212 642 l 1,7,-1
 193 464 l 1,8,-1
 262 500 l 1,9,-1
 251 385 l 1,10,-1
 181 348 l 1,11,-1
 145 0 l 1,0,-1
EndSplineSet
EndChar

StartChar: Zcaron
Encoding: 180 381 227
Width: 544
Flags: W
LayerCount: 2
Fore
SplineSet
448 99 m 1,0,-1
 438 0 l 1,1,-1
 32 0 l 1,2,-1
 32 86 l 1,3,-1
 359 550 l 1,4,-1
 96 548 l 1,5,-1
 106 639 l 1,6,-1
 498 639 l 1,7,-1
 500 558 l 1,8,-1
 174 99 l 1,9,-1
 448 99 l 1,0,-1
511 865 m 1,10,-1
 501 767 l 1,11,-1
 353 661 l 1,12,-1
 221 767 l 1,13,-1
 231 864 l 1,14,-1
 364 777 l 1,15,-1
 511 865 l 1,10,-1
EndSplineSet
EndChar

StartChar: zcaron
Encoding: 184 382 228
Width: 482
Flags: W
LayerCount: 2
Fore
SplineSet
28 77 m 1,0,-1
 260 355 l 2,1,2
 271 370 271 370 305 408 c 1,3,-1
 72 408 l 1,4,-1
 81 494 l 1,5,-1
 446 494 l 1,6,-1
 437 414 l 1,7,-1
 222 152 l 2,8,9
 206 131 206 131 174 92 c 1,10,-1
 416 92 l 1,11,-1
 406 0 l 1,12,-1
 20 0 l 1,13,-1
 28 77 l 1,0,-1
482 725 m 1,14,-1
 472 627 l 1,15,-1
 324 521 l 1,16,-1
 192 627 l 1,17,-1
 202 724 l 1,18,-1
 335 637 l 1,19,-1
 482 725 l 1,14,-1
EndSplineSet
EndChar

StartChar: brokenbar
Encoding: 307 166 229
Width: 182
Flags: W
LayerCount: 2
Fore
SplineSet
54 278 m 1,0,-1
 131 278 l 1,1,-1
 131 -18 l 1,2,-1
 54 -18 l 1,3,-1
 54 278 l 1,0,-1
54 656 m 1,4,-1
 131 656 l 1,5,-1
 131 360 l 1,6,-1
 54 360 l 1,7,-1
 54 656 l 1,4,-1
EndSplineSet
EndChar

StartChar: Eth
Encoding: 208 208 230
Width: 565
Flags: W
LayerCount: 2
Fore
SplineSet
245 353 m 1,0,-1
 234 251 l 1,1,-1
 171 251 l 1,2,-1
 156 107 l 1,3,-1
 220 107 l 2,4,5
 299 107 299 107 351 170 c 0,6,7
 397 227 397 227 406 313 c 0,8,9
 410 347 410 347 410 375 c 0,10,11
 410 549 410 549 262 549 c 0,12,13
 254 549 254 549 234 549 c 0,14,15
 214 548 214 548 203 548 c 1,16,-1
 182 353 l 1,17,-1
 245 353 l 1,0,-1
62 353 m 1,18,-1
 93 643 l 1,19,20
 174 647 174 647 247 647 c 0,21,22
 393 647 393 647 464.5 585 c 128,-1,23
 536 523 536 523 536 386 c 0,24,25
 536 356 536 356 533 323 c 0,26,27
 518 170 518 170 431 86 c 0,28,29
 340 -2 340 -2 185 -2 c 0,30,31
 160 -2 160 -2 113.5 0 c 128,-1,32
 67 2 67 2 25 2 c 1,33,-1
 51 251 l 1,34,-1
 -2 251 l 1,35,-1
 9 353 l 1,36,-1
 62 353 l 1,18,-1
EndSplineSet
EndChar

StartChar: eth
Encoding: 240 240 231
Width: 579
Flags: W
LayerCount: 2
Fore
SplineSet
290 448 m 0,0,1
 220 448 220 448 178 368 c 0,2,3
 142 302 142 302 142 226 c 0,4,5
 142 160 142 160 172 110 c 0,6,7
 204 56 204 56 251 56 c 0,8,9
 315 56 315 56 355 116 c 0,10,11
 390 168 390 168 399 248 c 0,12,13
 410 346 410 346 410 345 c 1,14,15
 346 448 346 448 290 448 c 0,0,1
318 619 m 1,16,17
 307 639 307 639 269 683 c 1,18,-1
 350 736 l 1,19,20
 402 678 402 678 436 619 c 1,21,-1
 570 619 l 1,22,-1
 563 546 l 1,23,-1
 488 546 l 1,24,25
 519 456 519 456 519 327 c 0,26,27
 519 299 519 299 517 279 c 0,28,29
 482 -17 482 -17 223 -17 c 0,30,31
 127 -17 127 -17 72 57 c 0,32,33
 23 122 23 122 23 217 c 0,34,35
 23 347 23 347 96 432 c 0,36,37
 172 521 172 521 300 521 c 0,38,39
 326 521 326 521 404 464 c 1,40,41
 406 486 406 486 387 515 c 0,42,43
 375 530 375 530 363 546 c 1,44,-1
 223 546 l 1,45,-1
 230 619 l 1,46,-1
 318 619 l 1,16,17
EndSplineSet
EndChar

StartChar: Yacute
Encoding: 221 221 232
Width: 503
Flags: W
LayerCount: 2
Fore
SplineSet
275 0 m 1,0,-1
 156 0 l 1,1,-1
 184 271 l 1,2,-1
 50 621 l 1,3,-1
 163 654 l 1,4,-1
 257 375 l 1,5,-1
 407 654 l 1,6,-1
 510 621 l 1,7,-1
 303 271 l 1,8,-1
 275 0 l 1,0,-1
169 696 m 1,9,-1
 392 785 l 1,10,-1
 446 707 l 1,11,-1
 223 624 l 1,12,-1
 169 696 l 1,9,-1
EndSplineSet
EndChar

StartChar: Thorn
Encoding: 222 222 233
Width: 543
Flags: W
LayerCount: 2
Fore
SplineSet
162 180 m 1,0,-1
 132 -108 l 1,1,-1
 18 -108 l 1,2,-1
 102 700 l 1,3,-1
 216 700 l 1,4,-1
 208 619 l 1,5,6
 279 677 279 677 317 677 c 0,7,8
 410 677 410 677 462 604 c 0,9,10
 507 540 507 540 507 443 c 0,11,12
 507 425 507 425 506 407 c 0,13,14
 492 266 492 266 420 195 c 0,15,16
 358 133 358 133 262 133 c 0,17,18
 236 133 236 133 211 148.5 c 128,-1,19
 186 164 186 164 162 180 c 1,0,-1
196 510 m 1,20,-1
 172 280 l 1,21,22
 185 258 185 258 212 242 c 128,-1,23
 239 226 239 226 267 226 c 0,24,25
 329 226 329 226 363 300 c 0,26,27
 390 357 390 357 390 429 c 0,28,29
 390 492 390 492 367 531 c 0,30,31
 341 576 341 576 289 576 c 0,32,33
 236 576 236 576 196 510 c 1,20,-1
EndSplineSet
EndChar

StartChar: thorn
Encoding: 254 254 234
Width: 522
Flags: W
LayerCount: 2
Fore
SplineSet
177 -4 m 0,0,1
 171 -1 171 -1 152 13 c 2,2,-1
 149 15 l 1,3,-1
 127 -195 l 1,4,-1
 14 -195 l 1,5,-1
 106 685 l 1,6,-1
 219 685 l 1,7,-1
 193 432 l 1,8,9
 241 474 241 474 253 482 c 0,10,11
 290 508 290 508 318 508 c 0,12,13
 406 508 406 508 454 446 c 0,14,15
 497 390 497 390 497 299 c 0,16,17
 497 281 497 281 495 263 c 0,18,19
 481 120 481 120 408 47 c 0,20,21
 343 -18 343 -18 244 -18 c 0,22,23
 203 -18 203 -18 177 -4 c 0,0,1
179 302 m 1,24,-1
 159 111 l 1,25,26
 172 98 172 98 201.5 85.5 c 128,-1,27
 231 73 231 73 254 73 c 0,28,29
 316 73 316 73 352 152 c 0,30,31
 380 215 380 215 380 288 c 0,32,33
 380 413 380 413 295 413 c 0,34,35
 268 413 268 413 231 374 c 0,36,37
 202 342 202 342 179 302 c 1,24,-1
EndSplineSet
EndChar

StartChar: minus
Encoding: 173 173 235
AltUni2: 002212.ffffffff.0
Width: 498
Flags: W
LayerCount: 2
Fore
SplineSet
52 348 m 1,0,-1
 446 348 l 1,1,-1
 446 285 l 1,2,-1
 52 285 l 1,3,-1
 52 348 l 1,0,-1
EndSplineSet
EndChar

